<svg xmlns="http://www.w3.org/2000/svg" viewBox="0 0 285 86.18"><defs><style>.cls-1{fill:#fff;}</style></defs><title>Fichier 3</title><g id="Calque_2" data-name="Calque 2"><g id="section1-accueil"><g id="logo-appstore"><path d="M17.3,86.17l-2.07,0A30.32,30.32,0,0,1,11,85.78a13.64,13.64,0,0,1-3.78-1.23A12.39,12.39,0,0,1,4,82.26a12.07,12.07,0,0,1-2.34-3.15A13.1,13.1,0,0,1,.41,75.38,27.54,27.54,0,0,1,0,71.15c0-.47,0-2.06,0-2.06v-52s0-1.56,0-2a27.11,27.11,0,0,1,.38-4.22A13.06,13.06,0,0,1,1.65,7.08,12.12,12.12,0,0,1,4,3.93,12.61,12.61,0,0,1,7.18,1.62,13.44,13.44,0,0,1,11,.4,29.48,29.48,0,0,1,15.24,0L17.3,0H267.69l2.09,0A30,30,0,0,1,274,.39a13.91,13.91,0,0,1,3.82,1.24,12.74,12.74,0,0,1,5.52,5.45,13,13,0,0,1,1.22,3.72,29.75,29.75,0,0,1,.4,4.25v2c0,.85,0,1.65,0,2.46V66.66c0,.82,0,1.62,0,2.42s0,1.41,0,2.1a27.54,27.54,0,0,1-.39,4.17,12.75,12.75,0,0,1-1.23,3.77A12.61,12.61,0,0,1,281,82.24a12.28,12.28,0,0,1-3.2,2.3A13.21,13.21,0,0,1,274,85.78a30,30,0,0,1-4.27.37l-2.05,0H17.3Z"/><path class="cls-1" d="M55.81,43.77a11.16,11.16,0,0,1,5.3-9.36,11.4,11.4,0,0,0-9-4.86c-3.78-.4-7.45,2.26-9.38,2.26s-4.93-2.22-8.12-2.15A12,12,0,0,0,24.54,35.8c-4.36,7.54-1.11,18.63,3.07,24.73,2.08,3,4.52,6.32,7.72,6.2s4.29-2,8.06-2,4.83,2,8.09,1.92,5.47-3,7.48-6a24.83,24.83,0,0,0,3.42-7A10.77,10.77,0,0,1,55.81,43.77Z"/><path class="cls-1" d="M49.65,25.54a11,11,0,0,0,2.51-7.86,11.11,11.11,0,0,0-7.22,3.74A10.43,10.43,0,0,0,42.36,29,9.24,9.24,0,0,0,49.65,25.54Z"/><path class="cls-1" d="M80.32,31.15V19.61H76.1v-1.9H86.63v1.9H82.41V31.15Z"/><path class="cls-1" d="M96.34,28.41c-.45,1.82-2.08,2.94-4.39,2.94-2.91,0-4.69-2-4.69-5.24s1.82-5.3,4.68-5.3,4.52,1.93,4.52,5.12v.69H89.3v.12a2.68,2.68,0,0,0,2.7,2.9,2.43,2.43,0,0,0,2.41-1.23Zm-7-3.27h5.12a2.44,2.44,0,0,0-2.49-2.62A2.59,2.59,0,0,0,89.3,25.14Zm1.43-5.83,2.34-3.2h2.35l-2.62,3.2Z"/><path class="cls-1" d="M99.24,17.05h2v14.1h-2Z"/><path class="cls-1" d="M113.11,28.41c-.46,1.82-2.08,2.94-4.4,2.94-2.9,0-4.68-2-4.68-5.24s1.82-5.3,4.68-5.3,4.52,1.93,4.52,5.12v.69h-7.16v.12a2.68,2.68,0,0,0,2.7,2.9,2.43,2.43,0,0,0,2.41-1.23Zm-7-3.27h5.12a2.44,2.44,0,0,0-2.5-2.62A2.58,2.58,0,0,0,106.07,25.14Zm1.43-5.83,2.34-3.2h2.35l-2.62,3.2Z"/><path class="cls-1" d="M122.56,24.32a2.26,2.26,0,0,0-2.39-1.72c-1.68,0-2.71,1.28-2.71,3.45s1,3.51,2.71,3.51a2.2,2.2,0,0,0,2.39-1.67h2c-.26,2-1.83,3.46-4.33,3.46-3,0-4.76-2-4.76-5.3s1.79-5.24,4.75-5.24a4,4,0,0,1,4.34,3.51Z"/><path class="cls-1" d="M127.17,17.05h2v5.59h.16a3.11,3.11,0,0,1,3.09-1.82c2.16,0,3.5,1.37,3.5,3.78v6.55h-2v-6c0-1.62-.75-2.44-2.17-2.44a2.36,2.36,0,0,0-2.55,2.57v5.92h-2Z"/><path class="cls-1" d="M138.41,28.28c0-1.82,1.36-2.88,3.78-3l2.74-.15v-.88c0-1.07-.7-1.68-2.07-1.68-1.12,0-1.9.41-2.12,1.13H138.8c.21-1.74,1.85-2.86,4.15-2.86,2.54,0,4,1.27,4,3.41v6.93H145V29.73h-.16a3.41,3.41,0,0,1-3.05,1.59A3.07,3.07,0,0,1,138.41,28.28Zm6.52-.86v-.85l-2.47.16c-1.4.09-2,.57-2,1.46s.79,1.44,1.88,1.44A2.38,2.38,0,0,0,144.93,27.42Z"/><path class="cls-1" d="M150.06,21H152v1.55h.15a2.75,2.75,0,0,1,2.74-1.72,4.66,4.66,0,0,1,.89.08v2a5.23,5.23,0,0,0-1.12-.12,2.38,2.38,0,0,0-2.59,2.38v6h-2Z"/><path class="cls-1" d="M157.61,32.17h2c.17.73,1,1.21,2.37,1.21,1.66,0,2.65-.79,2.65-2.13V29.3h-.15A3.4,3.4,0,0,1,161.4,31c-2.59,0-4.19-2-4.19-5s1.62-5.12,4.21-5.12a3.52,3.52,0,0,1,3.19,1.79h.16V21h1.91V31.24c0,2.32-1.81,3.79-4.68,3.79C159.46,35,157.82,33.89,157.61,32.17ZM164.72,26c0-2-1.05-3.31-2.75-3.31s-2.69,1.29-2.69,3.31,1,3.32,2.69,3.32S164.72,28,164.72,26Z"/><path class="cls-1" d="M178.45,28.41c-.45,1.82-2.07,2.94-4.39,2.94-2.91,0-4.69-2-4.69-5.24s1.82-5.3,4.68-5.3,4.52,1.93,4.52,5.12v.69h-7.16v.12a2.68,2.68,0,0,0,2.7,2.9,2.46,2.46,0,0,0,2.42-1.23Zm-7-3.27h5.12A2.44,2.44,0,0,0,174,22.52,2.59,2.59,0,0,0,171.41,25.14Z"/><path class="cls-1" d="M181.26,21h1.93v1.55h.15a2.75,2.75,0,0,1,2.74-1.72,4.66,4.66,0,0,1,.89.08v2a5.23,5.23,0,0,0-1.12-.12,2.38,2.38,0,0,0-2.59,2.38v6h-2Z"/><path class="cls-1" d="M194.19,26.08c0-3.21,1.64-5.24,4.21-5.24a3.35,3.35,0,0,1,3.11,1.78h.15V17.05h2v14.1h-1.92v-1.6h-.16a3.51,3.51,0,0,1-3.18,1.77C195.82,31.32,194.19,29.29,194.19,26.08Zm2.06,0c0,2.15,1,3.44,2.71,3.44s2.73-1.31,2.73-3.44-1.05-3.44-2.73-3.44S196.25,23.94,196.25,26.08Z"/><path class="cls-1" d="M206.36,28.28c0-1.82,1.36-2.88,3.78-3l2.75-.15v-.88c0-1.07-.71-1.68-2.08-1.68-1.12,0-1.89.41-2.12,1.13h-1.93c.2-1.74,1.84-2.86,4.14-2.86,2.54,0,4,1.27,4,3.41v6.93H213V29.73h-.16a3.41,3.41,0,0,1-3,1.59C207.79,31.32,206.36,30.14,206.36,28.28Zm6.53-.86v-.85l-2.48.16c-1.4.09-2,.57-2,1.46s.79,1.44,1.88,1.44A2.39,2.39,0,0,0,212.89,27.42Z"/><path class="cls-1" d="M218,21h1.93v1.61h.15a3,3,0,0,1,3-1.81c2.26,0,3.51,1.36,3.51,3.77v6.57h-2V25.09c0-1.63-.71-2.44-2.19-2.44A2.32,2.32,0,0,0,220,25.22v5.93h-2Z"/><path class="cls-1" d="M233.43,20.81c2.29,0,3.78,1.06,4,2.85h-1.92c-.18-.74-.91-1.22-2-1.22s-2,.53-2,1.32c0,.61.51,1,1.61,1.24l1.69.39c1.92.45,2.83,1.28,2.83,2.77,0,1.91-1.78,3.19-4.2,3.19s-4-1.09-4.17-2.89h2a2.05,2.05,0,0,0,2.2,1.27c1.25,0,2.14-.56,2.14-1.37,0-.61-.48-1-1.49-1.24l-1.77-.41c-1.93-.46-2.83-1.32-2.83-2.83C229.49,22.08,231.14,20.81,233.43,20.81Z"/><path class="cls-1" d="M79.3,38.73h4.18v28H79.3Z"/><path class="cls-1" d="M88.53,49l2.29-10.24h4.07L92.12,49Z"/><path class="cls-1" d="M110.72,59.15H100.05l-2.56,7.56H93l10.11-28h4.69l10.1,28h-4.6Zm-9.56-3.49h8.45l-4.17-12.27h-.11Z"/><path class="cls-1" d="M139.68,56.51c0,6.34-3.39,10.41-8.51,10.41a6.92,6.92,0,0,1-6.42-3.57h-.09V73.46h-4.19V46.31h4V49.7h.08a7.24,7.24,0,0,1,6.49-3.6C136.27,46.1,139.68,50.19,139.68,56.51Zm-4.3,0c0-4.13-2.14-6.84-5.39-6.84s-5.35,2.77-5.35,6.84,2.15,6.86,5.35,6.86S135.38,60.68,135.38,56.51Z"/><path class="cls-1" d="M162.13,56.51c0,6.34-3.39,10.41-8.51,10.41a6.91,6.91,0,0,1-6.42-3.57h-.1V73.46h-4.18V46.31H147V49.7h.08a7.24,7.24,0,0,1,6.49-3.6C158.72,46.1,162.13,50.19,162.13,56.51Zm-4.3,0c0-4.13-2.14-6.84-5.39-6.84s-5.35,2.77-5.35,6.84,2.15,6.86,5.35,6.86S157.83,60.68,157.83,56.51Z"/><path class="cls-1" d="M177,58.92c.31,2.77,3,4.59,6.69,4.59,3.52,0,6.06-1.82,6.06-4.32,0-2.17-1.53-3.47-5.15-4.36L180.94,54c-5.14-1.24-7.52-3.64-7.52-7.54,0-4.83,4.21-8.14,10.18-8.14s10,3.31,10.1,8.14h-4.23c-.25-2.79-2.56-4.48-5.93-4.48s-5.68,1.71-5.68,4.19c0,2,1.47,3.14,5.08,4l3.08.76c5.74,1.36,8.13,3.66,8.13,7.75,0,5.24-4.17,8.52-10.8,8.52-6.21,0-10.4-3.2-10.67-8.26Z"/><path class="cls-1" d="M203.18,41.49v4.82h3.88v3.32h-3.88V60.87c0,1.75.78,2.56,2.48,2.56.43,0,1.11-.06,1.38-.09v3.29a11.13,11.13,0,0,1-2.33.2c-4.12,0-5.74-1.55-5.74-5.51V49.63h-3V46.31h3V41.49Z"/><path class="cls-1" d="M209.3,56.51c0-6.42,3.78-10.45,9.68-10.45s9.67,4,9.67,10.45S224.91,67,219,67,209.3,63,209.3,56.51Zm15.09,0c0-4.4-2-7-5.41-7s-5.41,2.62-5.41,7,2,7,5.41,7S224.39,60.93,224.39,56.51Z"/><path class="cls-1" d="M232.11,46.31h4v3.47h.1a4.87,4.87,0,0,1,4.9-3.68,6.31,6.31,0,0,1,1.44.16v3.91a5.81,5.81,0,0,0-1.89-.25c-2.69,0-4.36,1.82-4.36,4.69v12.1h-4.18Z"/><path class="cls-1" d="M261.84,60.72c-.56,3.7-4.17,6.24-8.78,6.24-5.94,0-9.62-4-9.62-10.35s3.7-10.55,9.44-10.55,9.19,3.88,9.19,10.06v1.44h-14.4v.25c0,3.49,2.19,5.78,5.48,5.78,2.33,0,4.15-1.11,4.71-2.87Zm-14.15-6.09h10.19c-.09-3.12-2.09-5.18-5-5.18S247.9,51.55,247.69,54.63Z"/></g></g></g></svg>