<svg xmlns="http://www.w3.org/2000/svg" xmlns:xlink="http://www.w3.org/1999/xlink" viewBox="0 0 285 84.45"><defs><style>.cls-1,.cls-8,.cls-9{fill:#fff;}.cls-2{fill:url(#linear-gradient);}.cls-3{fill:url(#linear-gradient-2);}.cls-4{fill:url(#linear-gradient-3);}.cls-5{fill:url(#linear-gradient-4);}.cls-6{opacity:0.2;}.cls-6,.cls-7,.cls-8{isolation:isolate;}.cls-7{opacity:0.12;}.cls-8{opacity:0.25;}.cls-9{stroke:#fff;stroke-miterlimit:10;stroke-width:0.2px;}</style><linearGradient id="linear-gradient" x1="46.02" y1="-368.76" x2="10.59" y2="-404.19" gradientTransform="matrix(1, 0, 0, -1, 0, -350.38)" gradientUnits="userSpaceOnUse"><stop offset="0" stop-color="#00a0ff"/><stop offset="0.01" stop-color="#00a1ff"/><stop offset="0.26" stop-color="#00beff"/><stop offset="0.51" stop-color="#00d2ff"/><stop offset="0.76" stop-color="#00dfff"/><stop offset="1" stop-color="#00e3ff"/></linearGradient><linearGradient id="linear-gradient-2" x1="71.43" y1="-392.6" x2="20.35" y2="-392.6" gradientTransform="matrix(1, 0, 0, -1, 0, -350.38)" gradientUnits="userSpaceOnUse"><stop offset="0" stop-color="#ffe000"/><stop offset="0.41" stop-color="#ffbd00"/><stop offset="0.78" stop-color="orange"/><stop offset="1" stop-color="#ff9c00"/></linearGradient><linearGradient id="linear-gradient-3" x1="52.41" y1="-397.45" x2="4.37" y2="-445.49" gradientTransform="matrix(1, 0, 0, -1, 0, -350.38)" gradientUnits="userSpaceOnUse"><stop offset="0" stop-color="#ff3a44"/><stop offset="1" stop-color="#c31162"/></linearGradient><linearGradient id="linear-gradient-4" x1="15.41" y1="-350.75" x2="36.86" y2="-372.2" gradientTransform="matrix(1, 0, 0, -1, 0, -350.38)" gradientUnits="userSpaceOnUse"><stop offset="0" stop-color="#32a071"/><stop offset="0.07" stop-color="#2da771"/><stop offset="0.48" stop-color="#15cf74"/><stop offset="0.8" stop-color="#06e775"/><stop offset="1" stop-color="#00f076"/></linearGradient></defs><title>Fichier 14</title><g id="Calque_2" data-name="Calque 2"><g id="section1-accueil"><g id="logo-playstore"><rect width="285" height="84.45" rx="10.56"/><path class="cls-1" d="M143.84,45.92a9,9,0,1,0,9,9A8.85,8.85,0,0,0,143.84,45.92Zm0,14.42a5.45,5.45,0,1,1,5.07-5.44A5.19,5.19,0,0,1,143.84,60.34ZM124.18,45.92a9,9,0,1,0,9,9A8.85,8.85,0,0,0,124.18,45.92Zm0,14.42a5.45,5.45,0,1,1,5.07-5.44A5.19,5.19,0,0,1,124.18,60.34ZM100.79,48.68v3.8h9.12a7.93,7.93,0,0,1-2.08,4.8,9.3,9.3,0,0,1-7,2.79,10.14,10.14,0,0,1,0-20.27,9.71,9.71,0,0,1,6.87,2.72l2.69-2.69A13.32,13.32,0,0,0,100.79,36a13.95,13.95,0,1,0,0,27.89A12.76,12.76,0,0,0,110.52,60a12.59,12.59,0,0,0,3.3-8.91,12.9,12.9,0,0,0-.2-2.38Zm95.65,3c-.74-2-3-5.71-7.68-5.71s-8.47,3.64-8.47,9a8.79,8.79,0,0,0,8.91,9,8.92,8.92,0,0,0,7.48-4l-3.06-2a5.11,5.11,0,0,1-4.42,2.48,4.56,4.56,0,0,1-4.35-2.72l12-5Zm-12.24,3a4.93,4.93,0,0,1,4.69-5.24,3.48,3.48,0,0,1,3.34,1.9Zm-9.76,8.7h3.94V36.94h-3.94ZM168,47.93h-.14a6.19,6.19,0,0,0-4.73-2,9,9,0,0,0,0,18,6.1,6.1,0,0,0,4.73-2H168v1.29c0,3.44-1.84,5.27-4.8,5.27a5,5,0,0,1-4.52-3.19l-3.44,1.42a8.57,8.57,0,0,0,8,5.31c4.63,0,8.54-2.72,8.54-9.35V46.46H168Zm-4.53,12.41a5.46,5.46,0,0,1,0-10.88c2.69,0,4.8,2.31,4.8,5.47S166.14,60.34,163.45,60.34Zm51.48-23.4h-9.44V63.33h3.93v-10h5.51c4.36,0,8.65-3.17,8.65-8.2S219.29,36.94,214.93,36.94Zm.1,12.72h-5.61v-9H215a4.52,4.52,0,1,1,0,9Zm24.34-3.79c-2.85,0-5.8,1.26-7,4l3.5,1.46a3.73,3.73,0,0,1,3.6-1.93c2,0,4.11,1.22,4.14,3.39v.27a8.81,8.81,0,0,0-4.11-1c-3.76,0-7.6,2.07-7.6,5.94,0,3.53,3.09,5.8,6.55,5.8a5.55,5.55,0,0,0,5-2.58h.13v2h3.81V53.17C247.39,48.49,243.89,45.87,239.37,45.87Zm-.47,14.47c-1.29,0-3.09-.65-3.09-2.24,0-2,2.24-2.82,4.17-2.82a7,7,0,0,1,3.6.88A4.78,4.78,0,0,1,238.9,60.34Zm22.34-13.89-4.52,11.44h-.13L251.9,46.45h-4.24l7,16-4,8.9h4.11l10.83-24.89ZM225.76,63.33h3.94V36.94h-3.94Z"/><path class="cls-2" d="M22,15.91a4.25,4.25,0,0,0-1,3V65.57a4.25,4.25,0,0,0,1,3l.16.15L48.34,42.53v-.61L22.19,15.76Z"/><path class="cls-3" d="M57.06,51.26l-8.72-8.73v-.61l8.72-8.72.2.11,10.33,5.87c3,1.67,3,4.42,0,6.09L57.26,51.14Z"/><path class="cls-4" d="M57.26,51.14l-8.92-8.92L22,68.54c1,1,2.58,1.15,4.39.13L57.26,51.14"/><path class="cls-5" d="M57.26,33.31,26.42,15.78c-1.81-1-3.42-.9-4.39.13L48.34,42.22Z"/><path class="cls-6" d="M57.06,51,26.42,68.36c-1.72,1-3.25.91-4.23,0h0l-.16.16h0l.16.15h0c1,.88,2.51,1,4.23,0L57.26,51.14Z"/><path class="cls-7" d="M22,68.23a4.25,4.25,0,0,1-1-3v.31a4.25,4.25,0,0,0,1,3l.16-.16Z"/><path class="cls-7" d="M67.59,45,57.06,51l.2.19,10.33-5.87a3.71,3.71,0,0,0,2.21-3h0A3.91,3.91,0,0,1,67.59,45Z"/><path class="cls-8" d="M26.42,16.09l41.17,23.4a3.9,3.9,0,0,1,2.21,2.73h0a3.7,3.7,0,0,0-2.21-3L26.42,15.79c-3-1.68-5.37-.29-5.37,3.09v.31C21.05,15.81,23.47,14.42,26.42,16.09Z"/><path class="cls-9" d="M87.14,27.44V14.78H91a6.28,6.28,0,0,1,4.67,1.76,6.19,6.19,0,0,1,1.75,4.57,6.17,6.17,0,0,1-1.75,4.57A6.28,6.28,0,0,1,91,27.44Zm1.63-1.55H91a4.73,4.73,0,0,0,3.47-1.26,4.69,4.69,0,0,0,1.29-3.52,4.68,4.68,0,0,0-1.29-3.51A4.73,4.73,0,0,0,91,16.33H88.77Z"/><path class="cls-9" d="M99.72,27.44V14.78h1.63V27.44Z"/><path class="cls-9" d="M107.82,27.73a4.71,4.71,0,0,1-2.69-.9,4.22,4.22,0,0,1-1.73-2.53l1.49-.61A3.41,3.41,0,0,0,106,25.45a2.77,2.77,0,0,0,1.85.72,2.92,2.92,0,0,0,1.82-.56,1.77,1.77,0,0,0,.75-1.51,2,2,0,0,0-.75-1.64,7.89,7.89,0,0,0-2.38-1.07A6.36,6.36,0,0,1,104.71,20a2.85,2.85,0,0,1-.87-2.15,3.17,3.17,0,0,1,1.08-2.37,4,4,0,0,1,2.82-1,4,4,0,0,1,2.61.81,3.67,3.67,0,0,1,1.31,1.76l-1.48.62a2.26,2.26,0,0,0-.79-1.12,2.49,2.49,0,0,0-1.62-.51,2.56,2.56,0,0,0-1.6.52,1.61,1.61,0,0,0-.66,1.3,1.47,1.47,0,0,0,.61,1.2,6,6,0,0,0,1.79.87,14.43,14.43,0,0,1,1.57.59,7.39,7.39,0,0,1,1.27.75,2.89,2.89,0,0,1,1,1.17,3.72,3.72,0,0,1,.33,1.62,3.39,3.39,0,0,1-.38,1.64,3,3,0,0,1-1,1.15,5.1,5.1,0,0,1-1.35.65A5.32,5.32,0,0,1,107.82,27.73Z"/><path class="cls-9" d="M116,27.44h-1.63V14.78h4.32a4,4,0,0,1,2.78,1.07,3.67,3.67,0,0,1,0,5.39,4,4,0,0,1-2.78,1.07H116Zm0-6.68h2.72a2.11,2.11,0,0,0,1.65-.69,2.2,2.2,0,0,0,0-3,2.09,2.09,0,0,0-1.65-.7H116Z"/><path class="cls-9" d="M135.08,25.81a6.58,6.58,0,0,1-9.29,0,6.47,6.47,0,0,1-1.87-4.7,6.43,6.43,0,0,1,1.87-4.69,6.17,6.17,0,0,1,4.64-1.93,6.24,6.24,0,0,1,4.64,1.93,6.48,6.48,0,0,1,1.87,4.69A6.5,6.5,0,0,1,135.08,25.81ZM127,24.75a4.88,4.88,0,0,0,6.88,0,5,5,0,0,0,1.41-3.64,4.94,4.94,0,0,0-1.41-3.63,4.85,4.85,0,0,0-6.88,0,5,5,0,0,0-1.4,3.63A5,5,0,0,0,127,24.75Z"/><path class="cls-9" d="M139.23,27.44V14.78h2l6.15,9.85h.07l-.07-2.44V14.78H149V27.44h-1.7l-6.44-10.33h-.07l.07,2.44v7.89Z"/><path class="cls-9" d="M151.89,27.44V14.78h1.63V27.44Z"/><path class="cls-9" d="M156.42,27.44V14.78H161a3.76,3.76,0,0,1,2.58,1,3.22,3.22,0,0,1,1.09,2.47,2.78,2.78,0,0,1-.47,1.59,3,3,0,0,1-1.25,1v.07a3.28,3.28,0,0,1,1.54,1.1,2.88,2.88,0,0,1,.6,1.81A3.34,3.34,0,0,1,164,26.42a3.92,3.92,0,0,1-2.7,1Zm1.63-7.23H161a1.89,1.89,0,0,0,1.48-.61,2,2,0,0,0,.56-1.34,1.93,1.93,0,0,0-.54-1.32,1.84,1.84,0,0,0-1.43-.61h-3Zm0,5.68h3.27a1.93,1.93,0,0,0,1.52-.66,2.09,2.09,0,0,0,.59-1.43,2,2,0,0,0-.6-1.42,2.07,2.07,0,0,0-1.58-.65h-3.2Z"/><path class="cls-9" d="M167.28,27.44V14.78h1.63V25.89h5.48v1.55Z"/><path class="cls-9" d="M183.84,16.33h-5.76v4h5.2v1.52h-5.2v4h5.76v1.55h-7.39V14.78h7.39Z"/><path class="cls-9" d="M193.68,27.73a4.74,4.74,0,0,1-2.7-.9,4.2,4.2,0,0,1-1.72-2.53l1.48-.61a3.36,3.36,0,0,0,1.09,1.76,2.75,2.75,0,0,0,1.85.72,2.89,2.89,0,0,0,1.81-.56,1.75,1.75,0,0,0,.75-1.51,1.93,1.93,0,0,0-.75-1.64,7.78,7.78,0,0,0-2.38-1.07A6.25,6.25,0,0,1,190.57,20a2.85,2.85,0,0,1-.87-2.15,3.17,3.17,0,0,1,1.08-2.37,4,4,0,0,1,2.81-1,4,4,0,0,1,2.62.81,3.74,3.74,0,0,1,1.31,1.76l-1.49.62a2.17,2.17,0,0,0-.78-1.12,2.49,2.49,0,0,0-1.62-.51,2.54,2.54,0,0,0-1.6.52,1.59,1.59,0,0,0-.67,1.3,1.5,1.5,0,0,0,.61,1.2,6,6,0,0,0,1.8.87,16.22,16.22,0,0,1,1.57.59,7.79,7.79,0,0,1,1.27.75,3,3,0,0,1,1,1.17,3.72,3.72,0,0,1,.33,1.62,3.51,3.51,0,0,1-.38,1.64,3,3,0,0,1-1,1.15,5.25,5.25,0,0,1-1.35.65A5.37,5.37,0,0,1,193.68,27.73Z"/><path class="cls-9" d="M204.65,27.73a4.44,4.44,0,0,1-3.39-1.38,5,5,0,0,1-1.3-3.61v-8h1.63v8a3.65,3.65,0,0,0,.78,2.43,2.83,2.83,0,0,0,2.28.93,2.8,2.8,0,0,0,2.27-.93,3.61,3.61,0,0,0,.79-2.43v-8h1.63v8a5.15,5.15,0,0,1-1.27,3.62A4.44,4.44,0,0,1,204.65,27.73Z"/><path class="cls-9" d="M212,27.44V14.78h4.32a4,4,0,0,1,2.79,1.07,3.66,3.66,0,0,1,.31,5,3.72,3.72,0,0,1-2.16,1.28l0,.06,3.56,5.14v.07H218.8l-3.41-5.13h-1.81v5.13Zm1.63-6.65h2.62a2.39,2.39,0,0,0,1.67-.63,2.08,2.08,0,0,0,.7-1.61A2.23,2.23,0,0,0,218,17a2.07,2.07,0,0,0-1.64-.7h-2.73Z"/></g></g></g></svg>