<?xml version="1.0" encoding="utf-8"?>
<!-- Generator: Adobe Illustrator 23.0.3, SVG Export Plug-In . SVG Version: 6.00 Build 0)  -->
<svg version="1.1" id="Calque_1" xmlns="http://www.w3.org/2000/svg" xmlns:xlink="http://www.w3.org/1999/xlink" x="0px" y="0px"
	 viewBox="0 0 600.6 796.7" style="enable-background:new 0 0 600.6 796.7;" xml:space="preserve">
<style type="text/css">
	.st0{clip-path:url(#SVGID_2_);}
	.st1{fill:#7EC8C0;}
	.st2{clip-path:url(#SVGID_4_);}
	.st3{fill:#322D3A;}
	.st4{fill:#1A1423;}
	.st5{fill:#008E76;}
	.st6{fill:#666270;}
	.st7{fill:#046351;}
	.st8{fill:#FFFFFF;}
	.st9{opacity:0.3;}
	.st10{fill:#B3B3B3;}
	.st11{fill:none;}
	.st12{opacity:0.5;fill:#1A1423;enable-background:new    ;}
	.st13{opacity:0.6;fill:#1A1423;enable-background:new    ;}
	.st14{fill:none;stroke:#FFFFFF;stroke-width:4;stroke-miterlimit:10;}
	.st15{fill:none;stroke:#000000;stroke-miterlimit:10;}
	.st16{fill:#333333;}
	.st17{fill:#8E1937;}
	.st18{fill:#BC153A;}
	.st19{fill:#E6294A;}
	.st20{opacity:0.35;fill:#429A8A;enable-background:new    ;}
	.st21{opacity:0.85;fill:#FFFFFF;enable-background:new    ;}
	.st22{fill:none;stroke:#4D4D4D;stroke-width:4.2;stroke-miterlimit:10;}
	.st23{opacity:0.5;}
	.st24{opacity:0.8;fill:#1A1423;enable-background:new    ;}
	.st25{fill:#3C3944;}
	.st26{fill:#FDD835;}
	.st27{opacity:0.75;}
	.st28{fill:#FF1744;}
	.st29{fill:#2C5871;}
	.st30{fill:#9FB603;}
	.st31{fill:#C1D64B;}
</style>
<title>img-energie</title>
<g>
	<g>
		<g id="section4-technicity">
			<g>
				<defs>
					<circle id="SVGID_1_" cx="328.3" cy="252.8" r="252.8"/>
				</defs>
				<clipPath id="SVGID_2_">
					<use xlink:href="#SVGID_1_"  style="overflow:visible;"/>
				</clipPath>
				<g class="st0">
					<circle class="st1" cx="328.3" cy="252.8" r="252.8"/>
					<g>
						<defs>
							<circle id="SVGID_3_" cx="328.3" cy="252.8" r="252.8"/>
						</defs>
						<clipPath id="SVGID_4_">
							<use xlink:href="#SVGID_3_"  style="overflow:visible;"/>
						</clipPath>
						<g class="st2">
							<path class="st3" d="M148.9,695.2c17.6-4.7,37.3-6.4,53.3,8.2c17.2,13.3,25.3,53.4,7.6,77.4c-9.3,15.8-30.8,16.4-47,15.8
								C222.9,788.3,198.3,686.1,148.9,695.2z"/>
							<path class="st4" d="M197.6,740.3c3.6,29.8-7.7,53.2-30.7,56c-22,2.7-41.8-18.4-45.4-49.1c-3.4-28.6,13.2-53.2,35.4-53.2
								S194.7,715.8,197.6,740.3z"/>
							<path class="st5" d="M187,747.3c1.9,21.8-10.8,39.6-26.9,39.6s-28.9-17.2-31.5-39.6c-2.5-20.8,10.8-39.6,26.9-39.6
								S185.1,726.4,187,747.3z"/>
							<path class="st6" d="M160.6,693.4c5.8-0.4,11.5,0.9,16.6,3.7c5,2.9,9.3,6.8,12.8,11.4c6.9,9.3,10.8,20.4,12.6,31.8
								s1.2,23.3-3.3,34.2c-2.2,5.4-5.6,10.3-10,14.2c-4.4,3.8-9.8,6.3-15.5,7.3l-0.1-0.2c5.4-1.5,10.4-4.3,14.4-8.2
								c4-3.9,7-8.6,9-13.8c3.9-10.5,5.1-21.9,3.6-33c-1.5-11.1-5.1-22.1-11.7-31.3c-3.2-4.7-7.3-8.6-12.2-11.5
								c-4.9-2.9-10.5-4.3-16.2-4.1L160.6,693.4z"/>
							<path class="st6" d="M165.7,692.8c5.9-0.4,11.7,0.8,17,3.4c5.2,2.7,9.9,6.5,13.6,11.1c7.5,9.1,12,20.4,14.1,32
								s1.6,23.9-3.1,34.9c-2.4,5.5-6,10.4-10.6,14.2c-4.7,3.7-10.2,6.1-16.1,7v-0.2c11.3-2.9,20.5-11.1,24.6-22
								c4.3-10.5,5.2-22.4,3.4-33.7s-6-22.5-13.2-31.5c-3.5-4.6-7.9-8.4-13-11.2c-5.1-2.8-10.9-4.1-16.7-3.8L165.7,692.8z"/>
							<path class="st6" d="M171.9,692.6c5.8-0.4,11.7,0.8,16.9,3.4c5.2,2.7,9.8,6.4,13.5,11c7.4,9,12,20.2,14.1,31.6
								s1.8,23.7-2.9,34.6c-2.3,5.5-5.9,10.3-10.4,14.2c-4.6,3.7-10.1,6.1-15.9,7v-0.2c11.2-2.9,20.2-11.1,24.3-21.9
								c4.2-10.5,4.9-22.2,3.2-33.5s-6.1-22.2-13.2-31.2c-3.5-4.5-7.9-8.3-12.9-11.1c-5.1-2.7-10.8-4.1-16.6-3.8L171.9,692.6z"/>
							<path class="st3" d="M378.7,694.4c17.6-4.7,37.4-6.4,53.3,8.2c17.2,13.3,25.3,53.4,7.6,77.4c-9.3,15.8-30.8,16.4-47,15.8
								C452.6,787.5,428,685.3,378.7,694.4z"/>
							<path class="st4" d="M427.3,739.5c3.6,29.8-7.7,53.2-30.7,56c-22,2.7-41.8-18.4-45.5-49.1c-3.4-28.6,13.2-53.2,35.4-53.2
								S424.4,715,427.3,739.5z"/>
							<path class="st7" d="M416.7,746.4c1.9,21.8-10.8,39.6-26.9,39.6s-28.9-17.2-31.5-39.6c-2.5-20.8,10.8-39.6,26.9-39.6
								S414.9,725.6,416.7,746.4z"/>
							<path class="st6" d="M390.3,692.6c5.8-0.4,11.5,0.9,16.5,3.7c5,2.9,9.4,6.8,12.8,11.4c6.9,9.3,10.8,20.4,12.6,31.8
								s1.2,23.3-3.3,34.2c-2.2,5.4-5.6,10.3-10,14.2c-4.4,3.8-9.8,6.3-15.5,7.3l0-0.2c5.4-1.5,10.4-4.3,14.5-8.2
								c4-3.9,7-8.6,9-13.9c3.9-10.5,5.1-21.9,3.6-33c-1.5-11.1-5.1-22.2-11.7-31.4c-3.2-4.7-7.3-8.6-12.2-11.5
								c-4.9-2.9-10.5-4.3-16.2-4.1L390.3,692.6z"/>
							<path class="st6" d="M395.4,692c5.9-0.4,11.7,0.8,17,3.4c5.2,2.7,9.9,6.5,13.6,11.1c7.5,9.1,12,20.4,14.1,32
								s1.6,23.9-3.1,34.9c-2.4,5.5-6,10.4-10.6,14.2c-4.7,3.7-10.2,6.1-16.1,7l0-0.2c11.3-2.9,20.5-11.1,24.6-22
								c4.3-10.5,5.2-22.4,3.5-33.7s-6-22.5-13.1-31.5c-3.5-4.6-7.9-8.4-13-11.2c-5.1-2.8-10.9-4.1-16.7-3.8L395.4,692z"/>
							<path class="st6" d="M401.6,691.8c5.8-0.4,11.7,0.8,16.9,3.4c5.2,2.7,9.8,6.4,13.5,11c7.4,9,12,20.2,14.1,31.6
								s1.8,23.7-2.9,34.7c-2.3,5.5-5.9,10.3-10.4,14.2c-4.6,3.7-10.1,6.1-15.9,7v-0.2c11.2-2.9,20.2-11.1,24.3-21.9
								c4.2-10.5,4.9-22.2,3.2-33.5s-6.1-22.2-13.2-31.2c-3.5-4.5-7.9-8.3-12.9-11.1c-5.1-2.7-10.8-4.1-16.6-3.8L401.6,691.8z"/>
							<path class="st3" d="M45.1,657.9c14.2-3.3,29.9-3.9,41.9,9.4c13,12.2,17.6,46.9,2.4,66.7c-8.1,13.2-25.2,12.7-38,11.6
								C99.4,741,84.7,652.3,45.1,657.9z"/>
							<path class="st4" d="M81.6,698.8c1.4,25.7-8.6,45.2-26.9,46.7c-17.5,1.4-32.3-17.6-33.8-44.1c-1.4-24.7,13-45,30.5-44.1
								S80.4,677.5,81.6,698.8z"/>
							<path class="st5" d="M72.8,704.2c0.5,18.8-10.4,33.5-23.2,32.8s-22.1-16-23.1-35.3c-1-18,10.4-33.5,23.2-32.8
								S72.4,686.3,72.8,704.2z"/>
							<path class="st6" d="M54.4,656.9c4.6-0.1,9.2,1.3,13,3.9c3.9,2.7,7.1,6.3,9.6,10.4c5,8.3,7.6,18,8.5,27.8s-0.1,20.1-4.2,29.2
								c-2,4.5-4.9,8.5-8.6,11.7c-3.6,3-8,5-12.7,5.6v-0.2c4.4-1.1,8.5-3.3,11.9-6.4c3.4-3.2,6-7.2,7.8-11.5
								c3.6-8.9,5.1-18.6,4.4-28.2c-0.7-9.6-3-19.2-7.8-27.4c-2.3-4.1-5.4-7.6-9.1-10.4c-3.7-2.7-8.1-4.2-12.7-4.2L54.4,656.9z"/>
							<path class="st6" d="M58.5,656.6c4.7-0.1,9.4,1.2,13.4,3.7c4.1,2.6,7.6,6,10.3,10.1c5.5,8.2,8.6,18,9.7,28s0.2,20.6-4.1,29.9
								c-2.1,4.6-5.2,8.6-9.1,11.8c-3.8,2.9-8.3,4.8-13.1,5.3v-0.2c4.6-1.1,8.8-3.2,12.3-6.3c3.5-3.2,6.3-7.1,8.2-11.5
								c3.8-9.1,5.3-19,4.3-28.8c-0.9-9.8-3.7-19.5-9-27.6c-2.5-4-5.9-7.5-9.8-10.1c-3.9-2.6-8.4-4-13.1-4L58.5,656.6z"/>
							<path class="st6" d="M63.5,656.7c4.7-0.1,9.3,1.2,13.2,3.7c4.1,2.6,7.5,6,10.2,10c5.5,8.1,8.6,17.8,9.7,27.7
								s0.3,20.4-3.9,29.6c-2,4.5-5.1,8.5-8.9,11.7c-3.7,2.9-8.2,4.8-12.9,5.4v-0.2c4.5-1.1,8.7-3.2,12.2-6.3
								c3.5-3.2,6.3-7.1,8.1-11.5c3.8-8.8,4.9-18.8,4.1-28.6s-3.8-19.3-9-27.3c-2.5-4-5.8-7.4-9.7-10c-3.9-2.6-8.4-4-13-4
								L63.5,656.7z"/>
							<path class="st3" d="M232,660.7c15.1-4,32.1-5.5,45.8,7.1c14.8,11.4,21.7,45.9,6.5,66.5c-8,13.6-26.4,14.1-40.3,13.6
								C295.5,740.7,274.4,652.9,232,660.7z"/>
							<path class="st4" d="M273.8,699.5c3.1,25.6-6.6,45.7-26.4,48.1c-18.9,2.3-35.9-15.8-39-42.2c-2.9-24.5,11.4-45.7,30.4-45.7
								S271.3,678.3,273.8,699.5z"/>
							<path class="st5" d="M264.6,705.4c1.6,18.7-9.3,34-23.1,34s-24.8-14.8-27.1-34c-2.1-17.9,9.3-34,23.1-34
								S263.1,687.5,264.6,705.4z"/>
							<path class="st6" d="M242,659.1c5-0.3,9.9,0.8,14.2,3.2c4.3,2.5,8.1,5.8,11,9.8c5.9,8,9.3,17.6,10.8,27.3s1,20-2.8,29.3
								c-1.9,4.7-4.9,8.8-8.7,12.2c-3.8,3.3-8.4,5.4-13.3,6.2V747c4.7-1.3,8.9-3.7,12.4-7c3.4-3.4,6-7.4,7.7-11.9
								c3.4-9.1,4.4-18.8,3.1-28.4c-1.3-9.5-4.4-19-10-26.9c-2.7-4-6.3-7.4-10.4-9.9c-4.2-2.5-9-3.8-13.9-3.5V659.1z"/>
							<path class="st6" d="M246.4,658.6c5.1-0.3,10.1,0.7,14.6,3c4.5,2.3,8.5,5.6,11.7,9.5c6.4,7.8,10.3,17.5,12.1,27.5
								s1.4,20.5-2.7,30c-2,4.7-5.2,8.9-9.1,12.2c-4,3.2-8.8,5.3-13.8,6v-0.2c9.7-2.5,17.6-9.5,21.2-18.9c3.7-9,4.4-19.2,3-29
								s-5.2-19.3-11.3-27.1c-3-3.9-6.8-7.2-11.2-9.6c-4.4-2.4-9.4-3.5-14.4-3.3L246.4,658.6z"/>
							<path class="st6" d="M251.7,658.4c5-0.3,10,0.7,14.5,2.9c4.5,2.3,8.4,5.5,11.6,9.4c6.4,7.8,10.3,17.3,12.1,27.2
								s1.5,20.3-2.5,29.8c-2,4.7-5.1,8.9-9,12.2c-4,3.1-8.7,5.2-13.6,6v-0.2c9.6-2.5,17.4-9.5,20.8-18.8c3.6-9,4.2-19.1,2.7-28.7
								s-5.2-19.1-11.3-26.8c-3-3.9-6.8-7.1-11.1-9.5c-4.4-2.4-9.3-3.5-14.2-3.3L251.7,658.4z"/>
							<path class="st8" d="M17.4,699.1C4.1,693.6-0.3,681,1.8,663.6L285,699.1c0,0,0,11.4,183.1,36.2c-0.4,16.4-14,29.3-30.4,28.9
								l-245.1,2.1c-5.4,0-10.8-1-15.9-3L17.4,699.1z"/>
							<g class="st9">
								<path class="st10" d="M291.5,755c-3.6,0-6.5-2.9-6.5-6.5s2.9-6.5,6.5-6.5h19c3.6,0,6.5,2.9,6.5,6.5s-2.9,6.5-6.5,6.5l0,0
									H291.5z"/>
								<path class="st4" d="M310.5,743c3,0,5.5,2.5,5.5,5.5s-2.5,5.5-5.5,5.5h-19c-3,0-5.5-2.5-5.5-5.5c0-3,2.5-5.5,5.5-5.5l0,0
									H310.5z M310.5,741h-19c-4.1,0-7.5,3.4-7.5,7.5s3.4,7.5,7.5,7.5h19c4.1,0,7.5-3.4,7.5-7.5S314.6,741,310.5,741z"/>
								<path class="st10" d="M338.8,755c-3.6,0-6.5-2.9-6.5-6.5s2.9-6.5,6.5-6.5h19c3.6,0,6.5,2.9,6.5,6.5s-2.9,6.5-6.5,6.5H338.8z
									"/>
								<path class="st4" d="M357.8,743c3,0,5.5,2.5,5.5,5.5s-2.5,5.5-5.5,5.5h-19c-3,0-5.5-2.5-5.5-5.5s2.5-5.5,5.5-5.5H357.8z
									 M357.8,741h-19c-4.1,0-7.5,3.4-7.5,7.5s3.4,7.5,7.5,7.5h19c4.1,0,7.5-3.4,7.5-7.5S361.9,741,357.8,741z"/>
							</g>
							<polygon class="st11" points="429.6,623.6 430.6,495.6 429.6,623.6 							"/>
							<polygon class="st11" points="348.5,349.3 337.2,468.5 348.5,349.3 							"/>
							<path class="st4" d="M226.9,659.6l34.4-322.8H93.9L59.5,659.6H6.2l32.2-322.5c1.6-16.1,15.1-28.3,31.2-28.3h250.5
								l-35.1,350.7H226.9z"/>
							<path class="st8" d="M315.8,312.9l-34.3,342.7h-50.2l33.4-314l0.9-8.8H90.3l-0.8,7.1L55.9,655.6H10.6l31.8-318.1
								c1.4-14,13.2-24.7,27.2-24.7H315.8z M324.6,304.9H69.7c-18.2,0-33.4,13.8-35.2,31.8L1.8,663.6h286.9L324.6,304.9L324.6,304.9
								z M63.6,658.4l33.8-317.7h159.4l-33.8,317.7H63.6z"/>
							<polygon class="st12" points="348.5,349.3 337.2,468.5 325.9,587.8 429.6,623.6 430.6,495.6 431.6,368.3 							"/>
							<path class="st4" d="M450.6,723c-1.7,0-3.4-0.4-5-1L293,661l33.6-336.5c0.7-7.4,7.3-12.9,14.8-12.1c0.5,0,0.9,0.1,1.4,0.2
								L477,339.5c5.6,1.1,9.2,6.5,8.1,12.1c-0.4,2-1.4,3.8-2.8,5.2l-11.9,11.9c-4.1,4-6.3,9.5-6.3,15.2v325.5
								c0,3.6-1.5,7.1-4.1,9.7C457.5,721.6,454.1,723,450.6,723z M323.3,573.7c-0.9,9.9,5,19.1,14.4,22.4l95.9,33.2l1.9-246.8
								c0-10.1-6.9-18.8-16.7-21.1l-73.8-16.9L323.3,573.7z"/>
							<path class="st8" d="M340.1,316.3c0.6,0,1.3,0.1,1.9,0.2l134.2,26.9c3.4,0.7,5.6,4,4.9,7.4c-0.2,1.2-0.8,2.3-1.7,3.2
								l-11.9,11.9c-4.8,4.8-7.5,11.2-7.5,18v325.5c0,5.3-4.2,9.5-9.4,9.6c-1.3,0-2.5-0.2-3.7-0.7l-149.7-59.9l33.4-333.5
								C331.1,320,335.2,316.3,340.1,316.3L340.1,316.3z M437.4,634.8l0.1-11.1l1-128l0.9-113.2c0.1-12-8.1-22.4-19.8-25.1
								l-69.4-15.9l-8.9-2l-0.9,9l-11.3,119.2l-10,105.5c-1.1,11.7,5.9,22.7,17,26.5l90.7,31.4L437.4,634.8L437.4,634.8z
								 M340.1,308.3c-9,0-16.5,6.8-17.4,15.8l-33.9,339.4l155.3,62.1c8.9,3.6,19.1-0.7,22.8-9.6c0.9-2.1,1.3-4.4,1.3-6.7V383.9
								c0-4.6,1.8-9.1,5.1-12.4l11.9-11.9c5.6-5.6,5.6-14.6,0-20.2c-2-2-4.5-3.3-7.3-3.9l-134.2-26.9
								C342.5,308.5,341.3,308.4,340.1,308.3z M429.6,623.6L339,592.3c-7.6-2.6-12.5-10.2-11.7-18.2l10-105.5l11.3-119.3l69.4,15.9
								c8,1.8,13.7,9,13.6,17.2l-0.9,113.3L429.6,623.6L429.6,623.6z"/>
							<polygon class="st4" points="348.5,349.3 348.5,349.3 431.6,368.3 430.6,495.6 431.6,368.3 							"/>
							<path class="st8" d="M348.5,349.3l83.1,19.1L348.5,349.3z M431.6,368.3l-1,127.3L431.6,368.3z"/>
							<polygon class="st4" points="337.2,468.5 325.9,587.8 429.6,623.6 429.6,623.6 325.9,587.8 							"/>
							<path class="st8" d="M337.2,468.5l-11.3,119.3L337.2,468.5z M325.9,587.8l103.6,35.9L325.9,587.8z"/>
							<polygon class="st13" points="63.6,658.5 223.1,658.5 256.9,340.8 97.5,340.8 							"/>
							<line class="st14" x1="180.3" y1="337.7" x2="145.8" y2="660.1"/>
							<line class="st15" x1="180" y1="339.9" x2="145.9" y2="658.5"/>
							<polygon class="st4" points="6,663 288.8,663.6 463.2,733.3 181.2,733.3 							"/>
							<path class="st16" d="M290.3,668.5v-73.2h-24.6v73.2c0,4.8,5.5,8.7,12.3,8.7S290.3,673.3,290.3,668.5z"/>
							<path class="st17" d="M285,531.1c-12.3,0-12.3,12.6-12.3,37.7c0,12.6,0,12.6-24.6,12.6s-24.6,12.6,0,25.2
								c11,5.6,12.3,0,36.9,0s24.6-12.6,24.6-25.2c0-37.7,24.6-37.7,12.3-50.3C313.2,522.2,285,531.1,285,531.1z"/>
							<path class="st16" d="M344.9,690.6v-75.4h-29.5v75.4c0,5.7,6.6,10.4,14.8,10.4S344.9,696.3,344.9,690.6z"/>
							<path class="st18" d="M336.4,539.7c-14.8,0-14.8,15.1-14.8,45.3c0,15.1,0,15.1-29.5,15.1s-29.5,15.1,0,30.2
								c13.2,6.8,14.8,0,44.3,0s29.5-15.1,29.5-30.2c0-45.3,29.5-45.3,14.8-60.4C370.2,529,336.4,539.7,336.4,539.7z"/>
							<path class="st16" d="M411.5,713v-69.9h-33.1V713c0,6.5,7.4,11.6,16.5,11.6S411.5,719.5,411.5,713z"/>
							<path class="st19" d="M403.2,550.3c-16.5,0-16.5,16.9-16.5,50.7c0,16.9,0,16.9-33.1,16.9s-33.1,16.9,0,33.8
								c14.8,7.6,16.5,0,49.6,0s33.1-16.9,33.1-33.8c0-50.7,33.1-50.7,16.5-67.7C441.1,538.3,403.2,550.3,403.2,550.3z"/>
							<path class="st16" d="M56.1,674.7v-73.2h24.6v73.2c0,4.8-5.5,8.7-12.3,8.7S56.1,679.4,56.1,674.7z"/>
							<path class="st17" d="M61.3,537.3c12.3,0,12.3,12.6,12.3,37.7c0,12.6,0,12.6,24.6,12.6s24.6,12.6,0,25.2
								c-11,5.6-12.3,0-36.9,0s-24.6-12.6-24.6-25.2c0-37.7-24.6-37.7-12.3-50.3C33.1,528.4,61.3,537.3,61.3,537.3z"/>
							<path class="st16" d="M101.1,692.8v-75.4h29.5v75.4c0,5.7-6.6,10.4-14.8,10.4S101.1,698.5,101.1,692.8z"/>
							<path class="st18" d="M109.6,541.8c14.8,0,14.8,15.1,14.8,45.3c0,15.1,0,15.1,29.5,15.1s29.5,15.1,0,30.2
								c-13.2,6.8-14.8,0-44.3,0s-29.5-15.1-29.5-30.2c0-45.3-29.5-45.3-14.8-60.4C75.8,531.2,109.6,541.8,109.6,541.8z"/>
							<path class="st16" d="M158.1,715.2v-69.9h33.1v69.9c0,6.5-7.4,11.6-16.5,11.6S158.1,721.7,158.1,715.2z"/>
							<path class="st19" d="M166.4,552.4c16.5,0,16.5,16.9,16.5,50.7c0,16.9,0,16.9,33.1,16.9s33,16.9,0,33.8
								c-14.8,7.6-16.5,0-49.6,0s-33.1-16.9-33.1-33.8c0-50.7-33.1-50.7-16.5-67.6C128.4,540.5,166.4,552.4,166.4,552.4z"/>
							<rect x="252.9" y="376.6" class="st20" width="143.5" height="354.3"/>
							<polygon class="st21" points="355,376.6 252.9,571.5 252.9,616.5 378.5,376.6 							"/>
							<polygon class="st21" points="396.4,381.9 252.9,655.7 252.9,663 396.4,389.1 							"/>
							<path class="st4" d="M400.4,731.3V397.1c0-13.5-11-24.5-24.5-24.5H273.4c-13.5,0-24.5,11-24.5,24.5v334.2h-63.8V385.6
								c0-4.7,1.9-9.2,5.2-12.6c1.5-1.7,2.9-3.1,4.2-4.5c6.9-7.4,13.5-14.4,11.8-22.3c-0.1-0.5-0.3-1-0.4-1.5h270.6
								c4.1,0,7.4,3.3,7.4,7.4c0,2-0.8,3.8-2.2,5.2L470,369.2c-3.7,3.7-5.8,8.8-5.8,14.1v348.1H400.4z"/>
							<path class="st8" d="M476.5,348.7c1.9,0,3.4,1.5,3.4,3.4c0,0.9-0.4,1.8-1,2.4l-11.8,11.8c-4.5,4.5-7,10.6-7,16.9v344.1h-55.8
								V397.1c0-15.7-12.7-28.4-28.5-28.5H273.4c-15.7,0-28.4,12.7-28.5,28.5v330.2h-55.8V385.6c0-3.7,1.4-7.2,4-9.8l0.1-0.1
								l0.1-0.2c1.3-1.5,2.7-2.9,4-4.3c6.5-6.9,13.3-14.1,13.2-22.5H476.5z M186.8,334.7c27.8,11.2,13.2,21.7,0.8,35.5
								c-4.1,4.1-6.4,9.6-6.4,15.4v349.6h286.9V383.2c0-4.2,1.7-8.3,4.7-11.2l11.8-11.8c4.4-4.4,4.4-11.6,0-16.1
								c-2.1-2.1-5-3.3-8.1-3.3H206.3C205.1,340.8,204.4,338.2,186.8,334.7L186.8,334.7z M252.9,731V397.1
								c0-11.3,9.2-20.5,20.5-20.5h102.5c11.3,0,20.5,9.2,20.5,20.5c0,0,0,0,0,0V731H252.9z"/>
							<line class="st22" x1="324.6" y1="376.6" x2="324.6" y2="731"/>
							<line class="st14" x1="324.6" y1="376.6" x2="324.6" y2="731"/>
							<line class="st15" x1="324.6" y1="376.6" x2="324.6" y2="731"/>
							<g class="st23">
								
									<image style="overflow:visible;enable-background:new    ;" width="179" height="183" xlink:href="D08B63D6.png"  transform="matrix(1.878 0 0 1.878 263.9 348.479)">
								</image>
							</g>
							<rect x="411.7" y="497" class="st24" width="39.9" height="47.1"/>
							<polygon class="st8" points="414.3,507.4 414.3,498.6 424.2,498.6 424.2,494.2 409.3,494.2 409.3,507.4 							"/>
							<polygon class="st8" points="439.1,498.6 449.1,498.6 449.1,507.4 454.1,507.4 454.1,494.2 439.1,494.2 							"/>
							<polygon class="st8" points="449.1,533.7 449.1,542.5 439.1,542.5 439.1,546.9 454.1,546.9 454.1,533.7 							"/>
							<polygon class="st8" points="424.2,542.5 414.3,542.5 414.3,533.7 409.3,533.7 409.3,546.9 424.2,546.9 							"/>
							<path class="st19" d="M418.2,507.1v10.3h2.6v-1.3h1.3v1.3h1.3v-1.3h1.3v2.6h1.3v-2.6h1.3v-9L418.2,507.1z M425.9,514.8h-6.4
								v-6.4h6.4V514.8z"/>
							<rect x="420.8" y="509.6" class="st19" width="3.9" height="3.8"/>
							<path class="st19" d="M436.2,507.1v9h-1.3v1.3h2.6v-1.3h1.3v1.3h1.2v-1.3h5.1v-9H436.2z M443.9,514.8h-6.4v-6.4h6.4V514.8z"
								/>
							<rect x="438.8" y="509.6" class="st19" width="3.9" height="3.8"/>
							<rect x="420.8" y="527.6" class="st19" width="3.9" height="3.8"/>
							<polygon class="st19" points="431,507.1 431,510.9 429.8,510.9 429.8,508.3 428.5,508.3 428.5,507.1 							"/>
							<polygon class="st19" points="434.9,508.3 434.9,509.6 433.6,509.6 433.6,510.9 432.3,510.9 432.3,507.1 433.6,507.1 
								433.6,508.3 							"/>
							<rect x="433.6" y="510.9" class="st19" width="1.3" height="1.3"/>
							<polygon class="st19" points="432.3,512.2 432.3,513.5 431,513.5 431,514.8 429.8,514.8 429.8,513.5 428.5,513.5 
								428.5,512.2 							"/>
							<path class="st19" d="M432.3,518.6V516h2.6v-2.6h-1.3v1.3H431v1.3h-1.3v-1.3h-1.3v2.6h1.3v1.3h-1.3v-1.3h-1.3v2.6h1.3v2.6
								h-2.6v-1.3h1.3v-1.3h-2.6v2.6h-1.3v1.3h2.6v1.3h-2.6v-1.3h-1.3v1.3h-3.9v9h11.6v-1.3h-2.6v-1.3h1.3v-1.3h1.3v-1.3h-2.6v-2.6
								h1.3v1.3h1.3v-1.3h1.3v2.6h1.3v3.8h2.6v-2.6h-1.3v-1.3h1.3v-1.3h-2.6v-1.3h2.6v-6.4h-3.9v-1.3L432.3,518.6z M425.9,532.8
								h-6.4v-6.4h6.4V532.8z M428.5,525h-1.3v-1.3h1.3V525z M433.6,521.2v3.9h-3.9v-3.9H433.6z"/>
							<polygon class="st19" points="445.2,517.3 445.2,519.9 443.9,519.9 443.9,518.6 441.3,518.6 441.3,517.3 							"/>
							<rect x="440" y="518.6" class="st19" width="1.3" height="1.3"/>
							<polygon class="st19" points="445.2,521.2 445.2,522.5 443.9,522.5 443.9,523.8 442.6,523.8 442.6,521.2 441.3,521.2 
								441.3,519.9 443.9,519.9 443.9,521.2 							"/>
							<rect x="443.9" y="523.8" class="st19" width="1.3" height="1.3"/>
							<rect x="441.3" y="523.8" class="st19" width="1.3" height="1.3"/>
							<polygon class="st19" points="441.3,521.2 441.3,523.8 440,523.8 440,522.5 437.5,522.5 437.5,521.2 							"/>
							<rect x="436.2" y="522.5" class="st19" width="1.3" height="1.3"/>
							<rect x="434.9" y="523.8" class="st19" width="1.3" height="1.3"/>
							<polygon class="st19" points="440,525 440,527.6 438.8,527.6 438.8,526.3 437.5,526.3 437.5,527.6 436.2,527.6 436.2,525 
								437.5,525 437.5,523.8 438.8,523.8 438.8,525 							"/>
							<rect x="431" y="522.5" class="st19" width="1.3" height="1.3"/>
							<rect x="420.8" y="522.5" class="st19" width="1.3" height="1.3"/>
							<polygon class="st19" points="420.8,521.2 420.8,522.5 419.5,522.5 419.5,523.8 418.2,523.8 418.2,519.9 419.5,519.9 
								419.5,521.2 							"/>
							<polygon class="st19" points="424.6,518.6 424.6,519.9 423.3,519.9 423.3,521.2 422.1,521.2 422.1,519.9 419.5,519.9 
								419.5,518.6 420.8,518.6 420.8,517.3 422.1,517.3 422.1,518.6 							"/>
							<rect x="433.6" y="517.3" class="st19" width="1.3" height="1.3"/>
							<rect x="434.9" y="518.6" class="st19" width="2.6" height="1.3"/>
							<rect x="437.5" y="517.3" class="st19" width="1.3" height="1.3"/>
							<polygon class="st19" points="445.2,530.2 445.2,532.8 443.9,532.8 443.9,534 438.8,534 438.8,532.8 442.6,532.8 
								442.6,531.5 443.9,531.5 443.9,530.2 							"/>
							<polygon class="st19" points="445.2,526.3 445.2,528.9 443.9,528.9 443.9,527.6 442.6,527.6 442.6,530.2 441.3,530.2 
								441.3,531.5 440,531.5 440,530.2 437.5,530.2 437.5,528.9 441.3,528.9 441.3,526.3 							"/>
							<rect x="437.5" y="531.5" class="st19" width="1.3" height="1.3"/>
							<rect x="436.2" y="530.2" class="st19" width="1.3" height="1.3"/>
							<rect x="434.9" y="532.8" class="st19" width="1.3" height="1.3"/>
							<rect x="431" y="532.8" class="st19" width="1.3" height="1.3"/>
							<rect x="429.8" y="531.5" class="st19" width="1.3" height="1.3"/>
							<path class="st25" d="M217.4,338.8l-148-29.6c-0.6-0.1-1.1-0.7-0.9-1.4c0.1-0.6,0.6-1,1.2-1h253.6c0.8,0,1.6,0.1,2.4,0.2
								l146.7,29.3c0.6,0.1,1.1,0.7,0.9,1.4c-0.1,0.6-0.6,1-1.2,1L217.4,338.8z"/>
							<path class="st8" d="M323.3,308.9c0.7,0,1.3,0.1,2,0.2l138.5,27.7H217.6L78,308.9H323.3z M323.3,304.9H69.6
								c-1.7,0-3.2,1.4-3.2,3.2c0,1.5,1.1,2.8,2.5,3.1l147.7,29.5c0.2,0,0.4,0.1,0.6,0.1H472c1.7,0,3.2-1.4,3.2-3.2
								c0-1.5-1.1-2.8-2.5-3.1L326,305.2C325.1,305,324.2,304.9,323.3,304.9L323.3,304.9z"/>
							<line class="st11" x1="267.7" y1="334.5" x2="151.1" y2="311.2"/>
							<polygon class="st26" points="267.7,334.5 253,332 238.4,329.1 209.3,323.2 180.1,317.4 165.6,314.5 151.1,311.2 
								165.7,313.7 180.3,316.6 209.4,322.4 238.6,328.3 253.2,331.2 							"/>
							<line class="st11" x1="390.6" y1="334.5" x2="274" y2="311.2"/>
							<polygon class="st26" points="390.6,334.5 376,332 361.4,329.1 332.2,323.2 303.1,317.4 288.5,314.5 274,311.2 288.6,313.7 
								303.2,316.6 332.4,322.4 361.5,328.3 376.1,331.2 							"/>
							<line class="st11" x1="316.9" y1="334.5" x2="200.2" y2="311.2"/>
							<polygon class="st26" points="316.9,334.5 302.2,332 287.6,329.1 258.5,323.2 229.3,317.4 214.7,314.5 200.2,311.2 
								214.9,313.7 229.5,316.6 258.6,322.4 287.8,328.3 302.4,331.2 							"/>
							<line class="st11" x1="366" y1="334.5" x2="249.4" y2="311.2"/>
							<polygon class="st26" points="366,334.5 351.4,332 336.8,329.1 307.6,323.2 278.5,317.4 263.9,314.5 249.4,311.2 
								264.1,313.7 278.6,316.6 307.8,322.4 337,328.3 351.5,331.2 							"/>
							<line class="st11" x1="415.2" y1="334.5" x2="298.6" y2="311.2"/>
							<polygon class="st26" points="415.2,334.5 400.6,332 386,329.1 356.8,323.2 327.7,317.4 313.1,314.5 298.6,311.2 
								313.2,313.7 327.8,316.6 357,322.4 386.1,328.3 400.7,331.2 							"/>
							<line class="st11" x1="243.1" y1="334.5" x2="126.5" y2="311.2"/>
							<polygon class="st26" points="243.1,334.5 228.4,332 213.9,329.1 184.7,323.2 155.5,317.4 141,314.5 126.5,311.2 
								141.1,313.7 155.7,316.6 184.9,322.4 214,328.3 228.6,331.2 							"/>
							<line class="st11" x1="292.3" y1="334.5" x2="175.6" y2="311.2"/>
							<polygon class="st26" points="292.3,334.5 277.6,332 263,329.1 233.9,323.2 204.7,317.4 190.1,314.5 175.6,311.2 
								190.3,313.7 204.9,316.6 234,322.4 263.2,328.3 277.8,331.2 							"/>
							<line class="st11" x1="341.5" y1="334.5" x2="224.8" y2="311.2"/>
							<polygon class="st26" points="341.5,334.5 326.8,332 312.2,329.1 283,323.2 253.9,317.4 239.3,314.5 224.8,311.2 
								239.5,313.7 254.1,316.6 283.2,322.4 312.4,328.3 327,331.2 							"/>
							<polygon class="st20" points="145.3,627.7 37.7,591.8 64.2,353.3 147.3,372.4 							"/>
							<path class="st4" d="M6.1,661l32.6-325.6c1.2-12.8,12.7-22.2,25.5-21c0.8,0.1,1.6,0.2,2.4,0.4l124.8,25
								c5.2,1,8.6,6.1,7.5,11.3c-0.4,1.9-1.3,3.6-2.6,4.9l-8.3,8.3c-6.9,6.9-10.8,16.2-10.8,26v339l-0.1,0.2L6.1,661z M33.4,594.6
								l115.9,38.6l2.1-264l-90.6-20.8L33.4,594.6z"/>
							<path class="st8" d="M61.9,318.3c1.3,0,2.6,0.1,3.9,0.4l124.8,25c3,0.6,5,3.6,4.4,6.6c-0.2,1.1-0.8,2.1-1.5,2.9l-8.3,8.3
								c-7.7,7.6-12,18-12,28.9v333.3L10.4,658.4l32.3-322.6C43.6,325.8,51.9,318.2,61.9,318.3z M153.2,638.7l0.1-11l2-255.3
								l0.1-6.4l-6.2-1.4l-83.1-19l-8.7-2l-1,8.9L29.8,591l-0.7,6.4l6.1,2l107.6,35.9L153.2,638.7L153.2,638.7z M61.9,310.3
								c-14.1,0-25.8,10.7-27.2,24.7L1.8,663.6L175.5,733c0.5,0.2,1,0.3,1.5,0.3c2.3,0,4.1-1.9,4.1-4.1v-339c0-8.7,3.5-17,9.6-23.2
								l8.3-8.3c5.3-5.3,5.3-13.9,0-19.2c-1.9-1.9-4.3-3.2-6.9-3.7l-124.8-25C65.5,310.4,63.7,310.2,61.9,310.3L61.9,310.3z
								 M145.3,627.7L37.7,591.8l26.5-238.5l83.1,19.1L145.3,627.7L145.3,627.7z"/>
							<path class="st8" d="M166.5,729.5l13.8-8l10.1,8.3c2.4,0.9,14.6,5.5,12,5.5h-16.6c-3.1,0-6.1-0.6-9-1.7L166.5,729.5z"/>
							<rect x="200.9" y="338.3" class="st8" width="18.6" height="5.3"/>
						</g>
					</g>
				</g>
			</g>
		</g>
	</g>
</g>
<g class="st27">
	<path class="st28" d="M136.7,211.3l34.1,19.7v39.4l-34.1,19.7l-34.1-19.7V231L136.7,211.3 M136.7,204.3l-40.1,23.2v46.3l40.1,23.2
		l40.1-23.2v-46.3C176.8,227.5,136.7,204.3,136.7,204.3z"/>
	<path class="st28" d="M174,279.1l34.2,19.7v39.4L174,357.9l-34.1-19.7v-39.4L174,279.1 M174,272.2l-40.1,23.2v46.3l40.1,23.2
		l40.2-23.2v-46.3L174,272.2L174,272.2z"/>
	<path class="st28" d="M211.5,211.3l34.1,19.7v39.4l-34.1,19.7l-34.1-19.7V231L211.5,211.3 M211.5,204.3l-40.1,23.2v46.3l40.1,23.2
		l40.1-23.2v-46.3C251.6,227.5,211.5,204.3,211.5,204.3z"/>
	<path class="st28" d="M248.8,279.1l34.1,19.7v39.4l-34.1,19.7l-34.1-19.7v-39.4L248.8,279.1 M248.8,272.1l-40.1,23.2v46.3
		l40.1,23.2l40.1-23.2v-46.3L248.8,272.1L248.8,272.1z"/>
	<path class="st28" d="M286.1,346.9l34.1,19.7V406l-34.1,19.7L251.9,406v-39.4L286.1,346.9 M286.1,340l-40.1,23.2v46.3l40.1,23.2
		l40.1-23.2v-46.3L286.1,340L286.1,340z"/>
	<path class="st28" d="M323.6,279.1l34.1,19.7v39.4l-34.1,19.7l-34.1-19.7v-39.4L323.6,279.1 M323.6,272.1l-40.1,23.2v46.3
		l40.1,23.2l40.1-23.2v-46.3L323.6,272.1L323.6,272.1z"/>
</g>
<path class="st8" d="M312.8,373.2c18.2-123.5,22.6-184.1,36.7-234.9c13.5-50.9,65.8-81.3,116.7-67.7s81.3,65.8,67.7,116.7
	c-0.2,0.8-0.4,1.5-0.6,2.3C519.1,240.4,467.3,253.2,312.8,373.2z"/>
<g>
	<polygon class="st29" points="382.9,164.9 395.8,157.4 402.9,159 390.1,166.5 	"/>
	<path class="st30" d="M477.6,217.7l-12.9,7.5c-8.4,4.9-20.1,4.2-32.7-3.1c-18.4-10.6-34.6-32.2-41.9-55.6l12.9-7.5
		c7.3,23.4,23.6,45,41.9,55.6C457.5,221.9,469.1,222.6,477.6,217.7z"/>
	<polygon class="st29" points="390.1,166.5 402.9,159 406.8,159.9 393.9,167.3 	"/>
	<path class="st29" d="M490.3,197.2c-1.7,9.8-6.3,16.8-12.7,20.5l-12.9,7.5c6.4-3.7,11-10.7,12.7-20.5L490.3,197.2z"/>
	<polygon class="st30" points="477.6,203.6 490.4,196.1 497.7,201.6 484.8,209.1 	"/>
	<path class="st31" d="M477.5,203.6l7.3,5.5c-4,27.4-26.8,36.6-52.9,21.5c-21.6-12.5-40.7-38.1-49-65.7l7.1,1.6
		c7.3,23.4,23.6,45,41.9,55.6c22.2,12.8,41.5,5.3,45.4-17.5l0.1-0.4C477.5,204,477.5,203.8,477.5,203.6z"/>
	<polygon class="st29" points="393.9,167.3 406.8,159.9 410.2,160.6 397.3,168.1 	"/>
	<polygon class="st31" points="383.2,151.4 397.3,168.1 390.1,166.5 382.9,164.9 375.8,163.4 	"/>
	<polygon class="st30" points="383.2,151.4 396.1,143.9 410.2,160.6 397.3,168.1 	"/>
	<path class="st30" d="M482.8,226.7l-12.9,7.5c7.7-4.5,13.1-13,14.9-25.1l12.9-7.5C496,213.7,490.6,222.2,482.8,226.7z"/>
</g>
<g>
	<polygon class="st29" points="467.6,172.2 480.4,164.7 494.2,181.8 481.3,189.3 	"/>
	<polygon class="st29" points="467.6,172.2 480.4,164.7 494.2,181.8 481.3,189.3 	"/>
	<polygon class="st30" points="483.5,165.5 480.4,164.7 467.6,172.2 470.6,173 474.8,174.1 487.7,166.6 	"/>
	<path class="st29" d="M445.2,109c18.7,10.8,35.6,33.8,42.5,57.6l-12.9,7.5c-6.9-23.8-23.8-46.8-42.5-57.6L445.2,109z"/>
	<path class="st29" d="M412.5,105.8c8.4-4.9,20.1-4.1,32.7,3.2l-12.9,7.5c-12.6-7.3-24.3-8.1-32.7-3.2L412.5,105.8z"/>
	<polygon class="st29" points="474.8,174.1 487.7,166.6 494.9,168.6 482,176.1 	"/>
	<path class="st31" d="M432.3,108c22.1,12.7,41.9,40,49.7,68.1l-7.2-2c-6.9-23.8-23.8-46.8-42.5-57.6c-21.8-12.5-40.5-5.9-45.1,15.9
		c0,0.1,0,0.3-0.1,0.4c-0.1,0.1-0.1,0.4-0.1,0.7l-7.3-5.8C384.5,101.5,406.6,93.2,432.3,108z"/>
	<path class="st30" d="M445.2,100.5c-14.7-8.5-28.2-9.4-38-3.7l-12.9,7.5c9.8-5.7,23.3-4.8,38,3.7c22.1,12.7,41.9,40,49.7,68.1
		l12.9-7.5C487.1,140.5,467.3,113.3,445.2,100.5z"/>
	<polygon class="st29" points="489.3,178.1 502.2,170.6 494.2,181.8 481.3,189.3 	"/>
	<polygon class="st31" points="489.3,178.1 481.3,189.3 467.6,172.2 470.6,173 474.8,174.1 482,176.1 	"/>
	<polygon class="st30" points="489.3,178.1 502.2,170.6 494.2,181.8 481.3,189.3 	"/>
	<polygon class="st30" points="482,176.1 494.9,168.6 502.2,170.6 489.3,178.1 	"/>
</g>
</svg>
