<?xml version="1.0" encoding="utf-8"?>
<!-- Generator: Adobe Illustrator 23.0.3, SVG Export Plug-In . SVG Version: 6.00 Build 0)  -->
<svg version="1.1" id="Calque_1" xmlns="http://www.w3.org/2000/svg" xmlns:xlink="http://www.w3.org/1999/xlink" x="0px" y="0px"
	 viewBox="0 0 600.6 796.7" style="enable-background:new 0 0 600.6 796.7;" xml:space="preserve">
<style type="text/css">
	.st0{clip-path:url(#SVGID_2_);}
	.st1{fill:#7EC8C0;}
	.st2{display:none;clip-path:url(#SVGID_4_);}
	.st3{display:inline;fill:#322D3A;}
	.st4{display:inline;fill:#1A1423;}
	.st5{display:inline;fill:#008E76;}
	.st6{display:inline;fill:#666270;}
	.st7{display:inline;fill:#046351;}
	.st8{display:inline;fill:#FFFFFF;}
	.st9{display:inline;opacity:0.3;}
	.st10{fill:#B3B3B3;}
	.st11{fill:#1A1423;}
	.st12{display:inline;fill:none;}
	.st13{display:inline;opacity:0.5;fill:#1A1423;enable-background:new    ;}
	.st14{display:inline;opacity:0.6;fill:#1A1423;enable-background:new    ;}
	.st15{display:inline;fill:none;stroke:#FFFFFF;stroke-width:4;stroke-miterlimit:10;}
	.st16{display:inline;fill:none;stroke:#000000;stroke-miterlimit:10;}
	.st17{display:inline;fill:#333333;}
	.st18{display:inline;fill:#8E1937;}
	.st19{display:inline;fill:#BC153A;}
	.st20{display:inline;fill:#E6294A;}
	.st21{display:inline;opacity:0.35;fill:#429A8A;enable-background:new    ;}
	.st22{display:inline;opacity:0.85;fill:#FFFFFF;enable-background:new    ;}
	.st23{display:inline;fill:none;stroke:#4D4D4D;stroke-width:4.2;stroke-miterlimit:10;}
	.st24{display:inline;opacity:0.5;}
	.st25{display:inline;opacity:0.8;fill:#1A1423;enable-background:new    ;}
	.st26{display:inline;fill:#3C3944;}
	.st27{display:inline;fill:#FDD835;}
	.st28{clip-path:url(#SVGID_4_);}
	.st29{fill:#322D3A;}
	.st30{fill:#008E76;}
	.st31{fill:#666270;}
	.st32{fill:#046351;}
	.st33{fill:#FFFFFF;}
	.st34{opacity:0.3;}
	.st35{fill:none;}
	.st36{opacity:0.5;fill:#1A1423;enable-background:new    ;}
	.st37{opacity:0.6;fill:#1A1423;enable-background:new    ;}
	.st38{fill:none;stroke:#FFFFFF;stroke-width:4;stroke-miterlimit:10;}
	.st39{fill:none;stroke:#000000;stroke-miterlimit:10;}
	.st40{fill:#333333;}
	.st41{fill:#8E1937;}
	.st42{fill:#BC153A;}
	.st43{fill:#E6294A;}
	.st44{opacity:0.35;fill:#429A8A;enable-background:new    ;}
	.st45{opacity:0.85;fill:#FFFFFF;enable-background:new    ;}
	.st46{fill:none;stroke:#4D4D4D;stroke-width:4.2;stroke-miterlimit:10;}
	.st47{opacity:0.5;}
	.st48{opacity:0.8;fill:#1A1423;enable-background:new    ;}
	.st49{fill:#3C3944;}
	.st50{fill:#FDD835;}
</style>
<title>img-energie</title>
<g>
	<g>
		<g id="section4-technicity">
			<g>
				<defs>
					<circle id="SVGID_1_" cx="328.3" cy="252.8" r="252.8"/>
				</defs>
				<clipPath id="SVGID_2_">
					<use xlink:href="#SVGID_1_"  style="overflow:visible;"/>
				</clipPath>
				<g class="st0">
					<circle class="st1" cx="328.3" cy="252.8" r="252.8"/>
					<g>
						<defs>
							<circle id="SVGID_3_" cx="328.3" cy="252.8" r="252.8"/>
						</defs>
						<clipPath id="SVGID_4_">
							<use xlink:href="#SVGID_3_"  style="overflow:visible;"/>
						</clipPath>
						<g class="st2">
							<path class="st3" d="M148.9,695.2c17.6-4.7,37.3-6.4,53.3,8.2c17.2,13.3,25.3,53.4,7.6,77.4c-9.3,15.8-30.8,16.4-47,15.8
								C222.9,788.3,198.3,686.1,148.9,695.2z"/>
							<path class="st4" d="M197.6,740.3c3.6,29.8-7.7,53.2-30.7,56c-22,2.7-41.8-18.4-45.4-49.1c-3.4-28.6,13.2-53.2,35.4-53.2
								S194.7,715.8,197.6,740.3z"/>
							<path class="st5" d="M187,747.3c1.9,21.8-10.8,39.6-26.9,39.6s-28.9-17.2-31.5-39.6c-2.5-20.8,10.8-39.6,26.9-39.6
								S185.1,726.4,187,747.3z"/>
							<path class="st6" d="M160.6,693.4c5.8-0.4,11.5,0.9,16.6,3.7c5,2.9,9.3,6.8,12.8,11.4c6.9,9.3,10.8,20.4,12.6,31.8
								s1.2,23.3-3.3,34.2c-2.2,5.4-5.6,10.3-10,14.2c-4.4,3.8-9.8,6.3-15.5,7.3l-0.1-0.2c5.4-1.5,10.4-4.3,14.4-8.2
								c4-3.9,7-8.6,9-13.8c3.9-10.5,5.1-21.9,3.6-33c-1.5-11.1-5.1-22.1-11.7-31.3c-3.2-4.7-7.3-8.6-12.2-11.5
								c-4.9-2.9-10.5-4.3-16.2-4.1L160.6,693.4z"/>
							<path class="st6" d="M165.7,692.8c5.9-0.4,11.7,0.8,17,3.4c5.2,2.7,9.9,6.5,13.6,11.1c7.5,9.1,12,20.4,14.1,32
								s1.6,23.9-3.1,34.9c-2.4,5.5-6,10.4-10.6,14.2c-4.7,3.7-10.2,6.1-16.1,7v-0.2c11.3-2.9,20.5-11.1,24.6-22
								c4.3-10.5,5.2-22.4,3.4-33.7s-6-22.5-13.2-31.5c-3.5-4.6-7.9-8.4-13-11.2c-5.1-2.8-10.9-4.1-16.7-3.8L165.7,692.8z"/>
							<path class="st6" d="M171.9,692.6c5.8-0.4,11.7,0.8,16.9,3.4c5.2,2.7,9.8,6.4,13.5,11c7.4,9,12,20.2,14.1,31.6
								s1.8,23.7-2.9,34.6c-2.3,5.5-5.9,10.3-10.4,14.2c-4.6,3.7-10.1,6.1-15.9,7v-0.2c11.2-2.9,20.2-11.1,24.3-21.9
								c4.2-10.5,4.9-22.2,3.2-33.5s-6.1-22.2-13.2-31.2c-3.5-4.5-7.9-8.3-12.9-11.1c-5.1-2.7-10.8-4.1-16.6-3.8L171.9,692.6z"/>
							<path class="st3" d="M378.7,694.4c17.6-4.7,37.4-6.4,53.3,8.2c17.2,13.3,25.3,53.4,7.6,77.4c-9.3,15.8-30.8,16.4-47,15.8
								C452.6,787.5,428,685.3,378.7,694.4z"/>
							<path class="st4" d="M427.3,739.5c3.6,29.8-7.7,53.2-30.7,56c-22,2.7-41.8-18.4-45.5-49.1c-3.4-28.6,13.2-53.2,35.4-53.2
								S424.4,715,427.3,739.5z"/>
							<path class="st7" d="M416.7,746.4c1.9,21.8-10.8,39.6-26.9,39.6s-28.9-17.2-31.5-39.6c-2.5-20.8,10.8-39.6,26.9-39.6
								S414.9,725.6,416.7,746.4z"/>
							<path class="st6" d="M390.3,692.6c5.8-0.4,11.5,0.9,16.5,3.7c5,2.9,9.4,6.8,12.8,11.4c6.9,9.3,10.8,20.4,12.6,31.8
								s1.2,23.3-3.3,34.2c-2.2,5.4-5.6,10.3-10,14.2c-4.4,3.8-9.8,6.3-15.5,7.3l0-0.2c5.4-1.5,10.4-4.3,14.5-8.2
								c4-3.9,7-8.6,9-13.9c3.9-10.5,5.1-21.9,3.6-33c-1.5-11.1-5.1-22.2-11.7-31.4c-3.2-4.7-7.3-8.6-12.2-11.5
								c-4.9-2.9-10.5-4.3-16.2-4.1L390.3,692.6z"/>
							<path class="st6" d="M395.4,692c5.9-0.4,11.7,0.8,17,3.4c5.2,2.7,9.9,6.5,13.6,11.1c7.5,9.1,12,20.4,14.1,32
								s1.6,23.9-3.1,34.9c-2.4,5.5-6,10.4-10.6,14.2c-4.7,3.7-10.2,6.1-16.1,7l0-0.2c11.3-2.9,20.5-11.1,24.6-22
								c4.3-10.5,5.2-22.4,3.5-33.7s-6-22.5-13.1-31.5c-3.5-4.6-7.9-8.4-13-11.2c-5.1-2.8-10.9-4.1-16.7-3.8L395.4,692z"/>
							<path class="st6" d="M401.6,691.8c5.8-0.4,11.7,0.8,16.9,3.4c5.2,2.7,9.8,6.4,13.5,11c7.4,9,12,20.2,14.1,31.6
								s1.8,23.7-2.9,34.7c-2.3,5.5-5.9,10.3-10.4,14.2c-4.6,3.7-10.1,6.1-15.9,7v-0.2c11.2-2.9,20.2-11.1,24.3-21.9
								c4.2-10.5,4.9-22.2,3.2-33.5s-6.1-22.2-13.2-31.2c-3.5-4.5-7.9-8.3-12.9-11.1c-5.1-2.7-10.8-4.1-16.6-3.8L401.6,691.8z"/>
							<path class="st3" d="M45.1,657.9c14.2-3.3,29.9-3.9,41.9,9.4c13,12.2,17.6,46.9,2.4,66.7c-8.1,13.2-25.2,12.7-38,11.6
								C99.4,741,84.7,652.3,45.1,657.9z"/>
							<path class="st4" d="M81.6,698.8c1.4,25.7-8.6,45.2-26.9,46.7c-17.5,1.4-32.3-17.6-33.8-44.1c-1.4-24.7,13-45,30.5-44.1
								S80.4,677.5,81.6,698.8z"/>
							<path class="st5" d="M72.8,704.2c0.5,18.8-10.4,33.5-23.2,32.8s-22.1-16-23.1-35.3c-1-18,10.4-33.5,23.2-32.8
								S72.4,686.3,72.8,704.2z"/>
							<path class="st6" d="M54.4,656.9c4.6-0.1,9.2,1.3,13,3.9c3.9,2.7,7.1,6.3,9.6,10.4c5,8.3,7.6,18,8.5,27.8s-0.1,20.1-4.2,29.2
								c-2,4.5-4.9,8.5-8.6,11.7c-3.6,3-8,5-12.7,5.6v-0.2c4.4-1.1,8.5-3.3,11.9-6.4c3.4-3.2,6-7.2,7.8-11.5
								c3.6-8.9,5.1-18.6,4.4-28.2c-0.7-9.6-3-19.2-7.8-27.4c-2.3-4.1-5.4-7.6-9.1-10.4c-3.7-2.7-8.1-4.2-12.7-4.2L54.4,656.9z"/>
							<path class="st6" d="M58.5,656.6c4.7-0.1,9.4,1.2,13.4,3.7c4.1,2.6,7.6,6,10.3,10.1c5.5,8.2,8.6,18,9.7,28s0.2,20.6-4.1,29.9
								c-2.1,4.6-5.2,8.6-9.1,11.8c-3.8,2.9-8.3,4.8-13.1,5.3v-0.2c4.6-1.1,8.8-3.2,12.3-6.3c3.5-3.2,6.3-7.1,8.2-11.5
								c3.8-9.1,5.3-19,4.3-28.8c-0.9-9.8-3.7-19.5-9-27.6c-2.5-4-5.9-7.5-9.8-10.1c-3.9-2.6-8.4-4-13.1-4L58.5,656.6z"/>
							<path class="st6" d="M63.5,656.7c4.7-0.1,9.3,1.2,13.2,3.7c4.1,2.6,7.5,6,10.2,10c5.5,8.1,8.6,17.8,9.7,27.7
								s0.3,20.4-3.9,29.6c-2,4.5-5.1,8.5-8.9,11.7c-3.7,2.9-8.2,4.8-12.9,5.4v-0.2c4.5-1.1,8.7-3.2,12.2-6.3
								c3.5-3.2,6.3-7.1,8.1-11.5c3.8-8.8,4.9-18.8,4.1-28.6s-3.8-19.3-9-27.3c-2.5-4-5.8-7.4-9.7-10c-3.9-2.6-8.4-4-13-4
								L63.5,656.7z"/>
							<path class="st3" d="M232,660.7c15.1-4,32.1-5.5,45.8,7.1c14.8,11.4,21.7,45.9,6.5,66.5c-8,13.6-26.4,14.1-40.3,13.6
								C295.5,740.7,274.4,652.9,232,660.7z"/>
							<path class="st4" d="M273.8,699.5c3.1,25.6-6.6,45.7-26.4,48.1c-18.9,2.3-35.9-15.8-39-42.2c-2.9-24.5,11.4-45.7,30.4-45.7
								S271.3,678.3,273.8,699.5z"/>
							<path class="st5" d="M264.6,705.4c1.6,18.7-9.3,34-23.1,34s-24.8-14.8-27.1-34c-2.1-17.9,9.3-34,23.1-34
								S263.1,687.5,264.6,705.4z"/>
							<path class="st6" d="M242,659.1c5-0.3,9.9,0.8,14.2,3.2c4.3,2.5,8.1,5.8,11,9.8c5.9,8,9.3,17.6,10.8,27.3s1,20-2.8,29.3
								c-1.9,4.7-4.9,8.8-8.7,12.2c-3.8,3.3-8.4,5.4-13.3,6.2V747c4.7-1.3,8.9-3.7,12.4-7c3.4-3.4,6-7.4,7.7-11.9
								c3.4-9.1,4.4-18.8,3.1-28.4c-1.3-9.5-4.4-19-10-26.9c-2.7-4-6.3-7.4-10.4-9.9c-4.2-2.5-9-3.8-13.9-3.5V659.1z"/>
							<path class="st6" d="M246.4,658.6c5.1-0.3,10.1,0.7,14.6,3c4.5,2.3,8.5,5.6,11.7,9.5c6.4,7.8,10.3,17.5,12.1,27.5
								s1.4,20.5-2.7,30c-2,4.7-5.2,8.9-9.1,12.2c-4,3.2-8.8,5.3-13.8,6v-0.2c9.7-2.5,17.6-9.5,21.2-18.9c3.7-9,4.4-19.2,3-29
								s-5.2-19.3-11.3-27.1c-3-3.9-6.8-7.2-11.2-9.6c-4.4-2.4-9.4-3.5-14.4-3.3L246.4,658.6z"/>
							<path class="st6" d="M251.7,658.4c5-0.3,10,0.7,14.5,2.9c4.5,2.3,8.4,5.5,11.6,9.4c6.4,7.8,10.3,17.3,12.1,27.2
								s1.5,20.3-2.5,29.8c-2,4.7-5.1,8.9-9,12.2c-4,3.1-8.7,5.2-13.6,6v-0.2c9.6-2.5,17.4-9.5,20.8-18.8c3.6-9,4.2-19.1,2.7-28.7
								s-5.2-19.1-11.3-26.8c-3-3.9-6.8-7.1-11.1-9.5c-4.4-2.4-9.3-3.5-14.2-3.3L251.7,658.4z"/>
							<path class="st8" d="M17.4,699.1C4.1,693.6-0.3,681,1.8,663.6L285,699.1c0,0,0,11.4,183.1,36.2c-0.4,16.4-14,29.3-30.4,28.9
								l-245.1,2.1c-5.4,0-10.8-1-15.9-3L17.4,699.1z"/>
							<g class="st9">
								<path class="st10" d="M291.5,755c-3.6,0-6.5-2.9-6.5-6.5s2.9-6.5,6.5-6.5h19c3.6,0,6.5,2.9,6.5,6.5s-2.9,6.5-6.5,6.5l0,0
									H291.5z"/>
								<path class="st11" d="M310.5,743c3,0,5.5,2.5,5.5,5.5s-2.5,5.5-5.5,5.5h-19c-3,0-5.5-2.5-5.5-5.5c0-3,2.5-5.5,5.5-5.5l0,0
									H310.5z M310.5,741h-19c-4.1,0-7.5,3.4-7.5,7.5s3.4,7.5,7.5,7.5h19c4.1,0,7.5-3.4,7.5-7.5S314.6,741,310.5,741z"/>
								<path class="st10" d="M338.8,755c-3.6,0-6.5-2.9-6.5-6.5s2.9-6.5,6.5-6.5h19c3.6,0,6.5,2.9,6.5,6.5s-2.9,6.5-6.5,6.5H338.8z
									"/>
								<path class="st11" d="M357.8,743c3,0,5.5,2.5,5.5,5.5s-2.5,5.5-5.5,5.5h-19c-3,0-5.5-2.5-5.5-5.5s2.5-5.5,5.5-5.5H357.8z
									 M357.8,741h-19c-4.1,0-7.5,3.4-7.5,7.5s3.4,7.5,7.5,7.5h19c4.1,0,7.5-3.4,7.5-7.5S361.9,741,357.8,741z"/>
							</g>
							<polygon class="st12" points="429.6,623.6 430.6,495.6 429.6,623.6 							"/>
							<polygon class="st12" points="348.5,349.3 337.2,468.5 348.5,349.3 							"/>
							<path class="st4" d="M226.9,659.6l34.4-322.8H93.9L59.5,659.6H6.2l32.2-322.5c1.6-16.1,15.1-28.3,31.2-28.3h250.5
								l-35.1,350.7H226.9z"/>
							<path class="st8" d="M315.8,312.9l-34.3,342.7h-50.2l33.4-314l0.9-8.8H90.3l-0.8,7.1L55.9,655.6H10.6l31.8-318.1
								c1.4-14,13.2-24.7,27.2-24.7H315.8z M324.6,304.9H69.7c-18.2,0-33.4,13.8-35.2,31.8L1.8,663.6h286.9L324.6,304.9L324.6,304.9
								z M63.6,658.4l33.8-317.7h159.4l-33.8,317.7H63.6z"/>
							<polygon class="st13" points="348.5,349.3 337.2,468.5 325.9,587.8 429.6,623.6 430.6,495.6 431.6,368.3 							"/>
							<path class="st4" d="M450.6,723c-1.7,0-3.4-0.4-5-1L293,661l33.6-336.5c0.7-7.4,7.3-12.9,14.8-12.1c0.5,0,0.9,0.1,1.4,0.2
								L477,339.5c5.6,1.1,9.2,6.5,8.1,12.1c-0.4,2-1.4,3.8-2.8,5.2l-11.9,11.9c-4.1,4-6.3,9.5-6.3,15.2v325.5
								c0,3.6-1.5,7.1-4.1,9.7C457.5,721.6,454.1,723,450.6,723z M323.3,573.7c-0.9,9.9,5,19.1,14.4,22.4l95.9,33.2l1.9-246.8
								c0-10.1-6.9-18.8-16.7-21.1l-73.8-16.9L323.3,573.7z"/>
							<path class="st8" d="M340.1,316.3c0.6,0,1.3,0.1,1.9,0.2l134.2,26.9c3.4,0.7,5.6,4,4.9,7.4c-0.2,1.2-0.8,2.3-1.7,3.2
								l-11.9,11.9c-4.8,4.8-7.5,11.2-7.5,18v325.5c0,5.3-4.2,9.5-9.4,9.6c-1.3,0-2.5-0.2-3.7-0.7l-149.7-59.9l33.4-333.5
								C331.1,320,335.2,316.3,340.1,316.3L340.1,316.3z M437.4,634.8l0.1-11.1l1-128l0.9-113.2c0.1-12-8.1-22.4-19.8-25.1
								l-69.4-15.9l-8.9-2l-0.9,9l-11.3,119.2l-10,105.5c-1.1,11.7,5.9,22.7,17,26.5l90.7,31.4L437.4,634.8L437.4,634.8z
								 M340.1,308.3c-9,0-16.5,6.8-17.4,15.8l-33.9,339.4l155.3,62.1c8.9,3.6,19.1-0.7,22.8-9.6c0.9-2.1,1.3-4.4,1.3-6.7V383.9
								c0-4.6,1.8-9.1,5.1-12.4l11.9-11.9c5.6-5.6,5.6-14.6,0-20.2c-2-2-4.5-3.3-7.3-3.9l-134.2-26.9
								C342.5,308.5,341.3,308.4,340.1,308.3z M429.6,623.6L339,592.3c-7.6-2.6-12.5-10.2-11.7-18.2l10-105.5l11.3-119.3l69.4,15.9
								c8,1.8,13.7,9,13.6,17.2l-0.9,113.3L429.6,623.6L429.6,623.6z"/>
							<polygon class="st4" points="348.5,349.3 348.5,349.3 431.6,368.3 430.6,495.6 431.6,368.3 							"/>
							<path class="st8" d="M348.5,349.3l83.1,19.1L348.5,349.3z M431.6,368.3l-1,127.3L431.6,368.3z"/>
							<polygon class="st4" points="337.2,468.5 325.9,587.8 429.6,623.6 429.6,623.6 325.9,587.8 							"/>
							<path class="st8" d="M337.2,468.5l-11.3,119.3L337.2,468.5z M325.9,587.8l103.6,35.9L325.9,587.8z"/>
							<polygon class="st14" points="63.6,658.5 223.1,658.5 256.9,340.8 97.5,340.8 							"/>
							<line class="st15" x1="180.3" y1="337.7" x2="145.8" y2="660.1"/>
							<line class="st16" x1="180" y1="339.9" x2="145.9" y2="658.5"/>
							<polygon class="st4" points="6,663 288.8,663.6 463.2,733.3 181.2,733.3 							"/>
							<path class="st17" d="M290.3,668.5v-73.2h-24.6v73.2c0,4.8,5.5,8.7,12.3,8.7S290.3,673.3,290.3,668.5z"/>
							<path class="st18" d="M285,531.1c-12.3,0-12.3,12.6-12.3,37.7c0,12.6,0,12.6-24.6,12.6s-24.6,12.6,0,25.2
								c11,5.6,12.3,0,36.9,0s24.6-12.6,24.6-25.2c0-37.7,24.6-37.7,12.3-50.3C313.2,522.2,285,531.1,285,531.1z"/>
							<path class="st17" d="M344.9,690.6v-75.4h-29.5v75.4c0,5.7,6.6,10.4,14.8,10.4S344.9,696.3,344.9,690.6z"/>
							<path class="st19" d="M336.4,539.7c-14.8,0-14.8,15.1-14.8,45.3c0,15.1,0,15.1-29.5,15.1s-29.5,15.1,0,30.2
								c13.2,6.8,14.8,0,44.3,0s29.5-15.1,29.5-30.2c0-45.3,29.5-45.3,14.8-60.4C370.2,529,336.4,539.7,336.4,539.7z"/>
							<path class="st17" d="M411.5,713v-69.9h-33.1V713c0,6.5,7.4,11.6,16.5,11.6S411.5,719.5,411.5,713z"/>
							<path class="st20" d="M403.2,550.3c-16.5,0-16.5,16.9-16.5,50.7c0,16.9,0,16.9-33.1,16.9s-33.1,16.9,0,33.8
								c14.8,7.6,16.5,0,49.6,0s33.1-16.9,33.1-33.8c0-50.7,33.1-50.7,16.5-67.7C441.1,538.3,403.2,550.3,403.2,550.3z"/>
							<path class="st17" d="M56.1,674.7v-73.2h24.6v73.2c0,4.8-5.5,8.7-12.3,8.7S56.1,679.4,56.1,674.7z"/>
							<path class="st18" d="M61.3,537.3c12.3,0,12.3,12.6,12.3,37.7c0,12.6,0,12.6,24.6,12.6s24.6,12.6,0,25.2
								c-11,5.6-12.3,0-36.9,0s-24.6-12.6-24.6-25.2c0-37.7-24.6-37.7-12.3-50.3C33.1,528.4,61.3,537.3,61.3,537.3z"/>
							<path class="st17" d="M101.1,692.8v-75.4h29.5v75.4c0,5.7-6.6,10.4-14.8,10.4S101.1,698.5,101.1,692.8z"/>
							<path class="st19" d="M109.6,541.8c14.8,0,14.8,15.1,14.8,45.3c0,15.1,0,15.1,29.5,15.1s29.5,15.1,0,30.2
								c-13.2,6.8-14.8,0-44.3,0s-29.5-15.1-29.5-30.2c0-45.3-29.5-45.3-14.8-60.4C75.8,531.2,109.6,541.8,109.6,541.8z"/>
							<path class="st17" d="M158.1,715.2v-69.9h33.1v69.9c0,6.5-7.4,11.6-16.5,11.6S158.1,721.7,158.1,715.2z"/>
							<path class="st20" d="M166.4,552.4c16.5,0,16.5,16.9,16.5,50.7c0,16.9,0,16.9,33.1,16.9s33,16.9,0,33.8
								c-14.8,7.6-16.5,0-49.6,0s-33.1-16.9-33.1-33.8c0-50.7-33.1-50.7-16.5-67.6C128.4,540.5,166.4,552.4,166.4,552.4z"/>
							<rect x="252.9" y="376.6" class="st21" width="143.5" height="354.3"/>
							<polygon class="st22" points="355,376.6 252.9,571.5 252.9,616.5 378.5,376.6 							"/>
							<polygon class="st22" points="396.4,381.9 252.9,655.7 252.9,663 396.4,389.1 							"/>
							<path class="st4" d="M400.4,731.3V397.1c0-13.5-11-24.5-24.5-24.5H273.4c-13.5,0-24.5,11-24.5,24.5v334.2h-63.8V385.6
								c0-4.7,1.9-9.2,5.2-12.6c1.5-1.7,2.9-3.1,4.2-4.5c6.9-7.4,13.5-14.4,11.8-22.3c-0.1-0.5-0.3-1-0.4-1.5h270.6
								c4.1,0,7.4,3.3,7.4,7.4c0,2-0.8,3.8-2.2,5.2L470,369.2c-3.7,3.7-5.8,8.8-5.8,14.1v348.1H400.4z"/>
							<path class="st8" d="M476.5,348.7c1.9,0,3.4,1.5,3.4,3.4c0,0.9-0.4,1.8-1,2.4l-11.8,11.8c-4.5,4.5-7,10.6-7,16.9v344.1h-55.8
								V397.1c0-15.7-12.7-28.4-28.5-28.5H273.4c-15.7,0-28.4,12.7-28.5,28.5v330.2h-55.8V385.6c0-3.7,1.4-7.2,4-9.8l0.1-0.1
								l0.1-0.2c1.3-1.5,2.7-2.9,4-4.3c6.5-6.9,13.3-14.1,13.2-22.5H476.5z M186.8,334.7c27.8,11.2,13.2,21.7,0.8,35.5
								c-4.1,4.1-6.4,9.6-6.4,15.4v349.6h286.9V383.2c0-4.2,1.7-8.3,4.7-11.2l11.8-11.8c4.4-4.4,4.4-11.6,0-16.1
								c-2.1-2.1-5-3.3-8.1-3.3H206.3C205.1,340.8,204.4,338.2,186.8,334.7L186.8,334.7z M252.9,731V397.1
								c0-11.3,9.2-20.5,20.5-20.5h102.5c11.3,0,20.5,9.2,20.5,20.5c0,0,0,0,0,0V731H252.9z"/>
							<line class="st23" x1="324.6" y1="376.6" x2="324.6" y2="731"/>
							<line class="st15" x1="324.6" y1="376.6" x2="324.6" y2="731"/>
							<line class="st16" x1="324.6" y1="376.6" x2="324.6" y2="731"/>
							<g class="st24">
								
									<image style="overflow:visible;enable-background:new    ;" width="179" height="183" xlink:href="A9DD020B.png"  transform="matrix(1.878 0 0 1.878 263.9 348.479)">
								</image>
							</g>
							<rect x="411.7" y="497" class="st25" width="39.9" height="47.1"/>
							<polygon class="st8" points="414.3,507.4 414.3,498.6 424.2,498.6 424.2,494.2 409.3,494.2 409.3,507.4 							"/>
							<polygon class="st8" points="439.1,498.6 449.1,498.6 449.1,507.4 454.1,507.4 454.1,494.2 439.1,494.2 							"/>
							<polygon class="st8" points="449.1,533.7 449.1,542.5 439.1,542.5 439.1,546.9 454.1,546.9 454.1,533.7 							"/>
							<polygon class="st8" points="424.2,542.5 414.3,542.5 414.3,533.7 409.3,533.7 409.3,546.9 424.2,546.9 							"/>
							<path class="st20" d="M418.2,507.1v10.3h2.6v-1.3h1.3v1.3h1.3v-1.3h1.3v2.6h1.3v-2.6h1.3v-9L418.2,507.1z M425.9,514.8h-6.4
								v-6.4h6.4V514.8z"/>
							<rect x="420.8" y="509.6" class="st20" width="3.9" height="3.8"/>
							<path class="st20" d="M436.2,507.1v9h-1.3v1.3h2.6v-1.3h1.3v1.3h1.2v-1.3h5.1v-9H436.2z M443.9,514.8h-6.4v-6.4h6.4V514.8z"
								/>
							<rect x="438.8" y="509.6" class="st20" width="3.9" height="3.8"/>
							<rect x="420.8" y="527.6" class="st20" width="3.9" height="3.8"/>
							<polygon class="st20" points="431,507.1 431,510.9 429.8,510.9 429.8,508.3 428.5,508.3 428.5,507.1 							"/>
							<polygon class="st20" points="434.9,508.3 434.9,509.6 433.6,509.6 433.6,510.9 432.3,510.9 432.3,507.1 433.6,507.1 
								433.6,508.3 							"/>
							<rect x="433.6" y="510.9" class="st20" width="1.3" height="1.3"/>
							<polygon class="st20" points="432.3,512.2 432.3,513.5 431,513.5 431,514.8 429.8,514.8 429.8,513.5 428.5,513.5 
								428.5,512.2 							"/>
							<path class="st20" d="M432.3,518.6V516h2.6v-2.6h-1.3v1.3H431v1.3h-1.3v-1.3h-1.3v2.6h1.3v1.3h-1.3v-1.3h-1.3v2.6h1.3v2.6
								h-2.6v-1.3h1.3v-1.3h-2.6v2.6h-1.3v1.3h2.6v1.3h-2.6v-1.3h-1.3v1.3h-3.9v9h11.6v-1.3h-2.6v-1.3h1.3v-1.3h1.3v-1.3h-2.6v-2.6
								h1.3v1.3h1.3v-1.3h1.3v2.6h1.3v3.8h2.6v-2.6h-1.3v-1.3h1.3v-1.3h-2.6v-1.3h2.6v-6.4h-3.9v-1.3L432.3,518.6z M425.9,532.8
								h-6.4v-6.4h6.4V532.8z M428.5,525h-1.3v-1.3h1.3V525z M433.6,521.2v3.9h-3.9v-3.9H433.6z"/>
							<polygon class="st20" points="445.2,517.3 445.2,519.9 443.9,519.9 443.9,518.6 441.3,518.6 441.3,517.3 							"/>
							<rect x="440" y="518.6" class="st20" width="1.3" height="1.3"/>
							<polygon class="st20" points="445.2,521.2 445.2,522.5 443.9,522.5 443.9,523.8 442.6,523.8 442.6,521.2 441.3,521.2 
								441.3,519.9 443.9,519.9 443.9,521.2 							"/>
							<rect x="443.9" y="523.8" class="st20" width="1.3" height="1.3"/>
							<rect x="441.3" y="523.8" class="st20" width="1.3" height="1.3"/>
							<polygon class="st20" points="441.3,521.2 441.3,523.8 440,523.8 440,522.5 437.5,522.5 437.5,521.2 							"/>
							<rect x="436.2" y="522.5" class="st20" width="1.3" height="1.3"/>
							<rect x="434.9" y="523.8" class="st20" width="1.3" height="1.3"/>
							<polygon class="st20" points="440,525 440,527.6 438.8,527.6 438.8,526.3 437.5,526.3 437.5,527.6 436.2,527.6 436.2,525 
								437.5,525 437.5,523.8 438.8,523.8 438.8,525 							"/>
							<rect x="431" y="522.5" class="st20" width="1.3" height="1.3"/>
							<rect x="420.8" y="522.5" class="st20" width="1.3" height="1.3"/>
							<polygon class="st20" points="420.8,521.2 420.8,522.5 419.5,522.5 419.5,523.8 418.2,523.8 418.2,519.9 419.5,519.9 
								419.5,521.2 							"/>
							<polygon class="st20" points="424.6,518.6 424.6,519.9 423.3,519.9 423.3,521.2 422.1,521.2 422.1,519.9 419.5,519.9 
								419.5,518.6 420.8,518.6 420.8,517.3 422.1,517.3 422.1,518.6 							"/>
							<rect x="433.6" y="517.3" class="st20" width="1.3" height="1.3"/>
							<rect x="434.9" y="518.6" class="st20" width="2.6" height="1.3"/>
							<rect x="437.5" y="517.3" class="st20" width="1.3" height="1.3"/>
							<polygon class="st20" points="445.2,530.2 445.2,532.8 443.9,532.8 443.9,534 438.8,534 438.8,532.8 442.6,532.8 
								442.6,531.5 443.9,531.5 443.9,530.2 							"/>
							<polygon class="st20" points="445.2,526.3 445.2,528.9 443.9,528.9 443.9,527.6 442.6,527.6 442.6,530.2 441.3,530.2 
								441.3,531.5 440,531.5 440,530.2 437.5,530.2 437.5,528.9 441.3,528.9 441.3,526.3 							"/>
							<rect x="437.5" y="531.5" class="st20" width="1.3" height="1.3"/>
							<rect x="436.2" y="530.2" class="st20" width="1.3" height="1.3"/>
							<rect x="434.9" y="532.8" class="st20" width="1.3" height="1.3"/>
							<rect x="431" y="532.8" class="st20" width="1.3" height="1.3"/>
							<rect x="429.8" y="531.5" class="st20" width="1.3" height="1.3"/>
							<path class="st26" d="M217.4,338.8l-148-29.6c-0.6-0.1-1.1-0.7-0.9-1.4c0.1-0.6,0.6-1,1.2-1h253.6c0.8,0,1.6,0.1,2.4,0.2
								l146.7,29.3c0.6,0.1,1.1,0.7,0.9,1.4c-0.1,0.6-0.6,1-1.2,1L217.4,338.8z"/>
							<path class="st8" d="M323.3,308.9c0.7,0,1.3,0.1,2,0.2l138.5,27.7H217.6L78,308.9H323.3z M323.3,304.9H69.6
								c-1.7,0-3.2,1.4-3.2,3.2c0,1.5,1.1,2.8,2.5,3.1l147.7,29.5c0.2,0,0.4,0.1,0.6,0.1H472c1.7,0,3.2-1.4,3.2-3.2
								c0-1.5-1.1-2.8-2.5-3.1L326,305.2C325.1,305,324.2,304.9,323.3,304.9L323.3,304.9z"/>
							<line class="st12" x1="267.7" y1="334.5" x2="151.1" y2="311.2"/>
							<polygon class="st27" points="267.7,334.5 253,332 238.4,329.1 209.3,323.2 180.1,317.4 165.6,314.5 151.1,311.2 
								165.7,313.7 180.3,316.6 209.4,322.4 238.6,328.3 253.2,331.2 							"/>
							<line class="st12" x1="390.6" y1="334.5" x2="274" y2="311.2"/>
							<polygon class="st27" points="390.6,334.5 376,332 361.4,329.1 332.2,323.2 303.1,317.4 288.5,314.5 274,311.2 288.6,313.7 
								303.2,316.6 332.4,322.4 361.5,328.3 376.1,331.2 							"/>
							<line class="st12" x1="316.9" y1="334.5" x2="200.2" y2="311.2"/>
							<polygon class="st27" points="316.9,334.5 302.2,332 287.6,329.1 258.5,323.2 229.3,317.4 214.7,314.5 200.2,311.2 
								214.9,313.7 229.5,316.6 258.6,322.4 287.8,328.3 302.4,331.2 							"/>
							<line class="st12" x1="366" y1="334.5" x2="249.4" y2="311.2"/>
							<polygon class="st27" points="366,334.5 351.4,332 336.8,329.1 307.6,323.2 278.5,317.4 263.9,314.5 249.4,311.2 
								264.1,313.7 278.6,316.6 307.8,322.4 337,328.3 351.5,331.2 							"/>
							<line class="st12" x1="415.2" y1="334.5" x2="298.6" y2="311.2"/>
							<polygon class="st27" points="415.2,334.5 400.6,332 386,329.1 356.8,323.2 327.7,317.4 313.1,314.5 298.6,311.2 
								313.2,313.7 327.8,316.6 357,322.4 386.1,328.3 400.7,331.2 							"/>
							<line class="st12" x1="243.1" y1="334.5" x2="126.5" y2="311.2"/>
							<polygon class="st27" points="243.1,334.5 228.4,332 213.9,329.1 184.7,323.2 155.5,317.4 141,314.5 126.5,311.2 
								141.1,313.7 155.7,316.6 184.9,322.4 214,328.3 228.6,331.2 							"/>
							<line class="st12" x1="292.3" y1="334.5" x2="175.6" y2="311.2"/>
							<polygon class="st27" points="292.3,334.5 277.6,332 263,329.1 233.9,323.2 204.7,317.4 190.1,314.5 175.6,311.2 
								190.3,313.7 204.9,316.6 234,322.4 263.2,328.3 277.8,331.2 							"/>
							<line class="st12" x1="341.5" y1="334.5" x2="224.8" y2="311.2"/>
							<polygon class="st27" points="341.5,334.5 326.8,332 312.2,329.1 283,323.2 253.9,317.4 239.3,314.5 224.8,311.2 
								239.5,313.7 254.1,316.6 283.2,322.4 312.4,328.3 327,331.2 							"/>
							<polygon class="st21" points="145.3,627.7 37.7,591.8 64.2,353.3 147.3,372.4 							"/>
							<path class="st4" d="M6.1,661l32.6-325.6c1.2-12.8,12.7-22.2,25.5-21c0.8,0.1,1.6,0.2,2.4,0.4l124.8,25
								c5.2,1,8.6,6.1,7.5,11.3c-0.4,1.9-1.3,3.6-2.6,4.9l-8.3,8.3c-6.9,6.9-10.8,16.2-10.8,26v339l-0.1,0.2L6.1,661z M33.4,594.6
								l115.9,38.6l2.1-264l-90.6-20.8L33.4,594.6z"/>
							<path class="st8" d="M61.9,318.3c1.3,0,2.6,0.1,3.9,0.4l124.8,25c3,0.6,5,3.6,4.4,6.6c-0.2,1.1-0.8,2.1-1.5,2.9l-8.3,8.3
								c-7.7,7.6-12,18-12,28.9v333.3L10.4,658.4l32.3-322.6C43.6,325.8,51.9,318.2,61.9,318.3z M153.2,638.7l0.1-11l2-255.3
								l0.1-6.4l-6.2-1.4l-83.1-19l-8.7-2l-1,8.9L29.8,591l-0.7,6.4l6.1,2l107.6,35.9L153.2,638.7L153.2,638.7z M61.9,310.3
								c-14.1,0-25.8,10.7-27.2,24.7L1.8,663.6L175.5,733c0.5,0.2,1,0.3,1.5,0.3c2.3,0,4.1-1.9,4.1-4.1v-339c0-8.7,3.5-17,9.6-23.2
								l8.3-8.3c5.3-5.3,5.3-13.9,0-19.2c-1.9-1.9-4.3-3.2-6.9-3.7l-124.8-25C65.5,310.4,63.7,310.2,61.9,310.3L61.9,310.3z
								 M145.3,627.7L37.7,591.8l26.5-238.5l83.1,19.1L145.3,627.7L145.3,627.7z"/>
							<path class="st8" d="M166.5,729.5l13.8-8l10.1,8.3c2.4,0.9,14.6,5.5,12,5.5h-16.6c-3.1,0-6.1-0.6-9-1.7L166.5,729.5z"/>
							<rect x="200.9" y="338.3" class="st8" width="18.6" height="5.3"/>
						</g>
						<g class="st28">
							<path class="st29" d="M188.9,329.7c11.1-2.9,23.4-4,33.5,5.2c10.8,8.3,15.9,33.5,4.8,48.5c-5.8,9.9-19.3,10.3-29.5,9.9
								C235.3,388.1,219.8,324,188.9,329.7z"/>
							<path class="st11" d="M219.4,358c2.2,18.7-4.8,33.4-19.2,35.1c-13.8,1.7-26.2-11.6-28.5-30.8c-2.1-17.9,8.3-33.3,22.2-33.3
								C207.7,329,217.6,342.6,219.4,358z"/>
							<path class="st30" d="M212.8,362.4c1.2,13.7-6.8,24.8-16.9,24.8c-10.1,0-18.1-10.8-19.8-24.8c-1.5-13.1,6.8-24.8,16.9-24.8
								S211.6,349.3,212.8,362.4z"/>
							<path class="st31" d="M196.2,328.6c3.6-0.2,7.2,0.6,10.4,2.3c3.1,1.8,5.9,4.2,8,7.2c4.3,5.8,6.8,12.8,7.9,19.9
								c1.1,7.1,0.8,14.6-2.1,21.4c-1.4,3.4-3.5,6.4-6.3,8.9c-2.8,2.4-6.1,4-9.7,4.5l0-0.1c3.4-0.9,6.5-2.7,9.1-5.1
								c2.5-2.5,4.4-5.4,5.6-8.7c2.4-6.6,3.2-13.7,2.3-20.7c-0.9-7-3.2-13.9-7.3-19.7c-2-2.9-4.6-5.4-7.6-7.2
								c-3.1-1.8-6.6-2.7-10.2-2.6L196.2,328.6z"/>
							<path class="st31" d="M199.4,328.2c3.7-0.2,7.4,0.5,10.7,2.2c3.3,1.7,6.2,4.1,8.5,6.9c4.7,5.7,7.5,12.8,8.8,20.1
								c1.3,7.3,1,15-2,21.9c-1.5,3.5-3.8,6.5-6.7,8.9c-2.9,2.3-6.4,3.8-10.1,4.4v-0.1c7.1-1.8,12.9-6.9,15.5-13.8
								c2.7-6.6,3.2-14,2.2-21.2s-3.8-14.1-8.3-19.8c-2.2-2.9-5-5.3-8.2-7c-3.2-1.7-6.8-2.6-10.5-2.4L199.4,328.2z"/>
							<path class="st31" d="M203.3,328.1c3.7-0.3,7.3,0.5,10.6,2.2c3.3,1.7,6.1,4,8.5,6.9c4.7,5.6,7.5,12.7,8.8,19.8
								c1.3,7.2,1.1,14.9-1.8,21.7c-1.4,3.4-3.7,6.5-6.5,8.9c-2.9,2.3-6.3,3.8-10,4.4v-0.1c7-1.8,12.7-6.9,15.2-13.7
								c2.6-6.6,3.1-13.9,2-21c-1.1-7.1-3.8-14-8.3-19.6c-2.2-2.8-5-5.2-8.1-6.9c-3.2-1.7-6.8-2.5-10.4-2.4L203.3,328.1z"/>
							<path class="st29" d="M333,329.2c11.1-2.9,23.4-4,33.5,5.2c10.8,8.3,15.9,33.5,4.8,48.6c-5.8,9.9-19.3,10.3-29.5,9.9
								C379.4,387.6,363.9,323.5,333,329.2z"/>
							<path class="st11" d="M363.5,357.5c2.2,18.7-4.8,33.4-19.2,35.1c-13.8,1.7-26.2-11.6-28.5-30.8c-2.1-17.9,8.3-33.3,22.2-33.3
								C351.8,328.5,361.7,342.1,363.5,357.5z"/>
							<path class="st32" d="M356.8,361.8c1.2,13.7-6.8,24.8-16.9,24.8s-18.1-10.8-19.8-24.8c-1.5-13.1,6.8-24.8,16.9-24.8
								C347.2,337,355.7,348.8,356.8,361.8z"/>
							<path class="st31" d="M340.3,328.1c3.6-0.2,7.2,0.6,10.4,2.3c3.1,1.8,5.9,4.2,8,7.2c4.3,5.8,6.8,12.8,7.9,19.9
								c1.1,7.1,0.8,14.6-2.1,21.4c-1.4,3.4-3.5,6.4-6.3,8.9c-2.8,2.4-6.1,4-9.7,4.5l0-0.1c3.4-0.9,6.5-2.7,9.1-5.1
								c2.5-2.5,4.4-5.4,5.6-8.7c2.4-6.6,3.2-13.7,2.3-20.7c-0.9-7-3.2-13.9-7.3-19.7c-2-2.9-4.6-5.4-7.6-7.2
								c-3.1-1.8-6.6-2.7-10.2-2.6L340.3,328.1z"/>
							<path class="st31" d="M343.5,327.7c3.7-0.2,7.4,0.5,10.7,2.2c3.3,1.7,6.2,4.1,8.5,6.9c4.7,5.7,7.5,12.8,8.8,20.1
								c1.3,7.3,1,15-2,21.9c-1.5,3.5-3.8,6.5-6.7,8.9c-2.9,2.3-6.4,3.8-10.1,4.4l0-0.1c7.1-1.8,12.9-7,15.5-13.8
								c2.7-6.6,3.2-14,2.2-21.2c-1.1-7.1-3.8-14.1-8.2-19.8c-2.2-2.9-5-5.3-8.2-7C350.8,328.5,347.1,327.6,343.5,327.7L343.5,327.7
								z"/>
							<path class="st31" d="M347.4,327.5c3.7-0.3,7.3,0.5,10.6,2.1c3.3,1.7,6.1,4,8.5,6.9c4.7,5.6,7.5,12.7,8.8,19.8
								c1.3,7.2,1.1,14.9-1.8,21.7c-1.4,3.4-3.7,6.5-6.5,8.9c-2.9,2.3-6.3,3.8-10,4.4v-0.1c7-1.8,12.7-6.9,15.2-13.7
								c2.6-6.6,3.1-13.9,2-21c-1.1-7.1-3.8-14-8.3-19.6c-2.2-2.8-5-5.2-8.1-6.9c-3.2-1.7-6.8-2.5-10.4-2.4L347.4,327.5z"/>
							<path class="st29" d="M123.8,306.3c8.9-2.1,18.7-2.5,26.3,5.9c8.2,7.6,11,29.4,1.5,41.8c-5.1,8.3-15.8,8-23.8,7.3
								C157.8,358.4,148.6,302.8,123.8,306.3z"/>
							<path class="st11" d="M146.7,332c0.9,16.1-5.4,28.4-16.9,29.3c-11,0.9-20.3-11-21.2-27.7c-0.8-15.5,8.2-28.2,19.1-27.6
								C138.7,306.5,145.9,318.6,146.7,332z"/>
							<path class="st30" d="M141.2,335.4c0.3,11.8-6.5,21-14.6,20.6c-8-0.4-13.9-10.1-14.5-22.2c-0.6-11.3,6.5-21,14.6-20.6
								C134.7,313.6,140.9,324.1,141.2,335.4z"/>
							<path class="st31" d="M129.6,305.7c2.9-0.1,5.8,0.8,8.2,2.5c2.4,1.7,4.5,3.9,6,6.5c3.1,5.2,4.8,11.3,5.3,17.4
								c0.5,6.2-0.1,12.6-2.6,18.3c-1.2,2.8-3.1,5.3-5.4,7.4c-2.3,1.9-5,3.1-7.9,3.5v-0.1c2.8-0.7,5.4-2.1,7.5-4
								c2.1-2,3.8-4.5,4.9-7.2c2.3-5.6,3.2-11.7,2.7-17.7c-0.4-6-1.9-12.1-4.9-17.2c-1.4-2.6-3.4-4.8-5.7-6.5
								c-2.3-1.7-5.1-2.6-7.9-2.6L129.6,305.7z"/>
							<path class="st31" d="M132.2,305.5c3-0.1,5.9,0.7,8.4,2.3c2.6,1.6,4.8,3.8,6.4,6.3c3.5,5.1,5.4,11.3,6.1,17.6
								c0.7,6.3,0.1,12.9-2.6,18.7c-1.3,2.9-3.3,5.4-5.7,7.4c-2.4,1.8-5.2,3-8.2,3.4V361c2.9-0.7,5.5-2,7.7-3.9c2.2-2,4-4.5,5.1-7.2
								c2.4-5.7,3.3-11.9,2.7-18.1c-0.6-6.1-2.3-12.3-5.6-17.3c-1.6-2.5-3.7-4.7-6.1-6.4c-2.4-1.6-5.3-2.5-8.2-2.5L132.2,305.5z"/>
							<path class="st31" d="M135.3,305.5c2.9-0.1,5.8,0.7,8.3,2.3c2.5,1.6,4.7,3.8,6.4,6.3c3.4,5.1,5.4,11.2,6.1,17.4
								c0.7,6.2,0.2,12.8-2.4,18.6c-1.3,2.8-3.2,5.4-5.6,7.3c-2.3,1.8-5.1,3-8.1,3.4v-0.1c2.8-0.7,5.5-2,7.6-3.9
								c2.2-2,3.9-4.5,5.1-7.2c2.4-5.5,3.1-11.8,2.5-17.9c-0.5-6.1-2.4-12.1-5.6-17.1c-1.6-2.5-3.7-4.6-6.1-6.3
								c-2.4-1.6-5.3-2.5-8.2-2.5L135.3,305.5z"/>
							<path class="st29" d="M241,308c9.5-2.5,20.1-3.5,28.7,4.4c9.3,7.2,13.6,28.8,4.1,41.7c-5,8.5-16.6,8.8-25.3,8.5
								C280.8,358.2,267.6,303.2,241,308z"/>
							<path class="st11" d="M267.2,332.4c1.9,16-4.1,28.6-16.5,30.2c-11.8,1.5-22.5-9.9-24.5-26.5c-1.8-15.4,7.1-28.6,19.1-28.6
								C257.2,307.5,265.6,319.1,267.2,332.4z"/>
							<path class="st30" d="M261.5,336.1c1,11.7-5.8,21.3-14.5,21.3c-8.7,0-15.6-9.3-17-21.3c-1.3-11.2,5.8-21.3,14.5-21.3
								S260.5,324.9,261.5,336.1z"/>
							<path class="st31" d="M247.3,307.1c3.1-0.2,6.2,0.5,8.9,2c2.7,1.5,5.1,3.6,6.9,6.2c3.7,5,5.8,11,6.8,17.1s0.7,12.5-1.8,18.4
								c-1.2,2.9-3.1,5.5-5.4,7.6c-2.4,2-5.3,3.4-8.4,3.9v-0.1c2.9-0.8,5.6-2.3,7.8-4.4c2.1-2.1,3.8-4.7,4.8-7.5
								c2.1-5.7,2.8-11.8,1.9-17.8c-0.8-6-2.8-11.9-6.3-16.9c-1.7-2.5-4-4.6-6.5-6.2c-2.6-1.6-5.7-2.4-8.7-2.2V307.1z"/>
							<path class="st31" d="M250,306.8c3.2-0.2,6.3,0.4,9.2,1.9c2.8,1.5,5.3,3.5,7.3,6c4,4.9,6.5,11,7.6,17.2
								c1.1,6.2,0.9,12.9-1.7,18.8c-1.3,3-3.2,5.6-5.7,7.7c-2.5,2-5.5,3.3-8.7,3.8V362c6.1-1.5,11-6,13.3-11.8
								c2.3-5.6,2.8-12.1,1.9-18.2s-3.2-12.1-7.1-17c-1.9-2.5-4.3-4.5-7-6c-2.8-1.5-5.9-2.2-9-2.1L250,306.8z"/>
							<path class="st31" d="M253.4,306.6c3.1-0.2,6.3,0.4,9.1,1.8c2.8,1.4,5.3,3.5,7.3,5.9c4,4.9,6.4,10.9,7.6,17s1,12.8-1.6,18.7
								c-1.3,3-3.2,5.6-5.6,7.6c-2.5,2-5.4,3.3-8.6,3.8v-0.1c6-1.6,10.9-6,13.1-11.8c2.2-5.6,2.7-12,1.7-18
								c-0.9-6.1-3.3-12-7.1-16.8c-1.9-2.4-4.2-4.5-7-6C259.6,307.3,256.5,306.6,253.4,306.6L253.4,306.6z"/>
							<path class="st33" d="M106.4,332.2c-8.3-3.5-11.1-11.4-9.8-22.3l177.6,22.3c0,0,0,7.1,114.9,22.7
								c-0.3,10.3-8.8,18.4-19.1,18.1l-153.7,1.3c-3.4,0-6.8-0.6-10-1.9L106.4,332.2z"/>
							<g class="st34">
								<path class="st10" d="M278.3,367.2c-2.3,0-4.1-1.8-4.1-4.1c0-2.3,1.8-4.1,4.1-4.1h11.9c2.3,0,4.1,1.8,4.1,4.1
									c0,2.3-1.8,4.1-4.1,4.1l0,0H278.3z"/>
								<path class="st11" d="M290.2,359.7c1.9,0,3.4,1.5,3.4,3.4c0,1.9-1.5,3.4-3.4,3.4h-11.9c-1.9,0-3.4-1.5-3.4-3.4
									s1.5-3.4,3.4-3.4l0,0H290.2z M290.2,358.4h-11.9c-2.6,0-4.7,2.1-4.7,4.7c0,2.6,2.1,4.7,4.7,4.7h11.9c2.6,0,4.7-2.1,4.7-4.7
									C294.9,360.5,292.8,358.4,290.2,358.4z"/>
								<path class="st10" d="M308,367.2c-2.3,0-4.1-1.8-4.1-4.1c0-2.3,1.8-4.1,4.1-4.1h11.9c2.3,0,4.1,1.8,4.1,4.1
									c0,2.3-1.8,4.1-4.1,4.1H308z"/>
								<path class="st11" d="M319.9,359.7c1.9,0,3.4,1.5,3.4,3.4c0,1.9-1.5,3.4-3.4,3.4H308c-1.9,0-3.4-1.5-3.4-3.4
									c0-1.9,1.5-3.4,3.4-3.4H319.9z M319.9,358.4H308c-2.6,0-4.7,2.1-4.7,4.7c0,2.6,2.1,4.7,4.7,4.7h11.9c2.6,0,4.7-2.1,4.7-4.7
									C324.6,360.5,322.5,358.4,319.9,358.4z"/>
							</g>
							<polygon class="st35" points="364.9,284.8 365.5,204.5 364.9,284.8 							"/>
							<polygon class="st35" points="314,112.7 307,187.5 314,112.7 							"/>
							<path class="st11" d="M237.8,307.4l21.6-202.5h-105l-21.6,202.5H99.4l20.2-202.3c1-10.1,9.5-17.8,19.6-17.7h157.1l-22,220
								H237.8z"/>
							<path class="st33" d="M293.6,89.9l-21.5,215h-31.5l21-197l0.6-5.5h-110l-0.5,4.5l-21.1,198h-28.4l20-199.5
								c0.9-8.8,8.3-15.5,17.1-15.5H293.6z M299.1,84.9H139.2c-11.4,0-20.9,8.6-22.1,20l-20.5,205h180L299.1,84.9L299.1,84.9z
								 M135.4,306.7l21.2-199.3h100l-21.2,199.3H135.4z"/>
							<polygon class="st36" points="314,112.7 307,187.5 299.9,262.3 364.9,284.8 365.5,204.5 366.2,124.7 							"/>
							<path class="st11" d="M378.1,347.1c-1.1,0-2.1-0.2-3.1-0.6l-95.7-38.3l21.1-211c0.5-4.7,4.6-8.1,9.3-7.6
								c0.3,0,0.6,0.1,0.9,0.1l84.2,16.8c3.5,0.7,5.8,4.1,5.1,7.6c-0.3,1.2-0.9,2.4-1.8,3.3l-7.4,7.4c-2.5,2.5-4,6-4,9.5v204.2
								c0,2.3-0.9,4.5-2.6,6.1C382.4,346.3,380.3,347.1,378.1,347.1z M298.2,253.5c-0.6,6.2,3.1,12,9,14l60.1,20.8l1.2-154.8
								c0-6.3-4.3-11.8-10.5-13.3l-46.3-10.6L298.2,253.5z"/>
							<path class="st33" d="M308.8,92.1c0.4,0,0.8,0,1.2,0.1l84.2,16.8c2.1,0.4,3.5,2.5,3.1,4.7c-0.2,0.8-0.5,1.5-1.1,2l-7.4,7.4
								c-3,3-4.7,7.1-4.7,11.3v204.2c0,3.3-2.6,6-5.9,6c-0.8,0-1.6-0.1-2.3-0.5L282,306.6l20.9-209.2
								C303.2,94.4,305.7,92,308.8,92.1L308.8,92.1z M369.9,291.8l0.1-7l0.6-80.3l0.6-71c0.1-7.5-5.1-14.1-12.4-15.7l-43.5-10
								l-5.6-1.3l-0.5,5.7l-7.1,74.8l-6.3,66.2c-0.7,7.3,3.7,14.2,10.7,16.6l56.9,19.7L369.9,291.8L369.9,291.8z M308.8,87.1
								c-5.6,0-10.4,4.3-10.9,9.9l-21.3,212.9l97.4,39c5.6,2.3,12-0.4,14.3-6c0.5-1.3,0.8-2.7,0.8-4.2V134.4c0-2.9,1.2-5.7,3.2-7.8
								l7.5-7.5c3.5-3.5,3.5-9.2,0-12.7c-1.2-1.2-2.8-2.1-4.6-2.4L311,87.3C310.3,87.1,309.5,87.1,308.8,87.1z M364.9,284.8
								l-56.8-19.7c-4.8-1.7-7.8-6.4-7.4-11.4l6.3-66.2l7.1-74.8l43.5,10c5,1.2,8.6,5.6,8.5,10.8l-0.6,71L364.9,284.8L364.9,284.8z"
								/>
							<polygon class="st11" points="314,112.7 314,112.7 366.2,124.7 365.5,204.5 366.2,124.7 							"/>
							<path class="st33" d="M314,112.7l52.1,12L314,112.7z M366.2,124.7l-0.6,79.9L366.2,124.7z"/>
							<polygon class="st11" points="307,187.5 299.9,262.3 364.9,284.8 364.9,284.8 299.9,262.3 							"/>
							<path class="st33" d="M307,187.5l-7.1,74.8L307,187.5z M299.9,262.3l65,22.5L299.9,262.3z"/>
							<polygon class="st37" points="135.4,306.7 235.4,306.7 256.6,107.4 156.6,107.4 							"/>
							<line class="st38" x1="208.6" y1="105.5" x2="186.9" y2="307.7"/>
							<line class="st39" x1="208.4" y1="106.8" x2="187" y2="306.7"/>
							<polygon class="st11" points="99.2,309.5 276.6,309.9 386,353.6 209.1,353.6 							"/>
							<path class="st40" d="M277.6,313v-45.9h-15.4V313c0,3,3.4,5.4,7.7,5.4S277.6,316,277.6,313z"/>
							<path class="st41" d="M274.2,226.8c-7.7,0-7.7,7.9-7.7,23.7c0,7.9,0,7.9-15.4,7.9s-15.4,7.9,0,15.8c6.9,3.5,7.7,0,23.1,0
								c15.4,0,15.4-7.9,15.4-15.8c0-23.7,15.4-23.7,7.7-31.6C291.9,221.2,274.2,226.8,274.2,226.8z"/>
							<path class="st40" d="M311.8,326.8v-47.3h-18.5v47.3c0,3.6,4.2,6.5,9.3,6.5S311.8,330.4,311.8,326.8z"/>
							<path class="st42" d="M306.4,232.1c-9.3,0-9.3,9.5-9.3,28.4c0,9.5,0,9.5-18.5,9.5c-18.5,0-18.5,9.5,0,18.9
								c8.3,4.2,9.3,0,27.8,0S325,279.5,325,270c0-28.4,18.5-28.4,9.3-37.9C327.7,225.5,306.4,232.1,306.4,232.1z"/>
							<path class="st40" d="M353.6,340.9v-43.8h-20.7v43.8c0,4,4.6,7.3,10.4,7.3C348.9,348.2,353.6,344.9,353.6,340.9z"/>
							<path class="st43" d="M348.4,238.8c-10.4,0-10.4,10.6-10.4,31.8c0,10.6,0,10.6-20.7,10.6c-20.7,0-20.7,10.6,0,21.2
								c9.3,4.7,10.4,0,31.1,0c20.7,0,20.7-10.6,20.7-21.2c0-31.8,20.7-31.8,10.4-42.4C372.2,231.3,348.4,238.8,348.4,238.8z"/>
							<path class="st40" d="M130.6,316.8v-45.9h15.4v45.9c0,3-3.5,5.4-7.7,5.4C134.1,322.3,130.6,319.8,130.6,316.8z"/>
							<path class="st41" d="M133.9,230.7c7.7,0,7.7,7.9,7.7,23.7c0,7.9,0,7.9,15.4,7.9s15.4,7.9,0,15.8c-6.9,3.5-7.7,0-23.1,0
								s-15.4-7.9-15.4-15.8c0-23.7-15.4-23.7-7.7-31.6C116.3,225.1,133.9,230.7,133.9,230.7z"/>
							<path class="st40" d="M158.9,328.2v-47.3h18.5v47.3c0,3.6-4.2,6.5-9.3,6.5C163.1,334.7,158.9,331.8,158.9,328.2z"/>
							<path class="st42" d="M164.2,233.5c9.3,0,9.3,9.5,9.3,28.4c0,9.5,0,9.5,18.5,9.5s18.5,9.5,0,18.9c-8.3,4.2-9.3,0-27.8,0
								s-18.5-9.5-18.5-18.9c0-28.4-18.5-28.4-9.3-37.9C143,226.8,164.2,233.5,164.2,233.5z"/>
							<path class="st40" d="M194.6,342.3v-43.8h20.7v43.8c0,4.1-4.6,7.3-10.4,7.3C199.3,349.6,194.6,346.3,194.6,342.3z"/>
							<path class="st43" d="M199.8,240.2c10.4,0,10.4,10.6,10.4,31.8c0,10.6,0,10.6,20.7,10.6s20.7,10.6,0,21.2
								c-9.3,4.7-10.4,0-31.1,0s-20.8-10.6-20.8-21.2c0-31.8-20.7-31.8-10.4-42.4C176,232.7,199.8,240.2,199.8,240.2z"/>
							<rect x="254.1" y="129.9" class="st44" width="90" height="222.2"/>
							<polygon class="st45" points="318.2,129.9 254.1,252.1 254.1,280.3 332.9,129.9 							"/>
							<polygon class="st45" points="344.1,133.2 254.1,304.9 254.1,309.5 344.1,137.7 							"/>
							<path class="st11" d="M346.6,352.4V142.7c0-8.5-6.9-15.3-15.3-15.3H267c-8.5,0-15.3,6.9-15.3,15.3v209.6h-40V135.5
								c0-3,1.2-5.8,3.3-7.9c0.9-1,1.8-2,2.6-2.9c4.4-4.6,8.5-9,7.4-14c-0.1-0.3-0.2-0.7-0.3-1h169.7c2.6,0,4.6,2.1,4.6,4.6
								c0,1.2-0.5,2.4-1.4,3.3l-7.4,7.4c-2.3,2.3-3.7,5.5-3.7,8.8v218.4H346.6z"/>
							<path class="st33" d="M394.4,112.4c1.2,0,2.1,1,2.1,2.1c0,0.6-0.2,1.1-0.6,1.5l-7.4,7.4c-2.8,2.8-4.4,6.6-4.4,10.6v215.8h-35
								V142.7c0-9.9-8-17.8-17.8-17.8H267c-9.9,0-17.8,8-17.9,17.8v207.1h-35V135.5c0-2.3,0.9-4.5,2.5-6.1l0.1-0.1l0.1-0.1
								c0.8-0.9,1.7-1.8,2.5-2.7c4.1-4.4,8.3-8.8,8.3-14.1H394.4z M212.6,103.6c17.4,7.1,8.3,13.6,0.5,22.3c-2.6,2.6-4,6-4,9.7
								v219.3h180V134c0-2.6,1.1-5.2,2.9-7l7.4-7.4c2.8-2.8,2.8-7.3,0-10.1c-1.3-1.3-3.2-2.1-5.1-2.1H224.9
								C224.1,107.4,223.7,105.8,212.6,103.6L212.6,103.6z M254.1,352.2V142.7c0-7.1,5.8-12.8,12.9-12.8h64.3
								c7.1,0,12.8,5.8,12.8,12.8c0,0,0,0,0,0v209.4H254.1z"/>
							<line class="st46" x1="299.1" y1="129.9" x2="299.1" y2="352.1"/>
							<line class="st38" x1="299.1" y1="129.9" x2="299.1" y2="352.1"/>
							<line class="st39" x1="299.1" y1="129.9" x2="299.1" y2="352.1"/>
							<g class="st47">
								
									<image style="overflow:visible;enable-background:new    ;" width="179" height="183" xlink:href="A9DD0209.png"  transform="matrix(1.178 0 0 1.178 261.0007 112.2253)">
								</image>
							</g>
							<rect x="353.7" y="205.4" class="st48" width="25.1" height="29.5"/>
							<polygon class="st33" points="355.3,211.9 355.3,206.4 361.6,206.4 361.6,203.6 352.2,203.6 352.2,211.9 							"/>
							<polygon class="st33" points="370.9,206.4 377.2,206.4 377.2,211.9 380.3,211.9 380.3,203.6 370.9,203.6 							"/>
							<polygon class="st33" points="377.2,228.4 377.2,233.9 370.9,233.9 370.9,236.7 380.3,236.7 380.3,228.4 							"/>
							<polygon class="st33" points="361.6,233.9 355.3,233.9 355.3,228.4 352.2,228.4 352.2,236.7 361.6,236.7 							"/>
							<path class="st43" d="M357.8,211.7v6.4h1.6v-0.8h0.8v0.8h0.8v-0.8h0.8v1.6h0.8v-1.6h0.8v-5.6L357.8,211.7z M362.6,216.5h-4
								v-4h4V216.5z"/>
							<rect x="359.4" y="213.3" class="st43" width="2.4" height="2.4"/>
							<path class="st43" d="M369.1,211.7v5.6h-0.8v0.8h1.6v-0.8h0.8v0.8h0.8v-0.8h3.2v-5.6H369.1z M373.9,216.5h-4v-4h4V216.5z"/>
							<rect x="370.7" y="213.3" class="st43" width="2.4" height="2.4"/>
							<rect x="359.4" y="224.6" class="st43" width="2.4" height="2.4"/>
							<polygon class="st43" points="365.8,211.7 365.8,214.1 365,214.1 365,212.5 364.2,212.5 364.2,211.7 							"/>
							<polygon class="st43" points="368.3,212.5 368.3,213.3 367.5,213.3 367.5,214.1 366.7,214.1 366.7,211.7 367.5,211.7 
								367.5,212.5 							"/>
							<rect x="367.5" y="214.1" class="st43" width="0.8" height="0.8"/>
							<polygon class="st43" points="366.7,214.9 366.7,215.7 365.8,215.7 365.8,216.5 365,216.5 365,215.7 364.2,215.7 
								364.2,214.9 							"/>
							<path class="st43" d="M366.7,218.9v-1.6h1.6v-1.6h-0.8v0.8h-1.6v0.8H365v-0.8h-0.8v1.6h0.8v0.8h-0.8v-0.8h-0.8v1.6h0.8v1.6
								h-1.6v-0.8h0.8v-0.8h-1.6v1.6H361v0.8h1.6v0.8H361v-0.8h-0.8v0.8h-2.4v5.6h7.3v-0.8h-1.6V227h0.8v-0.8h0.8v-0.8h-1.6v-1.6
								h0.8v0.8h0.8v-0.8h0.8v1.6h0.8v2.4h1.6v-1.6h-0.8v-0.8h0.8v-0.8h-1.6v-0.8h1.6v-4h-2.4v-0.8L366.7,218.9z M362.6,227.8h-4v-4
								h4V227.8z M364.2,223h-0.8v-0.8h0.8V223z M367.5,220.6v2.4H365v-2.4H367.5z"/>
							<polygon class="st43" points="374.7,218.1 374.7,219.8 373.9,219.8 373.9,218.9 372.3,218.9 372.3,218.1 							"/>
							<rect x="371.5" y="218.9" class="st43" width="0.8" height="0.8"/>
							<polygon class="st43" points="374.7,220.6 374.7,221.4 373.9,221.4 373.9,222.2 373.1,222.2 373.1,220.6 372.3,220.6 
								372.3,219.8 373.9,219.8 373.9,220.6 							"/>
							<rect x="373.9" y="222.2" class="st43" width="0.8" height="0.8"/>
							<rect x="372.3" y="222.2" class="st43" width="0.8" height="0.8"/>
							<polygon class="st43" points="372.3,220.6 372.3,222.2 371.5,222.2 371.5,221.4 369.9,221.4 369.9,220.6 							"/>
							<rect x="369.1" y="221.4" class="st43" width="0.8" height="0.8"/>
							<rect x="368.3" y="222.2" class="st43" width="0.8" height="0.8"/>
							<polygon class="st43" points="371.5,223 371.5,224.6 370.7,224.6 370.7,223.8 369.9,223.8 369.9,224.6 369.1,224.6 
								369.1,223 369.9,223 369.9,222.2 370.7,222.2 370.7,223 							"/>
							<rect x="365.8" y="221.4" class="st43" width="0.8" height="0.8"/>
							<rect x="359.4" y="221.4" class="st43" width="0.8" height="0.8"/>
							<polygon class="st43" points="359.4,220.6 359.4,221.4 358.6,221.4 358.6,222.2 357.8,222.2 357.8,219.8 358.6,219.8 
								358.6,220.6 							"/>
							<polygon class="st43" points="361.8,218.9 361.8,219.8 361,219.8 361,220.6 360.2,220.6 360.2,219.8 358.6,219.8 
								358.6,218.9 359.4,218.9 359.4,218.1 360.2,218.1 360.2,218.9 							"/>
							<rect x="367.5" y="218.1" class="st43" width="0.8" height="0.8"/>
							<rect x="368.3" y="218.9" class="st43" width="1.6" height="0.8"/>
							<rect x="369.9" y="218.1" class="st43" width="0.8" height="0.8"/>
							<polygon class="st43" points="374.7,226.2 374.7,227.8 373.9,227.8 373.9,228.6 370.7,228.6 370.7,227.8 373.1,227.8 
								373.1,227 373.9,227 373.9,226.2 							"/>
							<polygon class="st43" points="374.7,223.8 374.7,225.4 373.9,225.4 373.9,224.6 373.1,224.6 373.1,226.2 372.3,226.2 
								372.3,227 371.5,227 371.5,226.2 369.9,226.2 369.9,225.4 372.3,225.4 372.3,223.8 							"/>
							<rect x="369.9" y="227" class="st43" width="0.8" height="0.8"/>
							<rect x="369.1" y="226.2" class="st43" width="0.8" height="0.8"/>
							<rect x="368.3" y="227.8" class="st43" width="0.8" height="0.8"/>
							<rect x="365.8" y="227.8" class="st43" width="0.8" height="0.8"/>
							<rect x="365" y="227" class="st43" width="0.8" height="0.8"/>
							<path class="st49" d="M231.8,106.1L139,87.6c-0.4-0.1-0.7-0.5-0.6-0.9c0.1-0.4,0.4-0.6,0.7-0.6h159.1c0.5,0,1,0,1.5,0.2
								l92,18.4c0.4,0.1,0.7,0.5,0.6,0.9c-0.1,0.4-0.4,0.6-0.7,0.6L231.8,106.1z"/>
							<path class="st33" d="M298.2,87.4c0.4,0,0.8,0,1.3,0.1l86.9,17.4H231.9l-87.5-17.5H298.2z M298.2,84.9H139.1
								c-1.1,0-2,0.9-2,2c0,0.9,0.7,1.8,1.6,1.9l92.7,18.5c0.1,0,0.3,0,0.4,0h159.7c1.1,0,2-0.9,2-2c0-0.9-0.7-1.8-1.6-1.9l-92-18.4
								C299.4,84.9,298.8,84.9,298.2,84.9L298.2,84.9z"/>
							<line class="st35" x1="263.4" y1="103.5" x2="190.2" y2="88.8"/>
							<polygon class="st50" points="263.4,103.5 254.2,101.9 245,100 226.7,96.4 208.5,92.7 199.3,90.9 190.2,88.8 199.4,90.4 
								208.6,92.2 226.8,95.9 245.1,99.6 254.3,101.4 							"/>
							<line class="st35" x1="340.5" y1="103.5" x2="267.3" y2="88.8"/>
							<polygon class="st50" points="340.5,103.5 331.3,101.9 322.2,100 303.9,96.4 285.6,92.7 276.4,90.9 267.3,88.8 276.5,90.4 
								285.7,92.2 304,95.9 322.3,99.6 331.4,101.4 							"/>
							<line class="st35" x1="294.2" y1="103.5" x2="221.1" y2="88.8"/>
							<polygon class="st50" points="294.2,103.5 285,101.9 275.9,100 257.6,96.4 239.3,92.7 230.2,90.9 221.1,88.8 230.3,90.4 
								239.4,92.2 257.7,95.9 276,99.6 285.1,101.4 							"/>
							<line class="st35" x1="325.1" y1="103.5" x2="251.9" y2="88.8"/>
							<polygon class="st50" points="325.1,103.5 315.9,101.9 306.7,100 288.4,96.4 270.1,92.7 261,90.9 251.9,88.8 261.1,90.4 
								270.2,92.2 288.5,95.9 306.8,99.6 316,101.4 							"/>
							<line class="st35" x1="355.9" y1="103.5" x2="282.8" y2="88.8"/>
							<polygon class="st50" points="355.9,103.5 346.7,101.9 337.6,100 319.3,96.4 301,92.7 291.8,90.9 282.8,88.8 291.9,90.4 
								301.1,92.2 319.4,95.9 337.7,99.6 346.8,101.4 							"/>
							<line class="st35" x1="248" y1="103.5" x2="174.8" y2="88.8"/>
							<polygon class="st50" points="248,103.5 238.8,101.9 229.6,100 211.3,96.4 193,92.7 183.9,90.9 174.8,88.8 184,90.4 
								193.1,92.2 211.4,95.9 229.7,99.6 238.9,101.4 							"/>
							<line class="st35" x1="278.8" y1="103.5" x2="205.6" y2="88.8"/>
							<polygon class="st50" points="278.8,103.5 269.6,101.9 260.5,100 242.2,96.4 223.9,92.7 214.7,90.9 205.6,88.8 214.8,90.4 
								224,92.2 242.3,95.9 260.6,99.6 269.7,101.4 							"/>
							<line class="st35" x1="309.6" y1="103.5" x2="236.5" y2="88.8"/>
							<polygon class="st50" points="309.6,103.5 300.4,101.9 291.3,100 273,96.4 254.7,92.7 245.6,90.9 236.5,88.8 245.7,90.4 
								254.8,92.2 273.1,95.9 291.4,99.6 300.5,101.4 							"/>
							<polygon class="st44" points="186.6,287.4 119.1,264.9 135.7,115.3 187.9,127.2 							"/>
							<path class="st11" d="M99.3,308.3L119.7,104c0.8-8,7.9-13.9,16-13.2c0.5,0,1,0.1,1.5,0.2l78.3,15.7c3.3,0.7,5.4,3.8,4.7,7.1
								c-0.2,1.2-0.8,2.2-1.6,3.1l-5.2,5.2c-4.3,4.3-6.8,10.2-6.8,16.3V351l-0.1,0.1L99.3,308.3z M116.4,266.6l72.7,24.2l1.3-165.6
								l-56.8-13L116.4,266.6z"/>
							<path class="st33" d="M134.3,93.3c0.8,0,1.6,0.1,2.4,0.2l78.3,15.7c1.9,0.4,3.1,2.2,2.8,4.2c-0.1,0.7-0.5,1.3-1,1.8l-5.2,5.2
								c-4.8,4.8-7.5,11.3-7.5,18.1v209.1L102,306.6l20.2-202.4C122.8,98,128,93.3,134.3,93.3z M191.6,294.3l0.1-6.9l1.3-160.1l0-4
								l-3.9-0.9l-52.1-11.9l-5.5-1.3l-0.6,5.6l-16.6,149.6l-0.5,4l3.8,1.3l67.5,22.5L191.6,294.3L191.6,294.3z M134.3,88.3
								c-8.8,0-16.2,6.7-17.1,15.5L96.6,309.9l108.9,43.5c0.3,0.1,0.6,0.2,1,0.2c1.4,0,2.6-1.2,2.6-2.6V138.4c0-5.5,2.2-10.7,6-14.5
								l5.2-5.2c3.3-3.3,3.3-8.7,0-12.1c-1.2-1.2-2.7-2-4.4-2.3l-78.3-15.7C136.6,88.3,135.4,88.2,134.3,88.3L134.3,88.3z
								 M186.6,287.4l-67.5-22.5l16.6-149.6l52.1,12L186.6,287.4L186.6,287.4z"/>
							<path class="st33" d="M199.9,351.2l8.7-5l6.4,5.2c1.5,0.6,9.1,3.5,7.5,3.5H212c-1.9,0-3.9-0.4-5.6-1.1L199.9,351.2z"/>
							<rect x="221.5" y="105.9" class="st33" width="11.6" height="3.3"/>
						</g>
						<g class="st28">
							<path class="st29" d="M311.7,374.9c12.3-3.3,26-4.5,37.1,5.7c12,9.3,17.6,37.2,5.3,53.9c-6.5,11-21.4,11.4-32.7,11
								C363.2,439.7,346,368.6,311.7,374.9z"/>
							<path class="st11" d="M345.6,406.3c2.5,20.7-5.4,37-21.4,39c-15.3,1.9-29.1-12.8-31.6-34.2c-2.4-19.9,9.2-37,24.6-37
								C332.6,374.1,343.5,389.2,345.6,406.3z"/>
							<path class="st30" d="M338.2,411.1c1.3,15.2-7.5,27.6-18.7,27.6s-20.1-12-21.9-27.6c-1.7-14.5,7.5-27.6,18.7-27.6
								C327.5,383.6,336.9,396.6,338.2,411.1z"/>
							<path class="st31" d="M319.8,373.7c4-0.3,8,0.6,11.5,2.6c3.5,2,6.5,4.7,8.9,8c4.8,6.5,7.5,14.2,8.7,22.1
								c1.2,7.9,0.8,16.2-2.3,23.8c-1.5,3.8-3.9,7.1-7,9.9c-3.1,2.6-6.8,4.4-10.8,5l0-0.2c3.8-1,7.2-3,10.1-5.7
								c2.8-2.7,4.9-6,6.3-9.6c2.7-7.3,3.6-15.2,2.5-23c-1-7.7-3.6-15.4-8.1-21.8c-2.2-3.2-5.1-6-8.5-8c-3.4-2-7.3-3-11.3-2.9
								L319.8,373.7z"/>
							<path class="st31" d="M323.4,373.2c4.1-0.3,8.2,0.5,11.8,2.4c3.6,1.9,6.9,4.5,9.5,7.7c5.2,6.4,8.4,14.2,9.8,22.3
								c1.4,8.1,1.1,16.6-2.2,24.3c-1.7,3.8-4.2,7.2-7.4,9.9c-3.2,2.6-7.1,4.2-11.2,4.9v-0.2c7.9-2,14.3-7.7,17.1-15.3
								c3-7.3,3.6-15.6,2.4-23.5c-1.2-7.9-4.2-15.6-9.2-22c-2.4-3.2-5.5-5.8-9-7.8c-3.6-1.9-7.6-2.8-11.6-2.7L323.4,373.2z"/>
							<path class="st31" d="M327.7,373.1c4.1-0.3,8.1,0.5,11.7,2.4c3.6,1.9,6.8,4.5,9.4,7.7c5.2,6.3,8.4,14,9.8,22s1.2,16.5-2,24.1
								c-1.6,3.8-4.1,7.2-7.3,9.9c-3.2,2.6-7,4.3-11.1,4.9v-0.2c7.8-2,14.1-7.7,16.9-15.2c2.9-7.3,3.4-15.5,2.2-23.3
								c-1.2-7.8-4.2-15.5-9.2-21.7c-2.4-3.2-5.5-5.8-9-7.7c-3.5-1.9-7.5-2.8-11.5-2.6L327.7,373.1z"/>
							<path class="st29" d="M471.6,374.3c12.3-3.3,26-4.5,37.1,5.7c12,9.3,17.6,37.2,5.3,53.9c-6.5,11-21.4,11.4-32.7,11
								C523.1,439.1,505.9,368,471.6,374.3z"/>
							<path class="st11" d="M505.5,405.8c2.5,20.7-5.4,37-21.4,39c-15.3,1.9-29.1-12.8-31.6-34.2c-2.4-19.9,9.2-37,24.6-37
								S503.4,388.7,505.5,405.8z"/>
							<path class="st32" d="M498.1,410.6c1.3,15.2-7.5,27.6-18.7,27.6s-20.1-12-21.9-27.6c-1.7-14.5,7.5-27.6,18.8-27.6
								C487.4,383,496.8,396.1,498.1,410.6z"/>
							<path class="st31" d="M479.7,373.1c4-0.3,8,0.6,11.5,2.6c3.5,2,6.5,4.7,8.9,8c4.8,6.5,7.5,14.2,8.7,22.1
								c1.2,7.9,0.8,16.2-2.3,23.8c-1.6,3.8-3.9,7.1-7,9.9c-3.1,2.6-6.8,4.4-10.8,5l0-0.2c3.8-1,7.3-3,10.1-5.7
								c2.8-2.7,4.9-6,6.3-9.6c2.7-7.3,3.6-15.2,2.5-23c-1-7.7-3.6-15.4-8.1-21.8c-2.2-3.2-5.1-6-8.5-8c-3.4-2-7.3-3-11.3-2.9
								L479.7,373.1z"/>
							<path class="st31" d="M483.3,372.7c4.1-0.3,8.2,0.6,11.8,2.4c3.7,1.9,6.9,4.5,9.5,7.7c5.2,6.4,8.4,14.2,9.8,22.3
								c1.4,8.1,1.1,16.6-2.2,24.3c-1.7,3.8-4.2,7.2-7.4,9.9c-3.2,2.6-7.1,4.2-11.2,4.9l0-0.2c7.9-2,14.3-7.7,17.1-15.3
								c3-7.3,3.6-15.6,2.4-23.5c-1.2-7.9-4.2-15.6-9.2-22c-2.4-3.2-5.5-5.8-9-7.8c-3.6-1.9-7.6-2.8-11.6-2.7L483.3,372.7z"/>
							<path class="st31" d="M487.6,372.5c4.1-0.3,8.1,0.5,11.8,2.4c3.6,1.9,6.8,4.5,9.4,7.7c5.2,6.3,8.4,14,9.8,22s1.3,16.5-2,24.1
								c-1.6,3.8-4.1,7.2-7.3,9.9c-3.2,2.6-7,4.2-11.1,4.9v-0.2c7.8-2,14.1-7.7,16.9-15.2c2.9-7.3,3.4-15.5,2.2-23.3
								c-1.2-7.8-4.2-15.5-9.2-21.7c-2.4-3.2-5.5-5.8-9-7.7c-3.5-1.9-7.5-2.8-11.5-2.6L487.6,372.5z"/>
							<path class="st29" d="M239.5,349c9.9-2.3,20.8-2.7,29.1,6.5c9,8.5,12.2,32.6,1.7,46.4c-5.7,9.2-17.5,8.9-26.4,8
								C277.3,406.8,267,345,239.5,349z"/>
							<path class="st11" d="M264.8,377.4c1,17.9-6,31.5-18.7,32.5c-12.2,1-22.5-12.3-23.5-30.7c-0.9-17.2,9-31.3,21.2-30.7
								S264,362.6,264.8,377.4z"/>
							<path class="st30" d="M258.8,381.2c0.3,13.1-7.2,23.3-16.1,22.8s-15.4-11.2-16.1-24.6c-0.7-12.5,7.2-23.3,16.1-22.8
								S258.4,368.7,258.8,381.2z"/>
							<path class="st31" d="M245.9,348.3c3.2-0.1,6.4,0.9,9,2.7c2.7,1.9,5,4.4,6.7,7.2c3.5,5.7,5.3,12.5,5.9,19.4
								c0.6,6.8-0.1,14-2.9,20.3c-1.4,3.1-3.4,5.9-6,8.2c-2.5,2.1-5.6,3.5-8.8,3.9v-0.1c3.1-0.8,5.9-2.3,8.3-4.5
								c2.3-2.3,4.2-5,5.4-8c2.5-6.2,3.5-12.9,3-19.6c-0.5-6.7-2.1-13.4-5.4-19.1c-1.6-2.8-3.7-5.3-6.3-7.2
								c-2.6-1.9-5.6-2.9-8.8-2.9L245.9,348.3z"/>
							<path class="st31" d="M248.8,348c3.3-0.1,6.5,0.8,9.3,2.6c2.8,1.8,5.3,4.2,7.1,7c3.8,5.7,6,12.5,6.7,19.5s0.1,14.4-2.9,20.8
								c-1.5,3.2-3.6,6-6.3,8.2c-2.6,2-5.8,3.3-9.1,3.7v-0.1c3.2-0.7,6.1-2.2,8.6-4.4c2.5-2.2,4.4-5,5.7-8c2.6-6.3,3.7-13.2,3-20
								c-0.6-6.8-2.6-13.6-6.3-19.2c-1.8-2.8-4.1-5.2-6.8-7.1c-2.7-1.8-5.9-2.8-9.1-2.8L248.8,348z"/>
							<path class="st31" d="M252.2,348.1c3.3-0.1,6.4,0.8,9.2,2.5c2.8,1.8,5.2,4.2,7.1,7c3.8,5.6,6,12.4,6.7,19.3
								s0.2,14.2-2.7,20.6c-1.4,3.2-3.5,5.9-6.2,8.2c-2.6,2-5.7,3.3-9,3.7v-0.1c3.1-0.7,6-2.2,8.5-4.4c2.4-2.2,4.4-4.9,5.6-8
								c2.6-6.1,3.4-13.1,2.8-19.9c-0.6-6.8-2.6-13.5-6.3-19c-1.7-2.8-4.1-5.1-6.8-7c-2.7-1.8-5.8-2.8-9-2.8L252.2,348.1z"/>
							<path class="st29" d="M369.5,350.9c10.5-2.8,22.3-3.8,31.9,4.9c10.3,8,15.1,31.9,4.5,46.3c-5.6,9.5-18.4,9.8-28.1,9.5
								C413.7,406.5,399,345.4,369.5,350.9z"/>
							<path class="st11" d="M398.6,377.9c2.1,17.8-4.6,31.8-18.3,33.5c-13.1,1.6-25-11-27.1-29.4c-2-17.1,7.9-31.8,21.1-31.8
								C387.5,350.2,396.8,363.2,398.6,377.9z"/>
							<path class="st30" d="M392.2,382c1.1,13-6.5,23.7-16.1,23.7c-9.6,0-17.3-10.3-18.8-23.7c-1.5-12.5,6.5-23.7,16.1-23.7
								S391.2,369.5,392.2,382z"/>
							<path class="st31" d="M376.5,349.8c3.4-0.2,6.9,0.5,9.9,2.2c3,1.7,5.6,4,7.7,6.8c4.1,5.6,6.5,12.2,7.5,19s0.7,13.9-2,20.4
								c-1.4,3.2-3.4,6.1-6,8.5c-2.6,2.3-5.8,3.8-9.3,4.3V411c3.2-0.9,6.2-2.6,8.6-4.9c2.4-2.3,4.2-5.2,5.4-8.3
								c2.3-6.3,3.1-13.1,2.2-19.8c-0.9-6.6-3.1-13.2-7-18.8c-1.9-2.8-4.4-5.1-7.3-6.9c-2.9-1.8-6.3-2.6-9.7-2.5V349.8z"/>
							<path class="st31" d="M379.5,349.4c3.5-0.2,7,0.5,10.2,2.1c3.1,1.6,5.9,3.9,8.1,6.6c4.5,5.5,7.2,12.2,8.4,19.1
								c1.2,6.9,1,14.3-1.9,20.9c-1.4,3.3-3.6,6.2-6.4,8.5c-2.8,2.2-6.1,3.7-9.6,4.2v-0.1c6.8-1.7,12.3-6.6,14.7-13.1
								c2.6-6.3,3.1-13.4,2.1-20.2c-1-6.8-3.6-13.4-7.9-18.9c-2.1-2.7-4.8-5-7.8-6.7c-3.1-1.7-6.5-2.4-10-2.3L379.5,349.4z"/>
							<path class="st31" d="M383.3,349.3c3.5-0.2,7,0.5,10.1,2c3.1,1.6,5.9,3.8,8.1,6.5c4.4,5.4,7.1,12.1,8.4,18.9
								s1.1,14.2-1.7,20.7c-1.4,3.3-3.5,6.2-6.3,8.5c-2.8,2.2-6,3.6-9.5,4.2V410c6.7-1.7,12.1-6.6,14.5-13.1
								c2.5-6.3,2.9-13.3,1.9-20s-3.6-13.3-7.9-18.7c-2.1-2.7-4.7-5-7.7-6.6c-3-1.6-6.5-2.4-9.9-2.3L383.3,349.3z"/>
							<path class="st33" d="M220.2,377.6c-9.2-3.9-12.3-12.6-10.8-24.8l197.1,24.8c0,0,0,7.9,127.5,25.2
								c-0.3,11.4-9.8,20.4-21.1,20.1l-170.6,1.5c-3.8,0-7.5-0.7-11.1-2.1L220.2,377.6z"/>
							<g class="st34">
								<path class="st10" d="M411,416.5c-2.5,0-4.5-2-4.5-4.5s2-4.5,4.5-4.5h13.2c2.5,0,4.5,2,4.5,4.5s-2,4.5-4.5,4.5l0,0H411z"/>
								<path class="st11" d="M424.1,408.2c2.1,0,3.8,1.7,3.8,3.8s-1.7,3.8-3.8,3.8h-13.2c-2.1,0-3.8-1.7-3.8-3.8
									c0-2.1,1.7-3.8,3.8-3.8l0,0H424.1z M424.1,406.8h-13.2c-2.9,0-5.2,2.3-5.2,5.2c0,2.9,2.3,5.2,5.2,5.2h13.2
									c2.9,0,5.2-2.3,5.2-5.2C429.4,409.1,427,406.8,424.1,406.8z"/>
								<path class="st10" d="M443.9,416.5c-2.5,0-4.5-2-4.5-4.5s2-4.5,4.5-4.5H457c2.5,0,4.5,2,4.5,4.5s-2,4.5-4.5,4.5H443.9z"/>
								<path class="st11" d="M457,408.2c2.1,0,3.8,1.7,3.8,3.8s-1.7,3.8-3.8,3.8h-13.2c-2.1,0-3.8-1.7-3.8-3.8s1.7-3.8,3.8-3.8H457
									z M457,406.8h-13.2c-2.9,0-5.2,2.3-5.2,5.2c0,2.9,2.3,5.2,5.2,5.2H457c2.9,0,5.2-2.3,5.2-5.2
									C462.3,409.1,459.9,406.8,457,406.8z"/>
							</g>
							<polygon class="st35" points="507,325.1 507.7,236 507,325.1 							"/>
							<polygon class="st35" points="450.6,134.1 442.7,217.1 450.6,134.1 							"/>
							<path class="st11" d="M366,350.1l23.9-224.7H273.4l-23.9,224.7h-37.1l22.4-224.4c1.1-11.2,10.5-19.7,21.7-19.7h174.4
								l-24.4,244.1H366z"/>
							<path class="st33" d="M427.9,108.8L404,347.3h-34.9l23.3-218.5l0.7-6.1H270.9l-0.5,5L247,347.3h-31.5L237.6,126
								c0.9-9.8,9.2-17.2,19-17.2H427.9z M434,103.2H256.6c-12.6,0-23.2,9.6-24.5,22.2l-22.7,227.5H409L434,103.2L434,103.2z
								 M252.3,349.3l23.6-221.1h110.9l-23.6,221.1H252.3z"/>
							<polygon class="st36" points="450.6,134.1 442.7,217.1 434.9,300.1 507,325.1 507.7,236 508.4,147.4 							"/>
							<path class="st11" d="M521.7,394.3c-1.2,0-2.4-0.2-3.5-0.7L412,351.1l23.4-234.2c0.5-5.2,5.1-9,10.3-8.5c0.3,0,0.6,0.1,1,0.1
								l93.4,18.7c3.9,0.8,6.4,4.6,5.6,8.4c-0.3,1.4-1,2.7-2,3.6l-8.3,8.3c-2.8,2.8-4.4,6.6-4.4,10.6v226.6c0,2.5-1,5-2.8,6.7
								C526.5,393.3,524.1,394.2,521.7,394.3z M433,290.3c-0.7,6.9,3.5,13.3,10,15.6l66.7,23.1l1.4-171.8c0-7-4.8-13.1-11.6-14.7
								l-51.4-11.8L433,290.3z"/>
							<path class="st33" d="M444.8,111.2c0.4,0,0.9,0,1.3,0.1l93.4,18.7c2.4,0.5,3.9,2.8,3.4,5.2c-0.2,0.9-0.6,1.6-1.2,2.2
								l-8.3,8.3c-3.3,3.3-5.2,7.8-5.2,12.5v226.6c0,3.7-2.9,6.6-6.6,6.7c-0.9,0-1.8-0.2-2.6-0.5L415,349.3l23.2-232.1
								C438.5,113.8,441.4,111.2,444.8,111.2L444.8,111.2z M512.5,332.9l0.1-7.7l0.7-89.1l0.6-78.8c0.1-8.3-5.6-15.6-13.8-17.4
								l-48.3-11.1l-6.2-1.4l-0.6,6.3l-7.8,83l-7,73.5c-0.8,8.2,4.1,15.8,11.9,18.4l63.1,21.8L512.5,332.9L512.5,332.9z
								 M444.8,105.6c-6.3,0-11.5,4.8-12.1,11L409,352.9l108.1,43.2c6.2,2.5,13.3-0.5,15.8-6.7c0.6-1.5,0.9-3,0.9-4.6V158.2
								c0-3.2,1.3-6.3,3.6-8.6l8.3-8.3c3.9-3.9,3.9-10.2,0-14c-1.4-1.4-3.1-2.3-5.1-2.7l-93.4-18.7
								C446.4,105.7,445.6,105.7,444.8,105.6z M507,325.1l-63-21.8c-5.3-1.8-8.7-7.1-8.2-12.7l7-73.5l7.8-83l48.3,11.1
								c5.6,1.3,9.5,6.3,9.5,12l-0.6,78.8L507,325.1L507,325.1z"/>
							<polygon class="st11" points="450.6,134.1 450.6,134.1 508.4,147.4 507.7,236 508.4,147.4 							"/>
							<path class="st33" d="M450.6,134.1l57.8,13.3L450.6,134.1z M508.4,147.4l-0.7,88.6L508.4,147.4z"/>
							<polygon class="st11" points="442.7,217.1 434.9,300.1 507,325.1 507,325.1 434.9,300.1 							"/>
							<path class="st33" d="M442.7,217.1l-7.8,83L442.7,217.1z M434.9,300.1l72.1,25L434.9,300.1z"/>
							<polygon class="st37" points="252.3,349.3 363.3,349.3 386.8,128.2 275.9,128.2 							"/>
							<line class="st38" x1="333.6" y1="126.1" x2="309.5" y2="350.5"/>
							<line class="st39" x1="333.3" y1="127.6" x2="309.6" y2="349.3"/>
							<polygon class="st11" points="212.2,352.5 409,352.9 530.5,401.4 334.1,401.4 							"/>
							<path class="st40" d="M410.1,356.3v-50.9H393v50.9c0,3.3,3.8,6,8.6,6S410.1,359.6,410.1,356.3z"/>
							<path class="st41" d="M406.4,260.7c-8.6,0-8.6,8.7-8.6,26.3c0,8.8,0,8.8-17.1,8.8c-17.1,0-17.1,8.7,0,17.5
								c7.7,3.9,8.6,0,25.7,0s17.1-8.8,17.1-17.5c0-26.3,17.1-26.3,8.6-35C426.1,254.5,406.4,260.7,406.4,260.7z"/>
							<path class="st40" d="M448.1,371.7v-52.5h-20.6v52.5c0,4,4.6,7.2,10.3,7.2S448.1,375.7,448.1,371.7z"/>
							<path class="st42" d="M442.2,266.6c-10.3,0-10.3,10.5-10.3,31.5c0,10.5,0,10.5-20.5,10.5c-20.5,0-20.5,10.5,0,21
								c9.2,4.7,10.3,0,30.8,0s20.5-10.5,20.5-21c0-31.5,20.5-31.5,10.3-42C465.7,259.2,442.2,266.6,442.2,266.6z"/>
							<path class="st40" d="M494.4,387.3v-48.6h-23v48.6c0,4.5,5.2,8.1,11.5,8.1C489.3,395.4,494.4,391.8,494.4,387.3z"/>
							<path class="st43" d="M488.7,274c-11.5,0-11.5,11.8-11.5,35.3c0,11.8,0,11.8-23,11.8s-23,11.8,0,23.5c10.3,5.3,11.5,0,34.5,0
								c23,0,23-11.8,23-23.5c0-35.3,23-35.3,11.5-47.1C515.1,265.7,488.7,274,488.7,274z"/>
							<path class="st40" d="M247.1,360.6v-50.9h17.1v50.9c0,3.3-3.8,6-8.6,6S247.1,363.9,247.1,360.6z"/>
							<path class="st41" d="M250.7,265c8.6,0,8.6,8.7,8.6,26.3c0,8.8,0,8.8,17.1,8.8s17.1,8.7,0,17.5c-7.7,3.9-8.6,0-25.7,0
								s-17.1-8.8-17.1-17.5c0-26.3-17.1-26.3-8.6-35C231.1,258.8,250.7,265,250.7,265z"/>
							<path class="st40" d="M278.4,373.2v-52.5H299v52.5c0,4-4.6,7.2-10.3,7.2S278.4,377.2,278.4,373.2z"/>
							<path class="st42" d="M284.4,268.2c10.3,0,10.3,10.5,10.3,31.5c0,10.5,0,10.5,20.5,10.5c20.5,0,20.5,10.5,0,21
								c-9.2,4.7-10.3,0-30.8,0s-20.5-10.5-20.5-21c0-31.5-20.5-31.5-10.3-42C260.8,260.7,284.4,268.2,284.4,268.2z"/>
							<path class="st40" d="M318.1,388.8v-48.6h23v48.6c0,4.5-5.2,8.1-11.5,8.1S318.1,393.3,318.1,388.8z"/>
							<path class="st43" d="M323.8,275.5c11.5,0,11.5,11.8,11.5,35.3c0,11.8,0,11.8,23,11.8c23,0,23,11.8,0,23.5
								c-10.3,5.3-11.5,0-34.5,0s-23.1-11.8-23.1-23.5c0-35.3-23-35.3-11.5-47.1C297.4,267.2,323.8,275.5,323.8,275.5z"/>
							<rect x="384.1" y="153.2" class="st44" width="99.9" height="246.6"/>
							<polygon class="st45" points="455.1,153.2 384.1,288.8 384.1,320.1 471.5,153.2 							"/>
							<polygon class="st45" points="483.9,156.8 384.1,347.4 384.1,352.5 483.9,161.9 							"/>
							<path class="st11" d="M486.7,400V167.4c0-9.4-7.6-17-17-17h-71.3c-9.4,0-17,7.6-17,17V400h-44.4V159.5c0-3.3,1.3-6.4,3.6-8.7
								c1-1.2,2-2.2,2.9-3.2c4.8-5.1,9.4-10,8.2-15.5c-0.1-0.4-0.2-0.7-0.3-1.1h188.3c2.8,0,5.1,2.3,5.1,5.2c0,1.4-0.5,2.7-1.5,3.6
								l-8.2,8.2c-2.6,2.6-4.1,6.1-4.1,9.8V400H486.7z"/>
							<path class="st33" d="M539.7,133.8c1.3,0,2.4,1.1,2.4,2.4c0,0.6-0.3,1.2-0.7,1.7l-8.2,8.2c-3.1,3.1-4.9,7.3-4.9,11.8v239.5
								h-38.8V167.4c0-10.9-8.9-19.8-19.8-19.8h-71.3c-10.9,0-19.8,8.9-19.8,19.8v229.8h-38.8V159.5c0-2.5,1-5,2.8-6.8l0.1-0.1
								l0.1-0.1c0.9-1,1.9-2,2.8-3c4.5-4.8,9.2-9.8,9.2-15.7H539.7z M338,124c19.3,7.8,9.2,15.1,0.5,24.7c-2.8,2.8-4.4,6.7-4.4,10.7
								v243.4h199.7V157.8c0-2.9,1.2-5.7,3.2-7.8l8.2-8.2c3.1-3.1,3.1-8.1,0-11.2c-1.5-1.5-3.5-2.3-5.6-2.3H351.6
								C350.8,128.2,350.3,126.4,338,124L338,124z M384.1,399.8V167.4c0-7.9,6.4-14.3,14.3-14.3h71.3c7.9,0,14.3,6.4,14.3,14.3
								c0,0,0,0,0,0v232.4H384.1z"/>
							<line class="st46" x1="434" y1="153.2" x2="434" y2="399.8"/>
							<line class="st38" x1="434" y1="153.2" x2="434" y2="399.8"/>
							<line class="st39" x1="434" y1="153.2" x2="434" y2="399.8"/>
							<g class="st47">
								
									<image style="overflow:visible;enable-background:new    ;" width="179" height="183" xlink:href="A9DD020F.png"  transform="matrix(1.3071 0 0 1.3071 391.7251 133.5799)">
								</image>
							</g>
							<rect x="494.6" y="237" class="st48" width="27.8" height="32.8"/>
							<polygon class="st33" points="496.4,244.2 496.4,238.1 503.3,238.1 503.3,235 492.9,235 492.9,244.2 							"/>
							<polygon class="st33" points="513.7,238.1 520.6,238.1 520.6,244.2 524.1,244.2 524.1,235 513.7,235 							"/>
							<polygon class="st33" points="520.6,262.5 520.6,268.6 513.7,268.6 513.7,271.7 524.1,271.7 524.1,262.5 							"/>
							<polygon class="st33" points="503.3,268.6 496.4,268.6 496.4,262.5 492.9,262.5 492.9,271.7 503.3,271.7 							"/>
							<path class="st43" d="M499.1,244v7.2h1.8v-0.9h0.9v0.9h0.9v-0.9h0.9v1.8h0.9v-1.8h0.9v-6.3L499.1,244z M504.5,249.3H500v-4.5
								h4.5V249.3z"/>
							<rect x="500.9" y="245.7" class="st43" width="2.7" height="2.7"/>
							<path class="st43" d="M511.6,244v6.3h-0.9v0.9h1.8v-0.9h0.9v0.9h0.9v-0.9h3.6V244H511.6z M517,249.3h-4.5v-4.5h4.5V249.3z"/>
							<rect x="513.4" y="245.7" class="st43" width="2.7" height="2.7"/>
							<rect x="500.9" y="258.3" class="st43" width="2.7" height="2.7"/>
							<polygon class="st43" points="508.1,244 508.1,246.6 507.2,246.6 507.2,244.9 506.3,244.9 506.3,244 							"/>
							<polygon class="st43" points="510.7,244.9 510.7,245.7 509.9,245.7 509.9,246.6 509,246.6 509,244 509.9,244 509.9,244.9 
															"/>
							<rect x="509.9" y="246.6" class="st43" width="0.9" height="0.9"/>
							<polygon class="st43" points="509,247.5 509,248.4 508.1,248.4 508.1,249.3 507.2,249.3 507.2,248.4 506.3,248.4 
								506.3,247.5 							"/>
							<path class="st43" d="M509,252v-1.8h1.8v-1.8h-0.9v0.9h-1.8v0.9h-0.9v-0.9h-0.9v1.8h0.9v0.9h-0.9v-0.9h-0.9v1.8h0.9v1.8h-1.8
								v-0.9h0.9v-0.9h-1.8v1.8h-0.9v0.9h1.8v0.9h-1.8v-0.9h-0.9v0.9h-2.7v6.3h8v-0.9h-1.8V261h0.9v-0.9h0.9v-0.9h-1.8v-1.8h0.9v0.9
								h0.9v-0.9h0.9v1.8h0.9v2.7h1.8v-1.8h-0.9v-0.9h0.9v-0.9H509v-0.9h1.8v-4.5h-2.7V252L509,252z M504.5,261.8H500v-4.5h4.5
								V261.8z M506.3,256.5h-0.9v-0.9h0.9V256.5z M509.9,253.8v2.7h-2.7v-2.7H509.9z"/>
							<polygon class="st43" points="517.9,251.1 517.9,252.9 517,252.9 517,252 515.2,252 515.2,251.1 							"/>
							<rect x="514.3" y="252" class="st43" width="0.9" height="0.9"/>
							<polygon class="st43" points="517.9,253.8 517.9,254.7 517,254.7 517,255.6 516.1,255.6 516.1,253.8 515.2,253.8 
								515.2,252.9 517,252.9 517,253.8 							"/>
							<rect x="517" y="255.6" class="st43" width="0.9" height="0.9"/>
							<rect x="515.2" y="255.6" class="st43" width="0.9" height="0.9"/>
							<polygon class="st43" points="515.2,253.8 515.2,255.6 514.3,255.6 514.3,254.7 512.5,254.7 512.5,253.8 							"/>
							<rect x="511.6" y="254.7" class="st43" width="0.9" height="0.9"/>
							<rect x="510.7" y="255.6" class="st43" width="0.9" height="0.9"/>
							<polygon class="st43" points="514.3,256.5 514.3,258.3 513.4,258.3 513.4,257.4 512.5,257.4 512.5,258.3 511.6,258.3 
								511.6,256.5 512.5,256.5 512.5,255.6 513.4,255.6 513.4,256.5 							"/>
							<rect x="508.1" y="254.7" class="st43" width="0.9" height="0.9"/>
							<rect x="500.9" y="254.7" class="st43" width="0.9" height="0.9"/>
							<polygon class="st43" points="500.9,253.8 500.9,254.7 500,254.7 500,255.6 499.1,255.6 499.1,252.9 500,252.9 500,253.8 
															"/>
							<polygon class="st43" points="503.6,252 503.6,252.9 502.7,252.9 502.7,253.8 501.8,253.8 501.8,252.9 500,252.9 500,252 
								500.9,252 500.9,251.1 501.8,251.1 501.8,252 							"/>
							<rect x="509.9" y="251.1" class="st43" width="0.9" height="0.9"/>
							<rect x="510.7" y="252" class="st43" width="1.8" height="0.9"/>
							<rect x="512.5" y="251.1" class="st43" width="0.9" height="0.9"/>
							<polygon class="st43" points="517.9,260 517.9,261.8 517,261.8 517,262.7 513.4,262.7 513.4,261.8 516.1,261.8 516.1,260.9 
								517,260.9 517,260 							"/>
							<polygon class="st43" points="517.9,257.4 517.9,259.2 517,259.2 517,258.3 516.1,258.3 516.1,260 515.2,260 515.2,260.9 
								514.3,260.9 514.3,260 512.5,260 512.5,259.2 515.2,259.2 515.2,257.4 							"/>
							<rect x="512.5" y="260.9" class="st43" width="0.9" height="0.9"/>
							<rect x="511.6" y="260.1" class="st43" width="0.9" height="0.9"/>
							<rect x="510.7" y="261.8" class="st43" width="0.9" height="0.9"/>
							<rect x="508.1" y="261.8" class="st43" width="0.9" height="0.9"/>
							<rect x="507.2" y="260.9" class="st43" width="0.9" height="0.9"/>
							<path class="st49" d="M359.3,126.8l-103-20.6c-0.4-0.1-0.7-0.5-0.7-1c0.1-0.4,0.4-0.7,0.8-0.7H433c0.5,0,1.1,0.1,1.6,0.2
								l102.1,20.4c0.4,0.1,0.7,0.5,0.7,1c-0.1,0.4-0.4,0.7-0.8,0.7L359.3,126.8z"/>
							<path class="st33" d="M433,106c0.5,0,0.9,0,1.4,0.1l96.4,19.3H359.5L262.3,106H433z M433,103.2H256.5c-1.2,0-2.2,1-2.2,2.2
								c0,1,0.7,2,1.8,2.2l102.8,20.6c0.1,0,0.3,0,0.4,0h177.2c1.2,0,2.2-1,2.2-2.2c0-1.1-0.7-2-1.8-2.2l-102-20.4
								C434.3,103.3,433.7,103.2,433,103.2L433,103.2z"/>
							<line class="st35" x1="394.4" y1="123.9" x2="313.2" y2="107.6"/>
							<polygon class="st50" points="394.4,123.9 384.2,122.1 374,120.1 353.7,116 333.4,111.9 323.3,109.9 313.2,107.6 
								323.4,109.4 333.5,111.4 353.8,115.5 374.1,119.5 384.3,121.5 							"/>
							<line class="st35" x1="479.9" y1="123.9" x2="398.7" y2="107.6"/>
							<polygon class="st50" points="479.9,123.9 469.7,122.1 459.6,120.1 439.3,116 419,111.9 408.8,109.9 398.7,107.6 409,109.4 
								419.1,111.4 439.4,115.5 459.7,119.5 469.8,121.5 							"/>
							<line class="st35" x1="428.6" y1="123.9" x2="347.4" y2="107.6"/>
							<polygon class="st50" points="428.6,123.9 418.4,122.1 408.2,120.1 387.9,116 367.7,111.9 357.5,109.9 347.4,107.6 
								357.6,109.4 367.8,111.4 388.1,115.5 408.3,119.5 418.5,121.5 							"/>
							<line class="st35" x1="462.8" y1="123.9" x2="381.6" y2="107.6"/>
							<polygon class="st50" points="462.8,123.9 452.6,122.1 442.5,120.1 422.2,116 401.9,111.9 391.7,109.9 381.6,107.6 
								391.8,109.4 402,111.4 422.3,115.5 442.6,119.5 452.7,121.5 							"/>
							<line class="st35" x1="497" y1="123.9" x2="415.9" y2="107.6"/>
							<polygon class="st50" points="497,123.9 486.8,122.1 476.7,120.1 456.4,116 436.1,111.9 426,109.9 415.9,107.6 426.1,109.4 
								436.2,111.4 456.5,115.5 476.8,119.5 486.9,121.5 							"/>
							<line class="st35" x1="377.2" y1="123.9" x2="296.1" y2="107.6"/>
							<polygon class="st50" points="377.2,123.9 367,122.1 356.9,120.1 336.6,116 316.3,111.9 306.2,109.9 296.1,107.6 
								306.3,109.4 316.4,111.4 336.7,115.5 357,119.5 367.2,121.5 							"/>
							<line class="st35" x1="411.5" y1="123.9" x2="330.3" y2="107.6"/>
							<polygon class="st50" points="411.5,123.9 401.3,122.1 391.1,120.1 370.8,116 350.5,111.9 340.4,109.9 330.3,107.6 
								340.5,109.4 350.6,111.4 370.9,115.5 391.2,119.5 401.4,121.5 							"/>
							<line class="st35" x1="445.7" y1="123.9" x2="364.5" y2="107.6"/>
							<polygon class="st50" points="445.7,123.9 435.5,122.1 425.3,120.1 405.1,116 384.8,111.9 374.6,109.9 364.5,107.6 
								374.7,109.4 384.9,111.4 405.2,115.5 425.5,119.5 435.6,121.5 							"/>
							<polygon class="st44" points="309.2,327.9 234.3,303 252.7,137 310.6,150.2 							"/>
							<path class="st11" d="M212.3,351.1l22.7-226.6c0.9-8.9,8.8-15.5,17.7-14.6c0.6,0.1,1.1,0.1,1.7,0.3l86.9,17.4
								c3.6,0.7,6,4.3,5.2,7.9c-0.3,1.3-0.9,2.5-1.8,3.4l-5.7,5.8c-4.8,4.8-7.5,11.3-7.5,18.1v235.9l-0.1,0.1L212.3,351.1z
								 M231.3,304.9l80.6,26.9l1.4-183.7l-63-14.5L231.3,304.9z"/>
							<path class="st33" d="M251.1,112.5c0.9,0,1.8,0.1,2.7,0.3l86.9,17.4c2.1,0.4,3.5,2.5,3.1,4.6c-0.2,0.8-0.5,1.5-1.1,2
								l-5.8,5.8c-5.4,5.3-8.4,12.5-8.4,20.1v232l-113.3-45.4l22.5-224.6C238.4,117.8,244.2,112.5,251.1,112.5z M314.7,335.6
								l0.1-7.7l1.4-177.7l0-4.5l-4.3-1L254,131.5l-6.1-1.4l-0.7,6.2l-18.5,166l-0.5,4.5l4.3,1.4l74.9,25L314.7,335.6L314.7,335.6z
								 M251.1,107c-9.8,0-18,7.5-18.9,17.2l-22.9,228.7l120.9,48.3c0.3,0.1,0.7,0.2,1.1,0.2c1.6,0,2.9-1.3,2.9-2.9V162.6
								c0-6,2.4-11.8,6.7-16.1l5.8-5.8c3.7-3.7,3.7-9.7,0-13.4c-1.3-1.3-3-2.2-4.8-2.6l-86.9-17.4C253.7,107.1,252.4,107,251.1,107
								L251.1,107z M309.2,327.9l-74.9-25l18.4-166l57.8,13.3L309.2,327.9L309.2,327.9z"/>
							<path class="st33" d="M324,398.7l9.6-5.6l7.1,5.8c1.6,0.7,10.1,3.9,8.4,3.9h-11.6c-2.1,0-4.3-0.4-6.3-1.2L324,398.7z"/>
							<rect x="347.8" y="126.5" class="st33" width="12.9" height="3.7"/>
						</g>
					</g>
				</g>
			</g>
		</g>
	</g>
</g>
</svg>
