<?xml version="1.0" encoding="utf-8"?>
<!-- Generator: Adobe Illustrator 23.0.3, SVG Export Plug-In . SVG Version: 6.00 Build 0)  -->
<svg version="1.1" id="Calque_1" xmlns="http://www.w3.org/2000/svg" xmlns:xlink="http://www.w3.org/1999/xlink" x="0px" y="0px"
	 viewBox="0 0 600.6 796.7" style="enable-background:new 0 0 600.6 796.7;" xml:space="preserve">
<style type="text/css">
	.st0{clip-path:url(#SVGID_2_);}
	.st1{fill:#7EC8C0;}
	.st2{clip-path:url(#SVGID_4_);}
	.st3{fill:none;stroke:#FF1744;stroke-width:8;stroke-miterlimit:10;}
	.st4{fill:none;stroke:#FF1744;stroke-width:8;stroke-miterlimit:10;stroke-dasharray:11.6033,11.6033;}
	.st5{fill:none;stroke:#FF1744;stroke-width:8;stroke-miterlimit:10;stroke-dasharray:12.3239,12.3239;}
	.st6{display:none;clip-path:url(#SVGID_4_);}
	.st7{display:inline;fill:#322D3A;}
	.st8{display:inline;fill:#1A1423;}
	.st9{display:inline;fill:#008E76;}
	.st10{display:inline;fill:#666270;}
	.st11{display:inline;fill:#046351;}
	.st12{display:inline;fill:#FFFFFF;}
	.st13{display:inline;opacity:0.3;}
	.st14{fill:#B3B3B3;}
	.st15{fill:#1A1423;}
	.st16{display:inline;fill:none;}
	.st17{display:inline;opacity:0.5;fill:#1A1423;enable-background:new    ;}
	.st18{display:inline;opacity:0.6;fill:#1A1423;enable-background:new    ;}
	.st19{display:inline;fill:none;stroke:#FFFFFF;stroke-width:4;stroke-miterlimit:10;}
	.st20{display:inline;fill:none;stroke:#000000;stroke-miterlimit:10;}
	.st21{display:inline;fill:#333333;}
	.st22{display:inline;fill:#8E1937;}
	.st23{display:inline;fill:#BC153A;}
	.st24{display:inline;fill:#E6294A;}
	.st25{display:inline;opacity:0.35;fill:#429A8A;enable-background:new    ;}
	.st26{display:inline;opacity:0.85;fill:#FFFFFF;enable-background:new    ;}
	.st27{display:inline;fill:none;stroke:#4D4D4D;stroke-width:4.2;stroke-miterlimit:10;}
	.st28{display:inline;opacity:0.5;}
	.st29{display:inline;opacity:0.8;fill:#1A1423;enable-background:new    ;}
	.st30{display:inline;fill:#3C3944;}
	.st31{display:inline;fill:#FDD835;}
	.st32{fill:#322D3A;}
	.st33{fill:#008E76;}
	.st34{fill:#666270;}
	.st35{fill:#046351;}
	.st36{fill:#FFFFFF;}
	.st37{opacity:0.3;}
	.st38{fill:none;}
	.st39{opacity:0.5;fill:#1A1423;enable-background:new    ;}
	.st40{opacity:0.6;fill:#1A1423;enable-background:new    ;}
	.st41{fill:none;stroke:#FFFFFF;stroke-width:4;stroke-miterlimit:10;}
	.st42{fill:none;stroke:#000000;stroke-miterlimit:10;}
	.st43{fill:#333333;}
	.st44{fill:#8E1937;}
	.st45{fill:#BC153A;}
	.st46{fill:#E6294A;}
	.st47{opacity:0.35;fill:#429A8A;enable-background:new    ;}
	.st48{opacity:0.85;fill:#FFFFFF;enable-background:new    ;}
	.st49{fill:none;stroke:#4D4D4D;stroke-width:4.2;stroke-miterlimit:10;}
	.st50{opacity:0.5;}
	.st51{opacity:0.8;fill:#1A1423;enable-background:new    ;}
	.st52{fill:#3C3944;}
	.st53{fill:#FDD835;}
	.st54{fill:#C4001D;}
	.st55{fill:#C4001D;stroke:#FFFFFF;stroke-width:12;stroke-linecap:round;stroke-miterlimit:10;}
</style>
<title>img-energie</title>
<g>
	<g>
		<g id="section4-technicity">
			<g>
				<defs>
					<circle id="SVGID_1_" cx="328.3" cy="252.8" r="252.8"/>
				</defs>
				<clipPath id="SVGID_2_">
					<use xlink:href="#SVGID_1_"  style="overflow:visible;"/>
				</clipPath>
				<g class="st0">
					<circle class="st1" cx="328.3" cy="252.8" r="252.8"/>
					<g>
						<defs>
							<circle id="SVGID_3_" cx="328.3" cy="252.8" r="252.8"/>
						</defs>
						<clipPath id="SVGID_4_">
							<use xlink:href="#SVGID_3_"  style="overflow:visible;"/>
						</clipPath>
						<g class="st2">
							<g>
								<line class="st3" x1="420.9" y1="411.8" x2="415.3" y2="409.6"/>
								<line class="st4" x1="404.5" y1="405.4" x2="107.7" y2="288.3"/>
								<line class="st3" x1="102.3" y1="286.2" x2="96.7" y2="284"/>
							</g>
						</g>
						<g class="st2">
							<g>
								<line class="st3" x1="402.5" y1="336.3" x2="396.8" y2="334.4"/>
								<line class="st5" x1="385.1" y1="330.5" x2="204" y2="269.8"/>
								<line class="st3" x1="198.1" y1="267.9" x2="192.4" y2="266"/>
							</g>
						</g>
						<g class="st6">
							<path class="st7" d="M148.9,695.2c17.6-4.7,37.3-6.4,53.3,8.2c17.2,13.3,25.3,53.4,7.6,77.4c-9.3,15.8-30.8,16.4-47,15.8
								C222.9,788.3,198.3,686.1,148.9,695.2z"/>
							<path class="st8" d="M197.6,740.3c3.6,29.8-7.7,53.2-30.7,56c-22,2.7-41.8-18.4-45.4-49.1c-3.4-28.6,13.2-53.2,35.4-53.2
								S194.7,715.8,197.6,740.3z"/>
							<path class="st9" d="M187,747.3c1.9,21.8-10.8,39.6-26.9,39.6s-28.9-17.2-31.5-39.6c-2.5-20.8,10.8-39.6,26.9-39.6
								S185.1,726.4,187,747.3z"/>
							<path class="st10" d="M160.6,693.4c5.8-0.4,11.5,0.9,16.6,3.7c5,2.9,9.3,6.8,12.8,11.4c6.9,9.3,10.8,20.4,12.6,31.8
								s1.2,23.3-3.3,34.2c-2.2,5.4-5.6,10.3-10,14.2c-4.4,3.8-9.8,6.3-15.5,7.3l-0.1-0.2c5.4-1.5,10.4-4.3,14.4-8.2
								c4-3.9,7-8.6,9-13.8c3.9-10.5,5.1-21.9,3.6-33c-1.5-11.1-5.1-22.1-11.7-31.3c-3.2-4.7-7.3-8.6-12.2-11.5
								c-4.9-2.9-10.5-4.3-16.2-4.1L160.6,693.4z"/>
							<path class="st10" d="M165.7,692.8c5.9-0.4,11.7,0.8,17,3.4c5.2,2.7,9.9,6.5,13.6,11.1c7.5,9.1,12,20.4,14.1,32
								s1.6,23.9-3.1,34.9c-2.4,5.5-6,10.4-10.6,14.2c-4.7,3.7-10.2,6.1-16.1,7v-0.2c11.3-2.9,20.5-11.1,24.6-22
								c4.3-10.5,5.2-22.4,3.4-33.7s-6-22.5-13.2-31.5c-3.5-4.6-7.9-8.4-13-11.2c-5.1-2.8-10.9-4.1-16.7-3.8L165.7,692.8z"/>
							<path class="st10" d="M171.9,692.6c5.8-0.4,11.7,0.8,16.9,3.4c5.2,2.7,9.8,6.4,13.5,11c7.4,9,12,20.2,14.1,31.6
								s1.8,23.7-2.9,34.6c-2.3,5.5-5.9,10.3-10.4,14.2c-4.6,3.7-10.1,6.1-15.9,7v-0.2c11.2-2.9,20.2-11.1,24.3-21.9
								c4.2-10.5,4.9-22.2,3.2-33.5s-6.1-22.2-13.2-31.2c-3.5-4.5-7.9-8.3-12.9-11.1c-5.1-2.7-10.8-4.1-16.6-3.8L171.9,692.6z"/>
							<path class="st7" d="M378.7,694.4c17.6-4.7,37.4-6.4,53.3,8.2c17.2,13.3,25.3,53.4,7.6,77.4c-9.3,15.8-30.8,16.4-47,15.8
								C452.6,787.5,428,685.3,378.7,694.4z"/>
							<path class="st8" d="M427.3,739.5c3.6,29.8-7.7,53.2-30.7,56c-22,2.7-41.8-18.4-45.5-49.1c-3.4-28.6,13.2-53.2,35.4-53.2
								S424.4,715,427.3,739.5z"/>
							<path class="st11" d="M416.7,746.4c1.9,21.8-10.8,39.6-26.9,39.6s-28.9-17.2-31.5-39.6c-2.5-20.8,10.8-39.6,26.9-39.6
								S414.9,725.6,416.7,746.4z"/>
							<path class="st10" d="M390.3,692.6c5.8-0.4,11.5,0.9,16.5,3.7c5,2.9,9.4,6.8,12.8,11.4c6.9,9.3,10.8,20.4,12.6,31.8
								s1.2,23.3-3.3,34.2c-2.2,5.4-5.6,10.3-10,14.2c-4.4,3.8-9.8,6.3-15.5,7.3l0-0.2c5.4-1.5,10.4-4.3,14.5-8.2
								c4-3.9,7-8.6,9-13.9c3.9-10.5,5.1-21.9,3.6-33c-1.5-11.1-5.1-22.2-11.7-31.4c-3.2-4.7-7.3-8.6-12.2-11.5
								c-4.9-2.9-10.5-4.3-16.2-4.1L390.3,692.6z"/>
							<path class="st10" d="M395.4,692c5.9-0.4,11.7,0.8,17,3.4c5.2,2.7,9.9,6.5,13.6,11.1c7.5,9.1,12,20.4,14.1,32
								s1.6,23.9-3.1,34.9c-2.4,5.5-6,10.4-10.6,14.2c-4.7,3.7-10.2,6.1-16.1,7l0-0.2c11.3-2.9,20.5-11.1,24.6-22
								c4.3-10.5,5.2-22.4,3.5-33.7s-6-22.5-13.1-31.5c-3.5-4.6-7.9-8.4-13-11.2c-5.1-2.8-10.9-4.1-16.7-3.8L395.4,692z"/>
							<path class="st10" d="M401.6,691.8c5.8-0.4,11.7,0.8,16.9,3.4c5.2,2.7,9.8,6.4,13.5,11c7.4,9,12,20.2,14.1,31.6
								s1.8,23.7-2.9,34.7c-2.3,5.5-5.9,10.3-10.4,14.2c-4.6,3.7-10.1,6.1-15.9,7v-0.2c11.2-2.9,20.2-11.1,24.3-21.9
								c4.2-10.5,4.9-22.2,3.2-33.5s-6.1-22.2-13.2-31.2c-3.5-4.5-7.9-8.3-12.9-11.1c-5.1-2.7-10.8-4.1-16.6-3.8L401.6,691.8z"/>
							<path class="st7" d="M45.1,657.9c14.2-3.3,29.9-3.9,41.9,9.4c13,12.2,17.6,46.9,2.4,66.7c-8.1,13.2-25.2,12.7-38,11.6
								C99.4,741,84.7,652.3,45.1,657.9z"/>
							<path class="st8" d="M81.6,698.8c1.4,25.7-8.6,45.2-26.9,46.7c-17.5,1.4-32.3-17.6-33.8-44.1c-1.4-24.7,13-45,30.5-44.1
								S80.4,677.5,81.6,698.8z"/>
							<path class="st9" d="M72.8,704.2c0.5,18.8-10.4,33.5-23.2,32.8s-22.1-16-23.1-35.3c-1-18,10.4-33.5,23.2-32.8
								S72.4,686.3,72.8,704.2z"/>
							<path class="st10" d="M54.4,656.9c4.6-0.1,9.2,1.3,13,3.9c3.9,2.7,7.1,6.3,9.6,10.4c5,8.3,7.6,18,8.5,27.8
								s-0.1,20.1-4.2,29.2c-2,4.5-4.9,8.5-8.6,11.7c-3.6,3-8,5-12.7,5.6v-0.2c4.4-1.1,8.5-3.3,11.9-6.4c3.4-3.2,6-7.2,7.8-11.5
								c3.6-8.9,5.1-18.6,4.4-28.2c-0.7-9.6-3-19.2-7.8-27.4c-2.3-4.1-5.4-7.6-9.1-10.4c-3.7-2.7-8.1-4.2-12.7-4.2L54.4,656.9z"/>
							<path class="st10" d="M58.5,656.6c4.7-0.1,9.4,1.2,13.4,3.7c4.1,2.6,7.6,6,10.3,10.1c5.5,8.2,8.6,18,9.7,28
								s0.2,20.6-4.1,29.9c-2.1,4.6-5.2,8.6-9.1,11.8c-3.8,2.9-8.3,4.8-13.1,5.3v-0.2c4.6-1.1,8.8-3.2,12.3-6.3
								c3.5-3.2,6.3-7.1,8.2-11.5c3.8-9.1,5.3-19,4.3-28.8c-0.9-9.8-3.7-19.5-9-27.6c-2.5-4-5.9-7.5-9.8-10.1c-3.9-2.6-8.4-4-13.1-4
								L58.5,656.6z"/>
							<path class="st10" d="M63.5,656.7c4.7-0.1,9.3,1.2,13.2,3.7c4.1,2.6,7.5,6,10.2,10c5.5,8.1,8.6,17.8,9.7,27.7
								s0.3,20.4-3.9,29.6c-2,4.5-5.1,8.5-8.9,11.7c-3.7,2.9-8.2,4.8-12.9,5.4v-0.2c4.5-1.1,8.7-3.2,12.2-6.3
								c3.5-3.2,6.3-7.1,8.1-11.5c3.8-8.8,4.9-18.8,4.1-28.6s-3.8-19.3-9-27.3c-2.5-4-5.8-7.4-9.7-10c-3.9-2.6-8.4-4-13-4
								L63.5,656.7z"/>
							<path class="st7" d="M232,660.7c15.1-4,32.1-5.5,45.8,7.1c14.8,11.4,21.7,45.9,6.5,66.5c-8,13.6-26.4,14.1-40.3,13.6
								C295.5,740.7,274.4,652.9,232,660.7z"/>
							<path class="st8" d="M273.8,699.5c3.1,25.6-6.6,45.7-26.4,48.1c-18.9,2.3-35.9-15.8-39-42.2c-2.9-24.5,11.4-45.7,30.4-45.7
								S271.3,678.3,273.8,699.5z"/>
							<path class="st9" d="M264.6,705.4c1.6,18.7-9.3,34-23.1,34s-24.8-14.8-27.1-34c-2.1-17.9,9.3-34,23.1-34
								S263.1,687.5,264.6,705.4z"/>
							<path class="st10" d="M242,659.1c5-0.3,9.9,0.8,14.2,3.2c4.3,2.5,8.1,5.8,11,9.8c5.9,8,9.3,17.6,10.8,27.3s1,20-2.8,29.3
								c-1.9,4.7-4.9,8.8-8.7,12.2c-3.8,3.3-8.4,5.4-13.3,6.2V747c4.7-1.3,8.9-3.7,12.4-7c3.4-3.4,6-7.4,7.7-11.9
								c3.4-9.1,4.4-18.8,3.1-28.4c-1.3-9.5-4.4-19-10-26.9c-2.7-4-6.3-7.4-10.4-9.9c-4.2-2.5-9-3.8-13.9-3.5V659.1z"/>
							<path class="st10" d="M246.4,658.6c5.1-0.3,10.1,0.7,14.6,3c4.5,2.3,8.5,5.6,11.7,9.5c6.4,7.8,10.3,17.5,12.1,27.5
								s1.4,20.5-2.7,30c-2,4.7-5.2,8.9-9.1,12.2c-4,3.2-8.8,5.3-13.8,6v-0.2c9.7-2.5,17.6-9.5,21.2-18.9c3.7-9,4.4-19.2,3-29
								s-5.2-19.3-11.3-27.1c-3-3.9-6.8-7.2-11.2-9.6c-4.4-2.4-9.4-3.5-14.4-3.3L246.4,658.6z"/>
							<path class="st10" d="M251.7,658.4c5-0.3,10,0.7,14.5,2.9c4.5,2.3,8.4,5.5,11.6,9.4c6.4,7.8,10.3,17.3,12.1,27.2
								s1.5,20.3-2.5,29.8c-2,4.7-5.1,8.9-9,12.2c-4,3.1-8.7,5.2-13.6,6v-0.2c9.6-2.5,17.4-9.5,20.8-18.8c3.6-9,4.2-19.1,2.7-28.7
								s-5.2-19.1-11.3-26.8c-3-3.9-6.8-7.1-11.1-9.5c-4.4-2.4-9.3-3.5-14.2-3.3L251.7,658.4z"/>
							<path class="st12" d="M17.4,699.1C4.1,693.6-0.3,681,1.8,663.6L285,699.1c0,0,0,11.4,183.1,36.2c-0.4,16.4-14,29.3-30.4,28.9
								l-245.1,2.1c-5.4,0-10.8-1-15.9-3L17.4,699.1z"/>
							<g class="st13">
								<path class="st14" d="M291.5,755c-3.6,0-6.5-2.9-6.5-6.5s2.9-6.5,6.5-6.5h19c3.6,0,6.5,2.9,6.5,6.5s-2.9,6.5-6.5,6.5l0,0
									H291.5z"/>
								<path class="st15" d="M310.5,743c3,0,5.5,2.5,5.5,5.5s-2.5,5.5-5.5,5.5h-19c-3,0-5.5-2.5-5.5-5.5c0-3,2.5-5.5,5.5-5.5l0,0
									H310.5z M310.5,741h-19c-4.1,0-7.5,3.4-7.5,7.5s3.4,7.5,7.5,7.5h19c4.1,0,7.5-3.4,7.5-7.5S314.6,741,310.5,741z"/>
								<path class="st14" d="M338.8,755c-3.6,0-6.5-2.9-6.5-6.5s2.9-6.5,6.5-6.5h19c3.6,0,6.5,2.9,6.5,6.5s-2.9,6.5-6.5,6.5H338.8z
									"/>
								<path class="st15" d="M357.8,743c3,0,5.5,2.5,5.5,5.5s-2.5,5.5-5.5,5.5h-19c-3,0-5.5-2.5-5.5-5.5s2.5-5.5,5.5-5.5H357.8z
									 M357.8,741h-19c-4.1,0-7.5,3.4-7.5,7.5s3.4,7.5,7.5,7.5h19c4.1,0,7.5-3.4,7.5-7.5S361.9,741,357.8,741z"/>
							</g>
							<polygon class="st16" points="429.6,623.6 430.6,495.6 429.6,623.6 							"/>
							<polygon class="st16" points="348.5,349.3 337.2,468.5 348.5,349.3 							"/>
							<path class="st8" d="M226.9,659.6l34.4-322.8H93.9L59.5,659.6H6.2l32.2-322.5c1.6-16.1,15.1-28.3,31.2-28.3h250.5
								l-35.1,350.7H226.9z"/>
							<path class="st12" d="M315.8,312.9l-34.3,342.7h-50.2l33.4-314l0.9-8.8H90.3l-0.8,7.1L55.9,655.6H10.6l31.8-318.1
								c1.4-14,13.2-24.7,27.2-24.7H315.8z M324.6,304.9H69.7c-18.2,0-33.4,13.8-35.2,31.8L1.8,663.6h286.9L324.6,304.9L324.6,304.9
								z M63.6,658.4l33.8-317.7h159.4l-33.8,317.7H63.6z"/>
							<polygon class="st17" points="348.5,349.3 337.2,468.5 325.9,587.8 429.6,623.6 430.6,495.6 431.6,368.3 							"/>
							<path class="st8" d="M450.6,723c-1.7,0-3.4-0.4-5-1L293,661l33.6-336.5c0.7-7.4,7.3-12.9,14.8-12.1c0.5,0,0.9,0.1,1.4,0.2
								L477,339.5c5.6,1.1,9.2,6.5,8.1,12.1c-0.4,2-1.4,3.8-2.8,5.2l-11.9,11.9c-4.1,4-6.3,9.5-6.3,15.2v325.5
								c0,3.6-1.5,7.1-4.1,9.7C457.5,721.6,454.1,723,450.6,723z M323.3,573.7c-0.9,9.9,5,19.1,14.4,22.4l95.9,33.2l1.9-246.8
								c0-10.1-6.9-18.8-16.7-21.1l-73.8-16.9L323.3,573.7z"/>
							<path class="st12" d="M340.1,316.3c0.6,0,1.3,0.1,1.9,0.2l134.2,26.9c3.4,0.7,5.6,4,4.9,7.4c-0.2,1.2-0.8,2.3-1.7,3.2
								l-11.9,11.9c-4.8,4.8-7.5,11.2-7.5,18v325.5c0,5.3-4.2,9.5-9.4,9.6c-1.3,0-2.5-0.2-3.7-0.7l-149.7-59.9l33.4-333.5
								C331.1,320,335.2,316.3,340.1,316.3L340.1,316.3z M437.4,634.8l0.1-11.1l1-128l0.9-113.2c0.1-12-8.1-22.4-19.8-25.1
								l-69.4-15.9l-8.9-2l-0.9,9l-11.3,119.2l-10,105.5c-1.1,11.7,5.9,22.7,17,26.5l90.7,31.4L437.4,634.8L437.4,634.8z
								 M340.1,308.3c-9,0-16.5,6.8-17.4,15.8l-33.9,339.4l155.3,62.1c8.9,3.6,19.1-0.7,22.8-9.6c0.9-2.1,1.3-4.4,1.3-6.7V383.9
								c0-4.6,1.8-9.1,5.1-12.4l11.9-11.9c5.6-5.6,5.6-14.6,0-20.2c-2-2-4.5-3.3-7.3-3.9l-134.2-26.9
								C342.5,308.5,341.3,308.4,340.1,308.3z M429.6,623.6L339,592.3c-7.6-2.6-12.5-10.2-11.7-18.2l10-105.5l11.3-119.3l69.4,15.9
								c8,1.8,13.7,9,13.6,17.2l-0.9,113.3L429.6,623.6L429.6,623.6z"/>
							<polygon class="st8" points="348.5,349.3 348.5,349.3 431.6,368.3 430.6,495.6 431.6,368.3 							"/>
							<path class="st12" d="M348.5,349.3l83.1,19.1L348.5,349.3z M431.6,368.3l-1,127.3L431.6,368.3z"/>
							<polygon class="st8" points="337.2,468.5 325.9,587.8 429.6,623.6 429.6,623.6 325.9,587.8 							"/>
							<path class="st12" d="M337.2,468.5l-11.3,119.3L337.2,468.5z M325.9,587.8l103.6,35.9L325.9,587.8z"/>
							<polygon class="st18" points="63.6,658.5 223.1,658.5 256.9,340.8 97.5,340.8 							"/>
							<line class="st19" x1="180.3" y1="337.7" x2="145.8" y2="660.1"/>
							<line class="st20" x1="180" y1="339.9" x2="145.9" y2="658.5"/>
							<polygon class="st8" points="6,663 288.8,663.6 463.2,733.3 181.2,733.3 							"/>
							<path class="st21" d="M290.3,668.5v-73.2h-24.6v73.2c0,4.8,5.5,8.7,12.3,8.7S290.3,673.3,290.3,668.5z"/>
							<path class="st22" d="M285,531.1c-12.3,0-12.3,12.6-12.3,37.7c0,12.6,0,12.6-24.6,12.6s-24.6,12.6,0,25.2
								c11,5.6,12.3,0,36.9,0s24.6-12.6,24.6-25.2c0-37.7,24.6-37.7,12.3-50.3C313.2,522.2,285,531.1,285,531.1z"/>
							<path class="st21" d="M344.9,690.6v-75.4h-29.5v75.4c0,5.7,6.6,10.4,14.8,10.4S344.9,696.3,344.9,690.6z"/>
							<path class="st23" d="M336.4,539.7c-14.8,0-14.8,15.1-14.8,45.3c0,15.1,0,15.1-29.5,15.1s-29.5,15.1,0,30.2
								c13.2,6.8,14.8,0,44.3,0s29.5-15.1,29.5-30.2c0-45.3,29.5-45.3,14.8-60.4C370.2,529,336.4,539.7,336.4,539.7z"/>
							<path class="st21" d="M411.5,713v-69.9h-33.1V713c0,6.5,7.4,11.6,16.5,11.6S411.5,719.5,411.5,713z"/>
							<path class="st24" d="M403.2,550.3c-16.5,0-16.5,16.9-16.5,50.7c0,16.9,0,16.9-33.1,16.9s-33.1,16.9,0,33.8
								c14.8,7.6,16.5,0,49.6,0s33.1-16.9,33.1-33.8c0-50.7,33.1-50.7,16.5-67.7C441.1,538.3,403.2,550.3,403.2,550.3z"/>
							<path class="st21" d="M56.1,674.7v-73.2h24.6v73.2c0,4.8-5.5,8.7-12.3,8.7S56.1,679.4,56.1,674.7z"/>
							<path class="st22" d="M61.3,537.3c12.3,0,12.3,12.6,12.3,37.7c0,12.6,0,12.6,24.6,12.6s24.6,12.6,0,25.2
								c-11,5.6-12.3,0-36.9,0s-24.6-12.6-24.6-25.2c0-37.7-24.6-37.7-12.3-50.3C33.1,528.4,61.3,537.3,61.3,537.3z"/>
							<path class="st21" d="M101.1,692.8v-75.4h29.5v75.4c0,5.7-6.6,10.4-14.8,10.4S101.1,698.5,101.1,692.8z"/>
							<path class="st23" d="M109.6,541.8c14.8,0,14.8,15.1,14.8,45.3c0,15.1,0,15.1,29.5,15.1s29.5,15.1,0,30.2
								c-13.2,6.8-14.8,0-44.3,0s-29.5-15.1-29.5-30.2c0-45.3-29.5-45.3-14.8-60.4C75.8,531.2,109.6,541.8,109.6,541.8z"/>
							<path class="st21" d="M158.1,715.2v-69.9h33.1v69.9c0,6.5-7.4,11.6-16.5,11.6S158.1,721.7,158.1,715.2z"/>
							<path class="st24" d="M166.4,552.4c16.5,0,16.5,16.9,16.5,50.7c0,16.9,0,16.9,33.1,16.9s33,16.9,0,33.8
								c-14.8,7.6-16.5,0-49.6,0s-33.1-16.9-33.1-33.8c0-50.7-33.1-50.7-16.5-67.6C128.4,540.5,166.4,552.4,166.4,552.4z"/>
							<rect x="252.9" y="376.6" class="st25" width="143.5" height="354.3"/>
							<polygon class="st26" points="355,376.6 252.9,571.5 252.9,616.5 378.5,376.6 							"/>
							<polygon class="st26" points="396.4,381.9 252.9,655.7 252.9,663 396.4,389.1 							"/>
							<path class="st8" d="M400.4,731.3V397.1c0-13.5-11-24.5-24.5-24.5H273.4c-13.5,0-24.5,11-24.5,24.5v334.2h-63.8V385.6
								c0-4.7,1.9-9.2,5.2-12.6c1.5-1.7,2.9-3.1,4.2-4.5c6.9-7.4,13.5-14.4,11.8-22.3c-0.1-0.5-0.3-1-0.4-1.5h270.6
								c4.1,0,7.4,3.3,7.4,7.4c0,2-0.8,3.8-2.2,5.2L470,369.2c-3.7,3.7-5.8,8.8-5.8,14.1v348.1H400.4z"/>
							<path class="st12" d="M476.5,348.7c1.9,0,3.4,1.5,3.4,3.4c0,0.9-0.4,1.8-1,2.4l-11.8,11.8c-4.5,4.5-7,10.6-7,16.9v344.1
								h-55.8V397.1c0-15.7-12.7-28.4-28.5-28.5H273.4c-15.7,0-28.4,12.7-28.5,28.5v330.2h-55.8V385.6c0-3.7,1.4-7.2,4-9.8l0.1-0.1
								l0.1-0.2c1.3-1.5,2.7-2.9,4-4.3c6.5-6.9,13.3-14.1,13.2-22.5H476.5z M186.8,334.7c27.8,11.2,13.2,21.7,0.8,35.5
								c-4.1,4.1-6.4,9.6-6.4,15.4v349.6h286.9V383.2c0-4.2,1.7-8.3,4.7-11.2l11.8-11.8c4.4-4.4,4.4-11.6,0-16.1
								c-2.1-2.1-5-3.3-8.1-3.3H206.3C205.1,340.8,204.4,338.2,186.8,334.7L186.8,334.7z M252.9,731V397.1
								c0-11.3,9.2-20.5,20.5-20.5h102.5c11.3,0,20.5,9.2,20.5,20.5c0,0,0,0,0,0V731H252.9z"/>
							<line class="st27" x1="324.6" y1="376.6" x2="324.6" y2="731"/>
							<line class="st19" x1="324.6" y1="376.6" x2="324.6" y2="731"/>
							<line class="st20" x1="324.6" y1="376.6" x2="324.6" y2="731"/>
							<g class="st28">
								
									<image style="overflow:visible;enable-background:new    ;" width="179" height="183" xlink:href="7604CC8D.png"  transform="matrix(1.878 0 0 1.878 263.9 348.479)">
								</image>
							</g>
							<rect x="411.7" y="497" class="st29" width="39.9" height="47.1"/>
							<polygon class="st12" points="414.3,507.4 414.3,498.6 424.2,498.6 424.2,494.2 409.3,494.2 409.3,507.4 							"/>
							<polygon class="st12" points="439.1,498.6 449.1,498.6 449.1,507.4 454.1,507.4 454.1,494.2 439.1,494.2 							"/>
							<polygon class="st12" points="449.1,533.7 449.1,542.5 439.1,542.5 439.1,546.9 454.1,546.9 454.1,533.7 							"/>
							<polygon class="st12" points="424.2,542.5 414.3,542.5 414.3,533.7 409.3,533.7 409.3,546.9 424.2,546.9 							"/>
							<path class="st24" d="M418.2,507.1v10.3h2.6v-1.3h1.3v1.3h1.3v-1.3h1.3v2.6h1.3v-2.6h1.3v-9L418.2,507.1z M425.9,514.8h-6.4
								v-6.4h6.4V514.8z"/>
							<rect x="420.8" y="509.6" class="st24" width="3.9" height="3.8"/>
							<path class="st24" d="M436.2,507.1v9h-1.3v1.3h2.6v-1.3h1.3v1.3h1.2v-1.3h5.1v-9H436.2z M443.9,514.8h-6.4v-6.4h6.4V514.8z"
								/>
							<rect x="438.8" y="509.6" class="st24" width="3.9" height="3.8"/>
							<rect x="420.8" y="527.6" class="st24" width="3.9" height="3.8"/>
							<polygon class="st24" points="431,507.1 431,510.9 429.8,510.9 429.8,508.3 428.5,508.3 428.5,507.1 							"/>
							<polygon class="st24" points="434.9,508.3 434.9,509.6 433.6,509.6 433.6,510.9 432.3,510.9 432.3,507.1 433.6,507.1 
								433.6,508.3 							"/>
							<rect x="433.6" y="510.9" class="st24" width="1.3" height="1.3"/>
							<polygon class="st24" points="432.3,512.2 432.3,513.5 431,513.5 431,514.8 429.8,514.8 429.8,513.5 428.5,513.5 
								428.5,512.2 							"/>
							<path class="st24" d="M432.3,518.6V516h2.6v-2.6h-1.3v1.3H431v1.3h-1.3v-1.3h-1.3v2.6h1.3v1.3h-1.3v-1.3h-1.3v2.6h1.3v2.6
								h-2.6v-1.3h1.3v-1.3h-2.6v2.6h-1.3v1.3h2.6v1.3h-2.6v-1.3h-1.3v1.3h-3.9v9h11.6v-1.3h-2.6v-1.3h1.3v-1.3h1.3v-1.3h-2.6v-2.6
								h1.3v1.3h1.3v-1.3h1.3v2.6h1.3v3.8h2.6v-2.6h-1.3v-1.3h1.3v-1.3h-2.6v-1.3h2.6v-6.4h-3.9v-1.3L432.3,518.6z M425.9,532.8
								h-6.4v-6.4h6.4V532.8z M428.5,525h-1.3v-1.3h1.3V525z M433.6,521.2v3.9h-3.9v-3.9H433.6z"/>
							<polygon class="st24" points="445.2,517.3 445.2,519.9 443.9,519.9 443.9,518.6 441.3,518.6 441.3,517.3 							"/>
							<rect x="440" y="518.6" class="st24" width="1.3" height="1.3"/>
							<polygon class="st24" points="445.2,521.2 445.2,522.5 443.9,522.5 443.9,523.8 442.6,523.8 442.6,521.2 441.3,521.2 
								441.3,519.9 443.9,519.9 443.9,521.2 							"/>
							<rect x="443.9" y="523.8" class="st24" width="1.3" height="1.3"/>
							<rect x="441.3" y="523.8" class="st24" width="1.3" height="1.3"/>
							<polygon class="st24" points="441.3,521.2 441.3,523.8 440,523.8 440,522.5 437.5,522.5 437.5,521.2 							"/>
							<rect x="436.2" y="522.5" class="st24" width="1.3" height="1.3"/>
							<rect x="434.9" y="523.8" class="st24" width="1.3" height="1.3"/>
							<polygon class="st24" points="440,525 440,527.6 438.8,527.6 438.8,526.3 437.5,526.3 437.5,527.6 436.2,527.6 436.2,525 
								437.5,525 437.5,523.8 438.8,523.8 438.8,525 							"/>
							<rect x="431" y="522.5" class="st24" width="1.3" height="1.3"/>
							<rect x="420.8" y="522.5" class="st24" width="1.3" height="1.3"/>
							<polygon class="st24" points="420.8,521.2 420.8,522.5 419.5,522.5 419.5,523.8 418.2,523.8 418.2,519.9 419.5,519.9 
								419.5,521.2 							"/>
							<polygon class="st24" points="424.6,518.6 424.6,519.9 423.3,519.9 423.3,521.2 422.1,521.2 422.1,519.9 419.5,519.9 
								419.5,518.6 420.8,518.6 420.8,517.3 422.1,517.3 422.1,518.6 							"/>
							<rect x="433.6" y="517.3" class="st24" width="1.3" height="1.3"/>
							<rect x="434.9" y="518.6" class="st24" width="2.6" height="1.3"/>
							<rect x="437.5" y="517.3" class="st24" width="1.3" height="1.3"/>
							<polygon class="st24" points="445.2,530.2 445.2,532.8 443.9,532.8 443.9,534 438.8,534 438.8,532.8 442.6,532.8 
								442.6,531.5 443.9,531.5 443.9,530.2 							"/>
							<polygon class="st24" points="445.2,526.3 445.2,528.9 443.9,528.9 443.9,527.6 442.6,527.6 442.6,530.2 441.3,530.2 
								441.3,531.5 440,531.5 440,530.2 437.5,530.2 437.5,528.9 441.3,528.9 441.3,526.3 							"/>
							<rect x="437.5" y="531.5" class="st24" width="1.3" height="1.3"/>
							<rect x="436.2" y="530.2" class="st24" width="1.3" height="1.3"/>
							<rect x="434.9" y="532.8" class="st24" width="1.3" height="1.3"/>
							<rect x="431" y="532.8" class="st24" width="1.3" height="1.3"/>
							<rect x="429.8" y="531.5" class="st24" width="1.3" height="1.3"/>
							<path class="st30" d="M217.4,338.8l-148-29.6c-0.6-0.1-1.1-0.7-0.9-1.4c0.1-0.6,0.6-1,1.2-1h253.6c0.8,0,1.6,0.1,2.4,0.2
								l146.7,29.3c0.6,0.1,1.1,0.7,0.9,1.4c-0.1,0.6-0.6,1-1.2,1L217.4,338.8z"/>
							<path class="st12" d="M323.3,308.9c0.7,0,1.3,0.1,2,0.2l138.5,27.7H217.6L78,308.9H323.3z M323.3,304.9H69.6
								c-1.7,0-3.2,1.4-3.2,3.2c0,1.5,1.1,2.8,2.5,3.1l147.7,29.5c0.2,0,0.4,0.1,0.6,0.1H472c1.7,0,3.2-1.4,3.2-3.2
								c0-1.5-1.1-2.8-2.5-3.1L326,305.2C325.1,305,324.2,304.9,323.3,304.9L323.3,304.9z"/>
							<line class="st16" x1="267.7" y1="334.5" x2="151.1" y2="311.2"/>
							<polygon class="st31" points="267.7,334.5 253,332 238.4,329.1 209.3,323.2 180.1,317.4 165.6,314.5 151.1,311.2 
								165.7,313.7 180.3,316.6 209.4,322.4 238.6,328.3 253.2,331.2 							"/>
							<line class="st16" x1="390.6" y1="334.5" x2="274" y2="311.2"/>
							<polygon class="st31" points="390.6,334.5 376,332 361.4,329.1 332.2,323.2 303.1,317.4 288.5,314.5 274,311.2 288.6,313.7 
								303.2,316.6 332.4,322.4 361.5,328.3 376.1,331.2 							"/>
							<line class="st16" x1="316.9" y1="334.5" x2="200.2" y2="311.2"/>
							<polygon class="st31" points="316.9,334.5 302.2,332 287.6,329.1 258.5,323.2 229.3,317.4 214.7,314.5 200.2,311.2 
								214.9,313.7 229.5,316.6 258.6,322.4 287.8,328.3 302.4,331.2 							"/>
							<line class="st16" x1="366" y1="334.5" x2="249.4" y2="311.2"/>
							<polygon class="st31" points="366,334.5 351.4,332 336.8,329.1 307.6,323.2 278.5,317.4 263.9,314.5 249.4,311.2 
								264.1,313.7 278.6,316.6 307.8,322.4 337,328.3 351.5,331.2 							"/>
							<line class="st16" x1="415.2" y1="334.5" x2="298.6" y2="311.2"/>
							<polygon class="st31" points="415.2,334.5 400.6,332 386,329.1 356.8,323.2 327.7,317.4 313.1,314.5 298.6,311.2 
								313.2,313.7 327.8,316.6 357,322.4 386.1,328.3 400.7,331.2 							"/>
							<line class="st16" x1="243.1" y1="334.5" x2="126.5" y2="311.2"/>
							<polygon class="st31" points="243.1,334.5 228.4,332 213.9,329.1 184.7,323.2 155.5,317.4 141,314.5 126.5,311.2 
								141.1,313.7 155.7,316.6 184.9,322.4 214,328.3 228.6,331.2 							"/>
							<line class="st16" x1="292.3" y1="334.5" x2="175.6" y2="311.2"/>
							<polygon class="st31" points="292.3,334.5 277.6,332 263,329.1 233.9,323.2 204.7,317.4 190.1,314.5 175.6,311.2 
								190.3,313.7 204.9,316.6 234,322.4 263.2,328.3 277.8,331.2 							"/>
							<line class="st16" x1="341.5" y1="334.5" x2="224.8" y2="311.2"/>
							<polygon class="st31" points="341.5,334.5 326.8,332 312.2,329.1 283,323.2 253.9,317.4 239.3,314.5 224.8,311.2 
								239.5,313.7 254.1,316.6 283.2,322.4 312.4,328.3 327,331.2 							"/>
							<polygon class="st25" points="145.3,627.7 37.7,591.8 64.2,353.3 147.3,372.4 							"/>
							<path class="st8" d="M6.1,661l32.6-325.6c1.2-12.8,12.7-22.2,25.5-21c0.8,0.1,1.6,0.2,2.4,0.4l124.8,25
								c5.2,1,8.6,6.1,7.5,11.3c-0.4,1.9-1.3,3.6-2.6,4.9l-8.3,8.3c-6.9,6.9-10.8,16.2-10.8,26v339l-0.1,0.2L6.1,661z M33.4,594.6
								l115.9,38.6l2.1-264l-90.6-20.8L33.4,594.6z"/>
							<path class="st12" d="M61.9,318.3c1.3,0,2.6,0.1,3.9,0.4l124.8,25c3,0.6,5,3.6,4.4,6.6c-0.2,1.1-0.8,2.1-1.5,2.9l-8.3,8.3
								c-7.7,7.6-12,18-12,28.9v333.3L10.4,658.4l32.3-322.6C43.6,325.8,51.9,318.2,61.9,318.3z M153.2,638.7l0.1-11l2-255.3
								l0.1-6.4l-6.2-1.4l-83.1-19l-8.7-2l-1,8.9L29.8,591l-0.7,6.4l6.1,2l107.6,35.9L153.2,638.7L153.2,638.7z M61.9,310.3
								c-14.1,0-25.8,10.7-27.2,24.7L1.8,663.6L175.5,733c0.5,0.2,1,0.3,1.5,0.3c2.3,0,4.1-1.9,4.1-4.1v-339c0-8.7,3.5-17,9.6-23.2
								l8.3-8.3c5.3-5.3,5.3-13.9,0-19.2c-1.9-1.9-4.3-3.2-6.9-3.7l-124.8-25C65.5,310.4,63.7,310.2,61.9,310.3L61.9,310.3z
								 M145.3,627.7L37.7,591.8l26.5-238.5l83.1,19.1L145.3,627.7L145.3,627.7z"/>
							<path class="st12" d="M166.5,729.5l13.8-8l10.1,8.3c2.4,0.9,14.6,5.5,12,5.5h-16.6c-3.1,0-6.1-0.6-9-1.7L166.5,729.5z"/>
							<rect x="200.9" y="338.3" class="st12" width="18.6" height="5.3"/>
						</g>
						<g class="st2">
							<path class="st32" d="M398.8,384.7c15.1-4,32-5.5,45.7,7.1c14.7,11.4,21.7,45.8,6.5,66.4c-8,13.6-26.4,14.1-40.3,13.6
								C462.3,464.6,441.1,376.9,398.8,384.7z"/>
							<path class="st15" d="M440.6,423.4c3.1,25.5-6.6,45.6-26.3,48c-18.9,2.3-35.9-15.8-39-42.1c-2.9-24.5,11.3-45.6,30.3-45.6
								S438,402.4,440.6,423.4z"/>
							<path class="st33" d="M431.5,429.4c1.6,18.7-9.3,34-23.1,34c-13.8,0-24.8-14.8-27-34c-2.1-17.9,9.3-34,23.1-34
								S429.9,411.5,431.5,429.4z"/>
							<path class="st34" d="M408.8,383.2c4.9-0.3,9.9,0.8,14.2,3.2c4.3,2.5,8,5.8,10.9,9.8c5.9,8,9.3,17.5,10.8,27.3
								c1.5,9.7,1,20-2.8,29.3c-1.9,4.6-4.8,8.8-8.6,12.2c-3.8,3.3-8.4,5.4-13.3,6.2l0-0.2c4.6-1.3,8.9-3.7,12.4-7
								c3.4-3.4,6-7.4,7.7-11.9c3.3-9,4.4-18.8,3.1-28.3c-1.3-9.5-4.4-19-10-26.9c-2.7-4-6.3-7.4-10.4-9.9c-4.2-2.5-9-3.7-13.9-3.5
								L408.8,383.2z"/>
							<path class="st34" d="M413.2,382.7c5-0.3,10.1,0.7,14.6,3c4.5,2.3,8.5,5.6,11.7,9.5c6.4,7.8,10.3,17.5,12.1,27.4
								c1.8,9.9,1.4,20.5-2.7,30c-2,4.7-5.2,8.9-9.1,12.2c-4,3.2-8.7,5.2-13.8,6v-0.2c9.7-2.5,17.6-9.5,21.1-18.8
								c3.7-9,4.4-19.2,3-28.9c-1.5-9.7-5.1-19.3-11.3-27.1c-3-3.9-6.8-7.2-11.1-9.6c-4.4-2.4-9.4-3.5-14.3-3.3L413.2,382.7z"/>
							<path class="st34" d="M418.5,382.5c5-0.3,10,0.7,14.5,2.9c4.5,2.3,8.4,5.5,11.6,9.4c6.4,7.7,10.3,17.3,12.1,27.1
								c1.8,9.8,1.5,20.3-2.5,29.7c-2,4.7-5,8.9-8.9,12.2c-3.9,3.2-8.6,5.3-13.6,6v-0.2c9.6-2.5,17.4-9.5,20.8-18.8
								c3.6-9,4.2-19,2.7-28.7c-1.5-9.6-5.2-19.1-11.3-26.8c-3-3.9-6.8-7.1-11.1-9.5c-4.4-2.3-9.3-3.5-14.2-3.3L418.5,382.5z"/>
							<path class="st32" d="M595.9,384c15.1-4,32-5.5,45.7,7.1c14.7,11.4,21.7,45.8,6.5,66.4c-8,13.6-26.4,14.1-40.3,13.6
								C659.3,463.9,638.2,376.2,595.9,384z"/>
							<path class="st15" d="M637.6,422.7c3.1,25.5-6.6,45.6-26.3,48c-18.9,2.3-35.9-15.8-39-42.1c-2.9-24.5,11.3-45.6,30.3-45.6
								C621.6,383,635.1,401.7,637.6,422.7z"/>
							<path class="st35" d="M628.5,428.7c1.6,18.7-9.3,34-23.1,34c-13.8,0-24.8-14.8-27-34c-2.1-17.9,9.3-34,23.1-34
								S626.9,410.8,628.5,428.7z"/>
							<path class="st34" d="M605.8,382.5c4.9-0.3,9.9,0.8,14.2,3.2c4.3,2.5,8,5.8,10.9,9.8c5.9,8,9.3,17.5,10.8,27.3
								c1.5,9.7,1,20-2.8,29.3c-1.9,4.6-4.8,8.8-8.6,12.2c-3.8,3.3-8.4,5.4-13.3,6.2l0-0.2c4.7-1.3,8.9-3.7,12.4-7
								c3.4-3.4,6-7.4,7.7-11.9c3.3-9,4.4-18.8,3.1-28.3c-1.3-9.5-4.4-19-10-26.9c-2.7-4-6.3-7.4-10.4-9.9c-4.2-2.5-9-3.7-13.9-3.5
								L605.8,382.5z"/>
							<path class="st34" d="M610.2,382c5-0.3,10.1,0.7,14.6,3c4.5,2.3,8.5,5.6,11.7,9.5c6.4,7.8,10.3,17.5,12.1,27.4
								s1.4,20.5-2.7,30c-2,4.7-5.2,8.9-9.1,12.2c-4,3.2-8.7,5.2-13.8,6l0-0.2c9.7-2.5,17.6-9.5,21.1-18.9c3.7-9,4.4-19.2,3-28.9
								c-1.5-9.7-5.1-19.3-11.3-27.1c-3-3.9-6.8-7.2-11.1-9.6c-4.4-2.4-9.4-3.5-14.3-3.3L610.2,382z"/>
							<path class="st34" d="M615.6,381.8c5-0.3,10,0.7,14.5,2.9c4.5,2.3,8.4,5.5,11.6,9.4c6.4,7.7,10.3,17.3,12.1,27.1
								c1.8,9.8,1.5,20.3-2.5,29.7c-2,4.7-5,8.9-8.9,12.2c-3.9,3.2-8.6,5.2-13.6,6v-0.2c9.6-2.5,17.4-9.5,20.8-18.8
								c3.6-9,4.2-19,2.7-28.7c-1.5-9.6-5.2-19.1-11.3-26.8c-3-3.9-6.8-7.1-11.1-9.5c-4.4-2.3-9.3-3.5-14.2-3.3L615.6,381.8z"/>
							<path class="st32" d="M309.8,352.7c12.2-2.8,25.6-3.4,35.9,8c11.1,10.4,15.1,40.2,2.1,57.2c-7,11.3-21.6,10.9-32.6,9.9
								C356.4,424,343.7,347.9,309.8,352.7z"/>
							<path class="st15" d="M341.1,387.8c1.2,22-7.4,38.8-23.1,40.1c-15,1.2-27.7-15.1-29-37.8c-1.2-21.1,11.1-38.6,26.2-37.8
								C330.2,353,340.1,369.6,341.1,387.8z"/>
							<path class="st33" d="M333.6,392.5c0.4,16.1-8.9,28.7-19.9,28.1c-11-0.6-18.9-13.8-19.9-30.3c-0.9-15.4,8.9-28.7,19.9-28.1
								C324.7,362.7,333.2,377.1,333.6,392.5z"/>
							<path class="st34" d="M317.8,351.9c4-0.1,7.9,1.1,11.1,3.4c3.3,2.4,6.1,5.4,8.2,8.9c4.3,7.1,6.5,15.4,7.3,23.9
								c0.7,8.4-0.1,17.2-3.6,25c-1.7,3.9-4.2,7.3-7.4,10.1c-3.1,2.6-6.9,4.3-10.9,4.8v-0.2c3.8-0.9,7.3-2.8,10.2-5.5
								c2.9-2.8,5.2-6.1,6.7-9.9c3.1-7.7,4.4-15.9,3.7-24.2c-0.6-8.2-2.6-16.5-6.7-23.5c-1.9-3.5-4.6-6.5-7.8-8.9
								c-3.2-2.3-6.9-3.6-10.8-3.6L317.8,351.9z"/>
							<path class="st34" d="M321.3,351.6c4-0.1,8,1,11.5,3.2c3.5,2.2,6.5,5.2,8.8,8.6c4.7,7,7.3,15.4,8.3,24
								c0.9,8.6,0.2,17.7-3.5,25.6c-1.8,3.9-4.5,7.4-7.8,10.1c-3.3,2.5-7.1,4.1-11.2,4.6v-0.2c3.9-0.9,7.5-2.8,10.6-5.4
								c3-2.7,5.4-6.1,7-9.9c3.2-7.8,4.5-16.3,3.7-24.7c-0.8-8.4-3.2-16.8-7.7-23.7c-2.2-3.5-5-6.4-8.4-8.7
								c-3.3-2.2-7.2-3.4-11.2-3.4L321.3,351.6z"/>
							<path class="st34" d="M325.5,351.7c4-0.1,7.9,1,11.3,3.1c3.5,2.2,6.5,5.1,8.7,8.6c4.7,6.9,7.3,15.3,8.3,23.8
								c1,8.5,0.3,17.5-3.3,25.4c-1.7,3.9-4.4,7.3-7.7,10c-3.2,2.5-7,4.1-11.1,4.6V427c3.9-0.9,7.5-2.8,10.4-5.4
								c3-2.7,5.4-6.1,6.9-9.8c3.2-7.5,4.2-16.1,3.5-24.5c-0.7-8.4-3.2-16.6-7.7-23.4c-2.2-3.4-5-6.3-8.3-8.6
								c-3.3-2.2-7.2-3.4-11.1-3.4L325.5,351.7z"/>
							<path class="st32" d="M470.1,355.1c13-3.4,27.5-4.7,39.3,6.1c12.7,9.8,18.6,39.4,5.6,57c-6.9,11.7-22.7,12.1-34.6,11.7
								C524.5,423.7,506.4,348.4,470.1,355.1z"/>
							<path class="st15" d="M505.9,388.4c2.6,21.9-5.7,39.2-22.6,41.3c-16.2,2-30.8-13.6-33.4-36.2c-2.5-21,9.8-39.2,26-39.2
								S503.7,370.3,505.9,388.4z"/>
							<path class="st33" d="M498.1,393.5c1.4,16.1-8,29.2-19.8,29.2c-11.9,0-21.3-12.7-23.2-29.2c-1.8-15.4,8-29.2,19.8-29.2
								C486.7,364.3,496.7,378.1,498.1,393.5z"/>
							<path class="st34" d="M478.6,353.8c4.2-0.3,8.5,0.7,12.2,2.8c3.7,2.1,6.9,5,9.4,8.4c5.1,6.9,8,15.1,9.2,23.4
								c1.3,8.4,0.9,17.2-2.4,25.2c-1.7,4-4.2,7.6-7.4,10.4c-3.2,2.8-7.2,4.7-11.4,5.3v-0.2c4-1.1,7.7-3.2,10.7-6
								c2.9-2.9,5.2-6.4,6.6-10.2c2.9-7.8,3.8-16.1,2.7-24.3c-1.1-8.2-3.8-16.3-8.6-23.1c-2.4-3.4-5.4-6.3-9-8.5
								c-3.6-2.2-7.8-3.2-12-3V353.8z"/>
							<path class="st34" d="M482.4,353.4c4.3-0.3,8.7,0.6,12.6,2.6c3.9,2,7.3,4.8,10,8.1c5.5,6.7,8.8,15,10.4,23.6
								c1.5,8.5,1.2,17.6-2.3,25.7c-1.7,4.1-4.4,7.7-7.8,10.5c-3.4,2.7-7.5,4.5-11.8,5.2v-0.2c8.3-2.1,15.1-8.1,18.2-16.2
								c3.2-7.7,3.8-16.5,2.6-24.9c-1.2-8.4-4.4-16.6-9.7-23.2c-2.6-3.4-5.9-6.2-9.6-8.2c-3.8-2-8-3-12.3-2.8L482.4,353.4z"/>
							<path class="st34" d="M487,353.2c4.3-0.3,8.6,0.6,12.4,2.5c3.8,2,7.2,4.7,9.9,8.1c5.5,6.7,8.8,14.9,10.4,23.3
								c1.6,8.4,1.3,17.4-2.1,25.5c-1.7,4-4.4,7.6-7.7,10.4c-3.4,2.7-7.4,4.5-11.7,5.1V428c8.2-2.1,14.9-8.1,17.9-16.1
								c3.1-7.7,3.6-16.4,2.3-24.6c-1.3-8.3-4.5-16.4-9.7-23c-2.6-3.3-5.8-6.1-9.5-8.1c-3.7-2-8-3-12.2-2.8L487,353.2z"/>
							<path class="st36" d="M286,388.1c-11.4-4.8-15.2-15.6-13.4-30.5l242.9,30.5c0,0,0,9.8,157.1,31c-0.4,14-12,25.1-26.1,24.8
								l-210.2,1.8c-4.7,0-9.3-0.8-13.6-2.6L286,388.1z"/>
							<g class="st37">
								<path class="st14" d="M521.1,436c-3.1,0-5.6-2.5-5.6-5.6s2.5-5.6,5.6-5.6h16.3c3.1,0,5.6,2.5,5.6,5.6s-2.5,5.6-5.6,5.6l0,0
									H521.1z"/>
								<path class="st15" d="M537.4,425.7c2.6,0,4.7,2.1,4.7,4.7s-2.1,4.7-4.7,4.7h-16.3c-2.6,0-4.7-2.1-4.7-4.7
									c0-2.6,2.1-4.7,4.7-4.7l0,0H537.4z M537.4,424h-16.3c-3.6,0-6.4,2.9-6.4,6.4s2.9,6.4,6.4,6.4h16.3c3.6,0,6.4-2.9,6.4-6.4
									S540.9,424,537.4,424z"/>
								<path class="st14" d="M561.7,436c-3.1,0-5.6-2.5-5.6-5.6s2.5-5.6,5.6-5.6h16.3c3.1,0,5.6,2.5,5.6,5.6s-2.5,5.6-5.6,5.6
									H561.7z"/>
								<path class="st15" d="M577.9,425.7c2.6,0,4.7,2.1,4.7,4.7s-2.1,4.7-4.7,4.7h-16.3c-2.6,0-4.7-2.1-4.7-4.7s2.1-4.7,4.7-4.7
									H577.9z M577.9,424h-16.3c-3.6,0-6.4,2.9-6.4,6.4s2.9,6.4,6.4,6.4h16.3c3.6,0,6.4-2.9,6.4-6.4S581.5,424,577.9,424z"/>
							</g>
							<polygon class="st38" points="639.5,323.3 640.4,213.6 639.5,323.3 							"/>
							<polygon class="st38" points="570,88 560.3,190.3 570,88 							"/>
							<path class="st15" d="M465.7,354.2l29.5-276.9H351.6l-29.5,276.9h-45.7l27.7-276.5c1.3-13.8,12.9-24.3,26.8-24.2h214.9
								l-30.1,300.8H465.7z"/>
							<path class="st36" d="M542,56.8l-29.4,293.9h-43l28.7-269.3l0.8-7.6H348.6l-0.7,6.1l-28.8,270.7h-38.8L307.5,78
								c1.2-12,11.3-21.2,23.4-21.1H542z M549.5,50H330.9c-15.6,0-28.6,11.8-30.2,27.3l-28,280.3h246.1L549.5,50L549.5,50z
								 M325.7,353.2l29-272.5h136.7l-29,272.5H325.7z"/>
							<polygon class="st39" points="570,88 560.3,190.3 550.6,292.6 639.5,323.3 640.4,213.6 641.2,104.4 							"/>
							<path class="st15" d="M657.5,408.6c-1.5,0-2.9-0.3-4.3-0.9l-130.9-52.3l28.9-288.6c0.6-6.4,6.3-11,12.7-10.4
								c0.4,0,0.8,0.1,1.2,0.2l115.1,23c4.8,1,7.9,5.6,6.9,10.4c-0.3,1.7-1.2,3.3-2.4,4.5l-10.2,10.2c-3.5,3.5-5.4,8.2-5.4,13.1
								v279.2c0,3.1-1.2,6.1-3.5,8.3C663.5,407.3,660.6,408.5,657.5,408.6z M548.3,280.5c-0.8,8.5,4.3,16.4,12.3,19.2l82.2,28.4
								l1.7-211.6c0-8.6-5.9-16.2-14.3-18.1l-63.3-14.5L548.3,280.5z"/>
							<path class="st36" d="M562.8,59.8c0.6,0,1.1,0.1,1.6,0.2l115.1,23c2.9,0.6,4.8,3.4,4.2,6.4c-0.2,1-0.7,2-1.5,2.8l-10.2,10.2
								c-4.1,4.1-6.4,9.6-6.4,15.4v279.2c0,4.5-3.6,8.2-8.1,8.2c-1.1,0-2.2-0.2-3.2-0.6l-128.4-51.4l28.6-286
								C555.1,63,558.6,59.8,562.8,59.8L562.8,59.8z M646.3,332.9l0.1-9.5l0.9-109.8l0.8-97.1c0.1-10.3-7-19.2-17-21.5l-59.5-13.7
								l-7.6-1.7l-0.7,7.8l-9.7,102.3l-8.6,90.5c-1,10,5.1,19.4,14.6,22.7l77.8,26.9L646.3,332.9L646.3,332.9z M562.8,52.9
								c-7.7,0-14.2,5.9-14.9,13.5l-29.1,291.1l133.2,53.3c7.7,3.1,16.4-0.6,19.5-8.3c0.7-1.8,1.1-3.7,1.1-5.7V117.7
								c0-4,1.6-7.8,4.4-10.6l10.2-10.2c4.8-4.8,4.8-12.5,0-17.3c-1.7-1.7-3.9-2.9-6.2-3.3l-115.1-23
								C564.8,53,563.8,52.9,562.8,52.9z M639.5,323.3l-77.7-26.9c-6.6-2.3-10.7-8.7-10.1-15.6l8.6-90.5L570,88l59.5,13.7
								c6.9,1.6,11.7,7.7,11.7,14.8l-0.8,97.1L639.5,323.3L639.5,323.3z"/>
							<polygon class="st15" points="570,88 570,88 641.2,104.4 640.4,213.6 641.2,104.4 							"/>
							<path class="st36" d="M570,88l71.3,16.4L570,88z M641.2,104.4l-0.9,109.2L641.2,104.4z"/>
							<polygon class="st15" points="560.3,190.3 550.6,292.6 639.5,323.3 639.5,323.3 550.6,292.6 							"/>
							<path class="st36" d="M560.3,190.3l-9.7,102.3L560.3,190.3z M550.6,292.6l88.9,30.8L550.6,292.6z"/>
							<polygon class="st40" points="325.7,353.2 462.4,353.2 491.4,80.7 354.7,80.7 							"/>
							<line class="st41" x1="425.8" y1="78.2" x2="396.1" y2="354.7"/>
							<line class="st42" x1="425.5" y1="80" x2="396.3" y2="353.2"/>
							<polygon class="st15" points="276.2,357.1 518.8,357.6 668.4,417.4 426.5,417.4 							"/>
							<path class="st43" d="M520.1,361.8v-62.8H499v62.8c0,4.1,4.7,7.4,10.6,7.4C515.4,369.2,520.1,365.9,520.1,361.8z"/>
							<path class="st44" d="M515.5,244c-10.5,0-10.5,10.8-10.5,32.4c0,10.8,0,10.8-21.1,10.8c-21.1,0-21.1,10.8,0,21.6
								c9.4,4.8,10.5,0,31.6,0c21.1,0,21.1-10.8,21.1-21.6c0-32.4,21.1-32.4,10.5-43.1C539.7,236.4,515.5,244,515.5,244z"/>
							<path class="st43" d="M566.9,380.8v-64.6h-25.3v64.6c0,4.9,5.7,8.9,12.7,8.9S566.9,385.7,566.9,380.8z"/>
							<path class="st45" d="M559.6,251.3c-12.7,0-12.7,12.9-12.7,38.8c0,12.9,0,12.9-25.3,12.9c-25.3,0-25.3,13,0,25.9
								c11.3,5.8,12.7,0,38,0c25.3,0,25.3-12.9,25.3-25.9c0-38.8,25.3-38.8,12.7-51.8C588.6,242.2,559.6,251.3,559.6,251.3z"/>
							<path class="st43" d="M624,400v-59.9h-28.4V400c0,5.5,6.4,10,14.2,10S624,405.5,624,400z"/>
							<path class="st46" d="M616.9,260.4c-14.2,0-14.2,14.5-14.2,43.5c0,14.5,0,14.5-28.4,14.5s-28.4,14.5,0,29
								c12.7,6.5,14.2,0,42.5,0c28.4,0,28.4-14.5,28.4-29c0-43.5,28.4-43.5,14.2-58C649.4,250.1,616.9,260.4,616.9,260.4z"/>
							<path class="st43" d="M319.2,367.1v-62.8h21.1v62.8c0,4.1-4.7,7.4-10.6,7.4C323.9,374.5,319.2,371.2,319.2,367.1z"/>
							<path class="st44" d="M323.7,249.3c10.5,0,10.5,10.8,10.5,32.4c0,10.8,0,10.8,21.1,10.8c21.1,0,21.1,10.8,0,21.6
								c-9.4,4.8-10.5,0-31.6,0c-21.1,0-21.1-10.8-21.1-21.6c0-32.4-21.1-32.4-10.5-43.1C299.5,241.7,323.7,249.3,323.7,249.3z"/>
							<path class="st43" d="M357.8,382.7V318h25.3v64.6c0,4.9-5.7,8.9-12.7,8.9C363.5,391.6,357.8,387.6,357.8,382.7z"/>
							<path class="st45" d="M365.1,253.2c12.7,0,12.7,13,12.7,38.8c0,13,0,13,25.3,13s25.3,12.9,0,25.9c-11.3,5.8-12.7,0-38,0
								c-25.3,0-25.3-13-25.3-25.9c0-38.8-25.3-38.8-12.7-51.8C336.1,244,365.1,253.2,365.1,253.2z"/>
							<path class="st43" d="M406.7,401.9V342H435v59.9c0,5.5-6.4,10-14.2,10S406.7,407.4,406.7,401.9z"/>
							<path class="st46" d="M413.8,262.3c14.2,0,14.2,14.5,14.2,43.5c0,14.5,0,14.5,28.4,14.5c28.4,0,28.3,14.5,0,29
								c-12.7,6.5-14.2,0-42.5,0s-28.4-14.5-28.4-29c0-43.5-28.4-43.5-14.2-58C381.3,252,413.8,262.3,413.8,262.3z"/>
							<rect x="488" y="111.5" class="st47" width="123" height="303.9"/>
							<polygon class="st48" points="575.6,111.5 488,278.6 488,317.2 595.8,111.5 							"/>
							<polygon class="st48" points="611,116 488,350.8 488,357.1 611,122.2 							"/>
							<path class="st15" d="M614.5,415.7V129.1c0-11.6-9.4-21-21-21h-87.9c-11.6,0-21,9.4-21,21v286.6h-54.7V119.2
								c0-4,1.6-7.9,4.5-10.8c1.3-1.4,2.5-2.7,3.6-3.9c6-6.3,11.6-12.3,10.1-19.1c-0.1-0.4-0.2-0.9-0.4-1.3h232.1
								c3.5,0,6.3,2.8,6.3,6.4c0,1.7-0.7,3.3-1.9,4.5l-10.1,10.1c-3.2,3.2-5,7.5-5,12.1v298.5H614.5z"/>
							<path class="st36" d="M679.8,87.6c1.6,0,2.9,1.3,2.9,2.9c0,0.8-0.3,1.5-0.9,2.1l-10.1,10.1c-3.9,3.8-6,9-6,14.5v295.1h-47.9
								V129.1c0-13.5-10.9-24.4-24.4-24.4h-87.9c-13.5,0-24.4,10.9-24.4,24.4v283.2h-47.8v-293c0-3.1,1.2-6.1,3.4-8.4l0.1-0.1
								l0.1-0.1c1.1-1.3,2.3-2.5,3.4-3.7c5.6-6,11.4-12.1,11.3-19.3H679.8z M431.3,75.6c23.8,9.6,11.4,18.6,0.7,30.5
								c-3.5,3.5-5.5,8.2-5.5,13.2v299.9h246.1v-302c0-3.6,1.4-7.1,4-9.6l10.1-10.1c3.8-3.8,3.8-10,0-13.8c-1.8-1.8-4.3-2.9-6.9-2.9
								H448C447,80.8,446.4,78.6,431.3,75.6L431.3,75.6z M488,415.4V129.1c0-9.7,7.9-17.6,17.6-17.6h87.9c9.7,0,17.6,7.9,17.6,17.6
								c0,0,0,0,0,0v286.3H488z"/>
							<line class="st49" x1="549.5" y1="111.5" x2="549.5" y2="415.4"/>
							<line class="st41" x1="549.5" y1="111.5" x2="549.5" y2="415.4"/>
							<line class="st42" x1="549.5" y1="111.5" x2="549.5" y2="415.4"/>
							<g class="st50">
								
									<image style="overflow:visible;enable-background:new    ;" width="179" height="183" xlink:href="7604CC8F.png"  transform="matrix(1.6106 0 0 1.6106 497.4306 87.3607)">
								</image>
							</g>
							<rect x="624.2" y="214.7" class="st51" width="34.3" height="40.4"/>
							<polygon class="st36" points="626.4,223.6 626.4,216.1 634.9,216.1 634.9,212.3 622.1,212.3 622.1,223.6 							"/>
							<polygon class="st36" points="647.7,216.1 656.2,216.1 656.2,223.6 660.5,223.6 660.5,212.3 647.7,212.3 							"/>
							<polygon class="st36" points="656.2,246.2 656.2,253.8 647.7,253.8 647.7,257.6 660.5,257.6 660.5,246.2 							"/>
							<polygon class="st36" points="634.9,253.8 626.4,253.8 626.4,246.2 622.1,246.2 622.1,257.6 634.9,257.6 							"/>
							<path class="st46" d="M629.8,223.4v8.8h2.2v-1.1h1.1v1.1h1.1v-1.1h1.1v2.2h1.1v-2.2h1.1v-7.7L629.8,223.4z M636.4,230h-5.5
								v-5.5h5.5V230z"/>
							<rect x="632" y="225.6" class="st46" width="3.3" height="3.3"/>
							<path class="st46" d="M645.2,223.4v7.7h-1.1v1.1h2.2v-1.1h1.1v1.1h1.1v-1.1h4.4v-7.7H645.2z M651.8,230h-5.5v-5.5h5.5V230z"
								/>
							<rect x="647.4" y="225.6" class="st46" width="3.3" height="3.3"/>
							<rect x="632" y="241" class="st46" width="3.3" height="3.3"/>
							<polygon class="st46" points="640.8,223.4 640.8,226.7 639.7,226.7 639.7,224.5 638.6,224.5 638.6,223.4 							"/>
							<polygon class="st46" points="644.1,224.5 644.1,225.6 643,225.6 643,226.7 641.9,226.7 641.9,223.4 643,223.4 643,224.5 
															"/>
							<rect x="643" y="226.7" class="st46" width="1.1" height="1.1"/>
							<polygon class="st46" points="641.9,227.8 641.9,228.9 640.8,228.9 640.8,230 639.7,230 639.7,228.9 638.6,228.9 
								638.6,227.8 							"/>
							<path class="st46" d="M641.9,233.3v-2.2h2.2v-2.2H643v1.1h-2.2v1.1h-1.1V230h-1.1v2.2h1.1v1.1h-1.1v-1.1h-1.1v2.2h1.1v2.2
								h-2.2v-1.1h1.1v-1.1h-2.2v2.2h-1.1v1.1h2.2v1.1h-2.2v-1.1h-1.1v1.1h-3.3v7.7h9.9v-1.1h-2.2v-1.1h1.1v-1.1h1.1v-1.1h-2.2v-2.2
								h1.1v1.1h1.1v-1.1h1.1v2.2h1.1v3.3h2.2v-2.2H643v-1.1h1.1V241h-2.2v-1.1h2.2v-5.5h-3.3v-1.1L641.9,233.3z M636.4,245.4h-5.5
								v-5.5h5.5V245.4z M638.6,238.8h-1.1v-1.1h1.1V238.8z M643,235.5v3.3h-3.3v-3.3H643z"/>
							<polygon class="st46" points="652.9,232.2 652.9,234.4 651.8,234.4 651.8,233.3 649.6,233.3 649.6,232.2 							"/>
							<rect x="648.5" y="233.3" class="st46" width="1.1" height="1.1"/>
							<polygon class="st46" points="652.9,235.5 652.9,236.6 651.8,236.6 651.8,237.7 650.7,237.7 650.7,235.5 649.6,235.5 
								649.6,234.4 651.8,234.4 651.8,235.5 							"/>
							<rect x="651.8" y="237.7" class="st46" width="1.1" height="1.1"/>
							<rect x="649.6" y="237.7" class="st46" width="1.1" height="1.1"/>
							<polygon class="st46" points="649.6,235.5 649.6,237.7 648.5,237.7 648.5,236.6 646.3,236.6 646.3,235.5 							"/>
							<rect x="645.2" y="236.6" class="st46" width="1.1" height="1.1"/>
							<rect x="644.1" y="237.7" class="st46" width="1.1" height="1.1"/>
							<polygon class="st46" points="648.5,238.8 648.5,241 647.4,241 647.4,239.9 646.3,239.9 646.3,241 645.2,241 645.2,238.8 
								646.3,238.8 646.3,237.7 647.4,237.7 647.4,238.8 							"/>
							<rect x="640.8" y="236.6" class="st46" width="1.1" height="1.1"/>
							<rect x="632" y="236.6" class="st46" width="1.1" height="1.1"/>
							<polygon class="st46" points="632,235.5 632,236.6 630.9,236.6 630.9,237.7 629.8,237.7 629.8,234.4 630.9,234.4 
								630.9,235.5 							"/>
							<polygon class="st46" points="635.3,233.3 635.3,234.4 634.2,234.4 634.2,235.5 633.1,235.5 633.1,234.4 630.9,234.4 
								630.9,233.3 632,233.3 632,232.2 633.1,232.2 633.1,233.3 							"/>
							<rect x="643" y="232.2" class="st46" width="1.1" height="1.1"/>
							<rect x="644.1" y="233.3" class="st46" width="2.2" height="1.1"/>
							<rect x="646.3" y="232.2" class="st46" width="1.1" height="1.1"/>
							<polygon class="st46" points="652.9,243.2 652.9,245.4 651.8,245.4 651.8,246.5 647.4,246.5 647.4,245.4 650.7,245.4 
								650.7,244.3 651.8,244.3 651.8,243.2 							"/>
							<polygon class="st46" points="652.9,239.9 652.9,242.1 651.8,242.1 651.8,241 650.7,241 650.7,243.2 649.6,243.2 
								649.6,244.3 648.5,244.3 648.5,243.2 646.3,243.2 646.3,242.1 649.6,242.1 649.6,239.9 							"/>
							<rect x="646.3" y="244.3" class="st46" width="1.1" height="1.1"/>
							<rect x="645.2" y="243.2" class="st46" width="1.1" height="1.1"/>
							<rect x="644.1" y="245.4" class="st46" width="1.1" height="1.1"/>
							<rect x="640.8" y="245.4" class="st46" width="1.1" height="1.1"/>
							<rect x="639.7" y="244.3" class="st46" width="1.1" height="1.1"/>
							<path class="st52" d="M457.5,79L330.6,53.7c-0.5-0.1-0.9-0.6-0.8-1.2c0.1-0.5,0.5-0.8,1-0.8h217.5c0.7,0,1.4,0.1,2,0.2
								l125.8,25.2c0.5,0.1,0.9,0.6,0.8,1.2c-0.1,0.5-0.5,0.8-1,0.8L457.5,79z"/>
							<path class="st36" d="M548.3,53.4c0.6,0,1.2,0.1,1.7,0.2l118.8,23.8H457.7L338,53.4H548.3z M548.3,50H330.8
								c-1.5,0-2.7,1.2-2.7,2.7c0,1.3,0.9,2.4,2.2,2.7L457,80.7c0.2,0,0.4,0.1,0.5,0.1h218.4c1.5,0,2.7-1.2,2.7-2.7
								c0-1.3-0.9-2.4-2.2-2.7L550.7,50.2C549.9,50.1,549.1,50,548.3,50L548.3,50z"/>
							<line class="st38" x1="500.7" y1="75.4" x2="400.6" y2="55.4"/>
							<polygon class="st53" points="500.7,75.4 488.1,73.2 475.6,70.7 450.6,65.7 425.6,60.7 413.1,58.2 400.6,55.4 413.2,57.5 
								425.7,60 450.7,65 475.7,70 488.2,72.5 							"/>
							<line class="st38" x1="606.1" y1="75.4" x2="506.1" y2="55.4"/>
							<polygon class="st53" points="606.1,75.4 593.5,73.2 581,70.7 556,65.7 531,60.7 518.5,58.2 506.1,55.4 518.7,57.5 531.2,60 
								556.2,65 581.2,70 593.7,72.5 							"/>
							<line class="st38" x1="542.9" y1="75.4" x2="442.8" y2="55.4"/>
							<polygon class="st53" points="542.9,75.4 530.3,73.2 517.8,70.7 492.8,65.7 467.8,60.7 455.3,58.2 442.8,55.4 455.4,57.5 
								467.9,60 492.9,65 517.9,70 530.4,72.5 							"/>
							<line class="st38" x1="585" y1="75.4" x2="485" y2="55.4"/>
							<polygon class="st53" points="585,75.4 572.5,73.2 560,70.7 534.9,65.7 509.9,60.7 497.4,58.2 485,55.4 497.6,57.5 510.1,60 
								535.1,65 560.1,70 572.6,72.5 							"/>
							<line class="st38" x1="627.2" y1="75.4" x2="527.2" y2="55.4"/>
							<polygon class="st53" points="627.2,75.4 614.6,73.2 602.1,70.7 577.1,65.7 552.1,60.7 539.6,58.2 527.2,55.4 539.7,57.5 
								552.2,60 577.3,65 602.3,70 614.8,72.5 							"/>
							<line class="st38" x1="479.6" y1="75.4" x2="379.6" y2="55.4"/>
							<polygon class="st53" points="479.6,75.4 467,73.2 454.5,70.7 429.5,65.7 404.5,60.7 392,58.2 379.6,55.4 392.1,57.5 
								404.6,60 429.6,65 454.6,70 467.2,72.5 							"/>
							<line class="st38" x1="521.8" y1="75.4" x2="421.7" y2="55.4"/>
							<polygon class="st53" points="521.8,75.4 509.2,73.2 496.7,70.7 471.7,65.7 446.7,60.7 434.2,58.2 421.7,55.4 434.3,57.5 
								446.8,60 471.8,65 496.8,70 509.3,72.5 							"/>
							<line class="st38" x1="563.9" y1="75.4" x2="463.9" y2="55.4"/>
							<polygon class="st53" points="563.9,75.4 551.4,73.2 538.9,70.7 513.9,65.7 488.8,60.7 476.3,58.2 463.9,55.4 476.5,57.5 
								489,60 514,65 539,70 551.5,72.5 							"/>
							<polygon class="st47" points="395.7,326.8 303.4,296.1 326.2,91.5 397.4,107.9 							"/>
							<path class="st15" d="M276.3,355.4l27.9-279.3c1.1-11,10.9-19.1,21.9-18c0.7,0.1,1.4,0.2,2.1,0.3l107,21.4
								c4.5,0.9,7.4,5.2,6.5,9.7c-0.3,1.6-1.1,3.1-2.3,4.2l-7.1,7.1c-5.9,5.9-9.3,13.9-9.3,22.3v290.7L423,414L276.3,355.4z
								 M299.7,298.5l99.4,33.1l1.8-226.4l-77.7-17.8L299.7,298.5z"/>
							<path class="st36" d="M324.2,61.4c1.1,0,2.2,0.1,3.3,0.3l107,21.4c2.6,0.5,4.3,3.1,3.8,5.7c-0.2,0.9-0.6,1.8-1.3,2.5
								l-7.1,7.1c-6.6,6.5-10.3,15.5-10.3,24.8v285.9L280,353.2l27.7-276.7C308.5,67.9,315.6,61.4,324.2,61.4z M402.5,336.3l0.1-9.4
								l1.7-219l0-5.5l-5.4-1.2l-71.3-16.3l-7.5-1.7l-0.9,7.6l-22.7,204.6l-0.6,5.5l5.2,1.7l92.3,30.8L402.5,336.3L402.5,336.3z
								 M324.2,54.6c-12.1,0-22.2,9.2-23.3,21.2l-28.2,281.8l148.9,59.5c0.4,0.2,0.9,0.3,1.3,0.3c2,0,3.5-1.6,3.6-3.6V123.1
								c0-7.5,3-14.6,8.3-19.9l7.1-7.1c4.6-4.6,4.6-11.9,0-16.5c-1.6-1.6-3.7-2.7-6-3.2L328.8,55C327.3,54.7,325.8,54.6,324.2,54.6
								L324.2,54.6z M395.7,326.8l-92.3-30.8l22.7-204.6l71.3,16.3L395.7,326.8L395.7,326.8z"/>
							<path class="st36" d="M413.9,414.1l11.8-6.9l8.7,7.1c2,0.8,12.5,4.8,10.3,4.8h-14.3c-2.6,0-5.3-0.5-7.7-1.5L413.9,414.1z"/>
							<rect x="443.4" y="78.6" class="st36" width="15.9" height="4.6"/>
						</g>
					</g>
				</g>
			</g>
		</g>
	</g>
</g>
<g>
	<g>
		
			<ellipse transform="matrix(0.2298 -0.9732 0.9732 0.2298 -62.4485 295.3328)" class="st54" cx="155.4" cy="187.1" rx="46.8" ry="46.8"/>
		<path class="st36" d="M155.4,144.4c23.6,0,42.8,19.2,42.8,42.8s-19.2,42.8-42.8,42.8s-42.8-19.2-42.8-42.8
			S131.8,144.4,155.4,144.4 M155.4,136.4c-28,0-50.8,22.7-50.8,50.8c0,28,22.7,50.8,50.8,50.8s50.8-22.7,50.8-50.8
			C206.1,159.1,183.4,136.4,155.4,136.4L155.4,136.4z"/>
	</g>
	<line class="st55" x1="139.2" y1="187.1" x2="171.6" y2="187.1"/>
</g>
</svg>
