<svg xmlns="http://www.w3.org/2000/svg" viewBox="0 0 286.98 132.77"><defs><style>.cls-1{fill:#ff1744;}.cls-2{fill:#fff;}.cls-3{fill:#1a1423;}</style></defs><title>Fichier 2</title><g id="Calque_2" data-name="Calque 2"><g id="section1-accueil"><rect class="cls-1" width="286.98" height="132.77"/><g id="logoVAB"><path class="cls-2" d="M24.82,102.51a.83.83,0,0,0-.8.51l-3.46,7.69L17.1,103a.85.85,0,0,0-.34-.38.91.91,0,0,0-.48-.13,1.12,1.12,0,0,0-.7.24.76.76,0,0,0-.3.62.94.94,0,0,0,.09.36l4.15,9a1,1,0,0,0,.41.45,1.27,1.27,0,0,0,.6.15,1.2,1.2,0,0,0,.59-.15,1,1,0,0,0,.42-.45l4.17-9a1,1,0,0,0,.09-.38.74.74,0,0,0-.3-.6,1.09,1.09,0,0,0-.68-.24Z"/><path class="cls-2" d="M32.55,99.31a.86.86,0,0,0-.64.3L30.54,101a.48.48,0,0,0-.17.33.42.42,0,0,0,.14.3.48.48,0,0,0,.33.12.53.53,0,0,0,.24-.06l1.7-1a1,1,0,0,0,.38-.32.6.6,0,0,0,.13-.37.73.73,0,0,0-.74-.72Zm.86,3.29H28a1,1,0,0,0-.69.24.92.92,0,0,0-.24.68v8.77a.91.91,0,0,0,.24.68,1,1,0,0,0,.69.24h5.43a1.06,1.06,0,0,0,.68-.19.68.68,0,0,0,.24-.56.73.73,0,0,0-.24-.58,1,1,0,0,0-.68-.2H28.94v-3.1h4.17a1.06,1.06,0,0,0,.68-.2.68.68,0,0,0,.24-.56.69.69,0,0,0-.24-.57,1.06,1.06,0,0,0-.68-.19H28.94v-2.92h4.47a1,1,0,0,0,.68-.21.71.71,0,0,0,.24-.58.66.66,0,0,0-.24-.55,1.06,1.06,0,0,0-.68-.2Z"/><path class="cls-2" d="M44.2,102.53a.9.9,0,0,0-.69.26,1,1,0,0,0-.25.7V107H37.82v-3.55a1,1,0,0,0-.26-.7.94.94,0,0,0-.7-.26.9.9,0,0,0-.69.26,1,1,0,0,0-.26.7v8.83a1,1,0,0,0,.26.71,1,1,0,0,0,1.39,0,1,1,0,0,0,.26-.71v-3.71h5.44v3.71a1,1,0,0,0,.25.71.9.9,0,0,0,.69.27.93.93,0,0,0,.69-.27,1,1,0,0,0,.26-.71v-8.83a1,1,0,0,0-.25-.7.92.92,0,0,0-.7-.26Z"/><path class="cls-2" d="M48.4,102.53a.94.94,0,0,0-.7.26,1,1,0,0,0-.26.7v8.83a1,1,0,0,0,.26.71.94.94,0,0,0,.7.27,1,1,0,0,0,.72-.27,1,1,0,0,0,.26-.71v-8.83a.9.9,0,0,0-1-1Z"/><path class="cls-2" d="M56.41,102.47a5.34,5.34,0,0,0-2.69.66A4.49,4.49,0,0,0,52,105a7.13,7.13,0,0,0,0,5.77,4.58,4.58,0,0,0,1.77,1.9,5.34,5.34,0,0,0,2.69.66,5.77,5.77,0,0,0,1.87-.3,4.69,4.69,0,0,0,1.55-.85.8.8,0,0,0,.27-.32,1,1,0,0,0,.07-.4.89.89,0,0,0-.18-.56.53.53,0,0,0-.43-.22.83.83,0,0,0-.32.06,2.1,2.1,0,0,0-.3.15,5.85,5.85,0,0,1-1.24.66,3.6,3.6,0,0,1-1.2.2,2.91,2.91,0,0,1-2.37-1,5.52,5.52,0,0,1,0-5.76,2.88,2.88,0,0,1,2.37-1,4,4,0,0,1,1.23.18,4.49,4.49,0,0,1,1.21.67,1,1,0,0,0,.62.22.54.54,0,0,0,.43-.23.87.87,0,0,0,.18-.56,1,1,0,0,0-.07-.4.87.87,0,0,0-.27-.32,5.08,5.08,0,0,0-1.55-.85,5.77,5.77,0,0,0-1.87-.29Z"/><path class="cls-2" d="M69.73,102.53a.9.9,0,0,0-.69.26,1,1,0,0,0-.26.7V109a2.91,2.91,0,0,1-.65,2.06,2.43,2.43,0,0,1-1.88.71,2.47,2.47,0,0,1-1.89-.7,2.92,2.92,0,0,1-.65-2.07v-5.54a1,1,0,0,0-.26-.7,1,1,0,0,0-1.38,0,1,1,0,0,0-.26.7v5.43a4.45,4.45,0,1,0,8.87,0v-5.43a1,1,0,0,0-.26-.7.9.9,0,0,0-.69-.26Z"/><path class="cls-2" d="M73.87,102.53a.92.92,0,0,0-.7.26.94.94,0,0,0-.27.7v8.82a.86.86,0,0,0,.25.66.9.9,0,0,0,.67.24h5.26c.6,0,.9-.26.9-.79s-.3-.8-.9-.8H74.85v-8.13a.94.94,0,0,0-.27-.7.93.93,0,0,0-.71-.26Z"/><path class="cls-2" d="M87.63,102.6H82.19a.92.92,0,0,0-.68.24.89.89,0,0,0-.25.68v8.77a.88.88,0,0,0,.25.68.92.92,0,0,0,.68.24h5.44a1,1,0,0,0,.67-.19.68.68,0,0,0,.24-.56.73.73,0,0,0-.24-.58,1,1,0,0,0-.67-.2H83.15v-3.1h4.17a1.06,1.06,0,0,0,.68-.2.68.68,0,0,0,.24-.56.69.69,0,0,0-.24-.57,1.06,1.06,0,0,0-.68-.19H83.15v-2.92h4.48a1,1,0,0,0,.67-.21.71.71,0,0,0,.24-.58.66.66,0,0,0-.24-.55,1,1,0,0,0-.67-.2Z"/><path class="cls-2" d="M98.64,102.51a1.11,1.11,0,0,0-.59.16.94.94,0,0,0-.42.46l-4.15,8.92a.92.92,0,0,0-.09.39.71.71,0,0,0,.29.59,1,1,0,0,0,.63.24.9.9,0,0,0,.46-.12.88.88,0,0,0,.33-.4l.91-2h5.3l.9,2a.88.88,0,0,0,.33.4.89.89,0,0,0,.45.12.94.94,0,0,0,.64-.24.73.73,0,0,0,.28-.59.92.92,0,0,0-.09-.39l-4.17-8.92a1,1,0,0,0-.41-.46,1.17,1.17,0,0,0-.6-.16Zm-2,6.71,2-4.47,2,4.47Z"/><path class="cls-2" d="M113.15,102.53a.9.9,0,0,0-.69.26,1,1,0,0,0-.26.7V109a3,3,0,0,1-.64,2.06,2.89,2.89,0,0,1-3.78,0,3,3,0,0,1-.65-2.07v-5.54a1,1,0,0,0-.25-.7.94.94,0,0,0-.7-.26.9.9,0,0,0-.69.26,1,1,0,0,0-.26.7v5.43a4.45,4.45,0,1,0,8.87,0v-5.43a1,1,0,0,0-.26-.7.9.9,0,0,0-.69-.26Z"/><path class="cls-2" d="M123.51,102.6h-7.42c-.61,0-.91.27-.91.8s.3.8.91.8h2.74v8.12a.91.91,0,0,0,.26.7,1.06,1.06,0,0,0,1.41,0,.91.91,0,0,0,.27-.7V104.2h2.74c.6,0,.9-.27.9-.8s-.3-.8-.9-.8Z"/><path class="cls-2" d="M129.65,102.47a5.3,5.3,0,0,0-2.7.66A4.33,4.33,0,0,0,125.2,105a6.36,6.36,0,0,0-.61,2.88,6.28,6.28,0,0,0,.62,2.89,4.47,4.47,0,0,0,1.75,1.9,5.77,5.77,0,0,0,5.36,0,4.47,4.47,0,0,0,1.75-1.9,6.41,6.41,0,0,0,.62-2.89,6.5,6.5,0,0,0-.61-2.88,4.39,4.39,0,0,0-1.75-1.89,5.22,5.22,0,0,0-2.68-.66Zm0,9.33a2.81,2.81,0,0,1-2.3-1,5.49,5.49,0,0,1,0-5.77,3.12,3.12,0,0,1,4.58,0,5.49,5.49,0,0,1,0,5.77,2.79,2.79,0,0,1-2.28,1Z"/><path class="cls-2" d="M144.68,102.53a.82.82,0,0,0-.65.26,1,1,0,0,0-.25.7V110l-5.48-7.12a.84.84,0,0,0-.72-.34.89.89,0,0,0-.68.26,1,1,0,0,0-.25.7v8.83a1,1,0,0,0,.24.71.94.94,0,0,0,1.32,0,1,1,0,0,0,.24-.71v-6.51L144,113a.85.85,0,0,0,.73.34.87.87,0,0,0,.66-.27.94.94,0,0,0,.26-.71v-8.83a1,1,0,0,0-.25-.7.85.85,0,0,0-.67-.26Z"/><path class="cls-2" d="M152.61,102.47a5.28,5.28,0,0,0-2.69.66,4.33,4.33,0,0,0-1.75,1.89,7.13,7.13,0,0,0,0,5.77,4.56,4.56,0,0,0,1.76,1.9,5.77,5.77,0,0,0,5.36,0,4.53,4.53,0,0,0,1.75-1.9,6.41,6.41,0,0,0,.62-2.89,6.5,6.5,0,0,0-.61-2.88,4.39,4.39,0,0,0-1.75-1.89,5.26,5.26,0,0,0-2.69-.66Zm0,9.33a2.8,2.8,0,0,1-2.29-1,5.49,5.49,0,0,1,0-5.77,2.79,2.79,0,0,1,2.29-1,2.76,2.76,0,0,1,2.28,1,5.49,5.49,0,0,1,0,5.77,2.77,2.77,0,0,1-2.28,1Z"/><path class="cls-2" d="M169,102.53a1,1,0,0,0-.88.64l-3.33,6.37-3.34-6.37a1,1,0,0,0-.92-.64.87.87,0,0,0-.67.26,1,1,0,0,0-.25.7v8.91a.93.93,0,0,0,.23.66.91.91,0,0,0,1.24,0,.88.88,0,0,0,.23-.65v-6.13l2.58,4.78a1.36,1.36,0,0,0,.39.49.82.82,0,0,0,.5.15.76.76,0,0,0,.49-.16,1.4,1.4,0,0,0,.39-.48l2.56-4.85v6.2a.93.93,0,0,0,.23.66.79.79,0,0,0,.61.24.86.86,0,0,0,.64-.24.89.89,0,0,0,.24-.66v-8.91a1,1,0,0,0-.26-.7.88.88,0,0,0-.68-.26Z"/><path class="cls-2" d="M178.64,102.6H173.2a.92.92,0,0,0-.68.24.89.89,0,0,0-.25.68v8.77a.88.88,0,0,0,.25.68.92.92,0,0,0,.68.24h5.44a1,1,0,0,0,.67-.19.66.66,0,0,0,.25-.56.7.7,0,0,0-.25-.58,1,1,0,0,0-.67-.2h-4.47v-3.1h4.17a1,1,0,0,0,.67-.2.68.68,0,0,0,.24-.56.69.69,0,0,0-.24-.57,1,1,0,0,0-.67-.19h-4.17v-2.92h4.47a1,1,0,0,0,.67-.21.69.69,0,0,0,.25-.58.64.64,0,0,0-.25-.55,1,1,0,0,0-.67-.2Z"/><path class="cls-3" d="M193.17,108.67a2.72,2.72,0,0,1,.5,1.65,2.53,2.53,0,0,1-1,2.12,4.16,4.16,0,0,1-2.67.77h-3.88a1,1,0,0,1-.69-.24.91.91,0,0,1-.25-.68v-8.77a.93.93,0,0,1,.25-.68,1,1,0,0,1,.69-.24h3.73a4.21,4.21,0,0,1,2.6.73,2.46,2.46,0,0,1,.94,2,2.41,2.41,0,0,1-.45,1.46,2.5,2.5,0,0,1-1.22.9A2.6,2.6,0,0,1,193.17,108.67Zm-6.06-1.6h2.45c1.34,0,2-.49,2-1.49a1.28,1.28,0,0,0-.5-1.11,2.57,2.57,0,0,0-1.51-.36h-2.45Zm4.24,4.26a1.37,1.37,0,0,0,.49-1.17,1.45,1.45,0,0,0-.49-1.19,2.46,2.46,0,0,0-1.53-.39h-2.71v3.13h2.71A2.49,2.49,0,0,0,191.35,111.33Z"/><path class="cls-3" d="M197.53,112.69a4.53,4.53,0,0,1-1.75-1.9,6.41,6.41,0,0,1-.62-2.89,6.5,6.5,0,0,1,.61-2.88,4.35,4.35,0,0,1,1.76-1.89,5.81,5.81,0,0,1,5.38,0,4.37,4.37,0,0,1,1.74,1.89,6.36,6.36,0,0,1,.61,2.88,6.28,6.28,0,0,1-.62,2.89,4.47,4.47,0,0,1-1.75,1.9,5.77,5.77,0,0,1-5.36,0Zm5-1.9a5.49,5.49,0,0,0,0-5.77,3.12,3.12,0,0,0-4.58,0,5.49,5.49,0,0,0,0,5.77,3.1,3.1,0,0,0,4.58,0Z"/><path class="cls-3" d="M215.89,112.52a.72.72,0,0,1-.28.57,1,1,0,0,1-.66.23,1.07,1.07,0,0,1-.46-.11,1.06,1.06,0,0,1-.36-.34l-2-3a1.92,1.92,0,0,0-.64-.68,1.71,1.71,0,0,0-.88-.2h-1.47v3.37a1,1,0,0,1-.26.72.9.9,0,0,1-.69.26.94.94,0,0,1-.7-.26,1,1,0,0,1-.26-.72v-8.8a.89.89,0,0,1,.25-.68.92.92,0,0,1,.68-.24h3.76a4.1,4.1,0,0,1,2.75.81,2.87,2.87,0,0,1,.94,2.32,2.93,2.93,0,0,1-.7,2,3.33,3.33,0,0,1-2,1,1.92,1.92,0,0,1,.77.38,3.31,3.31,0,0,1,.65.75l1.37,2.09A1,1,0,0,1,215.89,112.52Zm-2.64-5.47a1.55,1.55,0,0,0,.52-1.27,1.51,1.51,0,0,0-.52-1.27,2.57,2.57,0,0,0-1.61-.4h-2.53v3.35h2.53A2.51,2.51,0,0,0,213.25,107.05Z"/><path class="cls-3" d="M217.93,113a.88.88,0,0,1-.25-.68v-8.77a.89.89,0,0,1,.25-.68.92.92,0,0,1,.68-.24h3a5.58,5.58,0,0,1,4,1.39,6,6,0,0,1,0,7.83,5.54,5.54,0,0,1-4,1.39h-3A.92.92,0,0,1,217.93,113Zm3.54-1.34q3.66,0,3.66-3.73t-3.66-3.72h-1.85v7.45Z"/><path class="cls-3" d="M229.28,113a.88.88,0,0,1-.25-.68v-8.77a.89.89,0,0,1,.25-.68.92.92,0,0,1,.68-.24h5.43a1.06,1.06,0,0,1,.68.2.66.66,0,0,1,.24.55.71.71,0,0,1-.24.58,1,1,0,0,1-.68.21h-4.47v2.92h4.17a1.06,1.06,0,0,1,.68.19.69.69,0,0,1,.24.57.68.68,0,0,1-.24.56,1.06,1.06,0,0,1-.68.2h-4.17v3.1h4.47a1,1,0,0,1,.68.2.73.73,0,0,1,.24.58.68.68,0,0,1-.24.56,1.06,1.06,0,0,1-.68.19H230A.92.92,0,0,1,229.28,113Z"/><path class="cls-3" d="M238.13,113a.89.89,0,0,1-.24-.66v-8.82a.94.94,0,0,1,.27-.7.91.91,0,0,1,.7-.26.94.94,0,0,1,.71.26,1,1,0,0,1,.26.7v8.13h4.23c.6,0,.91.26.91.8s-.31.79-.91.79h-5.25A.92.92,0,0,1,238.13,113Z"/><path class="cls-3" d="M255.86,112.44a.73.73,0,0,1-.28.59.94.94,0,0,1-.64.24.89.89,0,0,1-.45-.12.88.88,0,0,1-.33-.4l-.9-2H248l-.9,2a.88.88,0,0,1-.33.4.94.94,0,0,1-.47.12,1,1,0,0,1-.63-.24.74.74,0,0,1-.29-.59.92.92,0,0,1,.09-.39l4.16-8.92a.92.92,0,0,1,.41-.46,1.19,1.19,0,0,1,1.19,0,1,1,0,0,1,.41.46l4.17,8.92A.92.92,0,0,1,255.86,112.44Zm-7.24-3.22h4l-2-4.47Z"/><path class="cls-3" d="M257.59,113a1,1,0,0,1-.27-.71v-8.83a.94.94,0,0,1,.27-.7.91.91,0,0,1,.7-.26.9.9,0,0,1,1,1v8.83a.91.91,0,0,1-1,1A.91.91,0,0,1,257.59,113Z"/><path class="cls-3" d="M263,113a4.76,4.76,0,0,1-1.67-.84.82.82,0,0,1-.35-.72.84.84,0,0,1,.19-.55.55.55,0,0,1,.44-.23,1.23,1.23,0,0,1,.62.21,4.51,4.51,0,0,0,1.35.68,5.52,5.52,0,0,0,1.57.21,3,3,0,0,0,1.68-.39,1.23,1.23,0,0,0,.59-1.12,1,1,0,0,0-.55-.88,7.34,7.34,0,0,0-1.83-.59,10.86,10.86,0,0,1-2.15-.66,3.15,3.15,0,0,1-1.25-1,2.5,2.5,0,0,1-.42-1.49,2.81,2.81,0,0,1,.53-1.67,3.53,3.53,0,0,1,1.46-1.15,5.17,5.17,0,0,1,2.12-.41,5.29,5.29,0,0,1,3.51,1.14,1.07,1.07,0,0,1,.27.32.82.82,0,0,1,.09.4.87.87,0,0,1-.19.55.56.56,0,0,1-.45.24.76.76,0,0,1-.27-.05,1.51,1.51,0,0,1-.34-.17,5.2,5.2,0,0,0-1.2-.67,4.17,4.17,0,0,0-1.42-.21,2.78,2.78,0,0,0-1.62.41,1.32,1.32,0,0,0-.59,1.15,1.06,1.06,0,0,0,.52,1,6.17,6.17,0,0,0,1.79.62,11.65,11.65,0,0,1,2.18.67,3.19,3.19,0,0,1,1.28.94,2.3,2.3,0,0,1,.44,1.43,2.72,2.72,0,0,1-.52,1.65,3.41,3.41,0,0,1-1.46,1.11,5.37,5.37,0,0,1-2.16.4A7.83,7.83,0,0,1,263,113Z"/><path class="cls-3" d="M144.21,13.4a6.87,6.87,0,0,1,4.4,1.56,4.82,4.82,0,0,1,2,3.92,6.32,6.32,0,0,1-.58,2.45L122.86,79.71a6.38,6.38,0,0,1-2.7,2.88,7.79,7.79,0,0,1-7.74,0,6.35,6.35,0,0,1-2.69-2.88l-27-58.38A6.2,6.2,0,0,1,82.11,19a4.89,4.89,0,0,1,2-4,7.21,7.21,0,0,1,4.55-1.56,6.07,6.07,0,0,1,3.09.83,5.52,5.52,0,0,1,2.2,2.5l22.53,50.05,22.53-50A5.34,5.34,0,0,1,144.21,13.4Z"/><path class="cls-3" d="M211.79,78A4.86,4.86,0,0,1,210,81.86a6.15,6.15,0,0,1-4.16,1.57A5.44,5.44,0,0,1,200.73,80l-5.88-13.13H160.37L154.5,80a5.62,5.62,0,0,1-2.16,2.59,5.7,5.7,0,0,1-3,.84,6.21,6.21,0,0,1-4.11-1.57A4.82,4.82,0,0,1,143.33,78a6.08,6.08,0,0,1,.59-2.55l27-58.08a6.42,6.42,0,0,1,2.69-3,7.85,7.85,0,0,1,7.74,0,6.39,6.39,0,0,1,2.7,3l27.13,58.08A6.06,6.06,0,0,1,211.79,78Zm-47.11-21h25.86L177.61,28Z"/><path class="cls-3" d="M269.54,53.46a17.56,17.56,0,0,1,3.28,10.77q0,8.82-6.32,13.81t-17.39,5H223.84a6.13,6.13,0,0,1-4.45-1.57,5.85,5.85,0,0,1-1.62-4.41V20a5.87,5.87,0,0,1,1.62-4.41A6.13,6.13,0,0,1,223.84,14h24.29q10.78,0,16.9,4.75T271.15,32a15.83,15.83,0,0,1-2.89,9.5,16.48,16.48,0,0,1-8,5.87A16.74,16.74,0,0,1,269.54,53.46ZM230.11,43.07h16q13,0,13-9.69c0-3.27-1.07-5.68-3.23-7.25s-5.42-2.35-9.79-2.35h-16Zm27.62,27.72q3.13-2.45,3.14-7.64t-3.19-7.73q-3.18-2.55-9.94-2.55H230.11V73.24h17.63Q254.6,73.24,257.73,70.79Z"/><path class="cls-2" d="M13.8,19.84a28.75,28.75,0,0,1,2.84,4.29l9,44.28c.46,2,1.33,5.63,4.73,7h0l.21.07,2.72,1a6,6,0,0,0,8.93,3.8A6,6,0,0,0,53.86,79h1.83a6,6,0,0,0,7.64,1.26A6,6,0,0,0,75,78.91c2.37-.2,4-.91,5.13-2.18s1.49-3.18,1.1-5.53l-9-46.66c-.79-3.56-2.79-6.11-5.35-7.06h0L58,14.36h0a6.53,6.53,0,0,0-2.2-.39H17.44c-3.39,0-4.91.42-5.44,1.47C11.4,16.67,12.4,18,13.8,19.84Zm46.87-2.77H26.16c-2.82,0-4.34.29-5.08,1l-5.94-2.32c.56-.05,1.3-.09,2.3-.09H55.81l.48,0,.15,0,.32.05.17,0,.28.07.16.05.09,0h0l.07,0,3.14,1.12ZM41.94,77.29a6,6,0,0,1-2.18-.37l-.06,0a4.51,4.51,0,0,1-1.57-1A6,6,0,0,1,37,74.2a12.67,12.67,0,0,1-.8-2.32L36,71.14l-.22-1.07-4.46-21.9h0l-1.14-5.61L27,26.66l-.05-.09a29.51,29.51,0,0,0-3.05-4.65c-.73-1-1.72-2.27-1.63-2.64,0-.05.44-.54,3.93-.54H64.53a5.08,5.08,0,0,1,1.69.29l.06,0c2.32.87,3.69,3.41,4.22,5.83l4.8,24.76.33,1.67h0l3.9,20.18a5,5,0,0,1-.73,4.16,5.58,5.58,0,0,1-3.87,1.58c-.42,0-.88.06-1.36.06ZM13.86,17.05l6.72,2.62a9.53,9.53,0,0,0,1.94,3.26,27.51,27.51,0,0,1,2.84,4.29L28.55,42.9l5.81,28.53v.07A19.46,19.46,0,0,0,35,73.79a3.39,3.39,0,0,0,.15.41h0a8.14,8.14,0,0,0,.63,1.29l-4-1.45c-3-.65-3.84-3.3-4.48-6l-9-44.48-.05-.1a29.74,29.74,0,0,0-3-4.65C14.71,18.27,14.19,17.59,13.86,17.05Z"/></g></g></g></svg>