<svg xmlns="http://www.w3.org/2000/svg" viewBox="0 0 364.78 364.78"><defs><style>.cls-1{fill:#1a1423;}.cls-2{fill:#fff;}.cls-3{fill:#ff1744;}</style></defs><title>Fichier 8</title><g id="Calque_2" data-name="Calque 2"><g id="Calque_1-2" data-name="Calque 1"><rect class="cls-1" width="364.78" height="364.78" rx="37.89"/><path class="cls-2" d="M113.34,61.83a52.24,52.24,0,0,1,5.19,7.84L135,150.59c.85,3.6,2.42,10.28,8.63,12.71l0,0,.38.13,5,1.76a11,11,0,0,0,16.32,6.95,11,11,0,0,0,21.22-2.3h3.34a11,11,0,0,0,14,2.3,11,11,0,0,0,21.23-2.39c4.33-.36,7.41-1.67,9.37-4s2.73-5.82,2-10.11L220,70.42c-1.44-6.51-5.09-11.17-9.78-12.9h0l-16-5.69h0a12,12,0,0,0-4-.7H120c-6.19,0-9,.75-9.94,2.68C109,56,110.79,58.47,113.34,61.83ZM199,56.77H135.93c-5.15,0-7.94.53-9.28,1.82L115.8,54.36c1-.1,2.37-.17,4.19-.17H190.1c.3,0,.6,0,.89,0l.28,0,.57.08.31.07.52.13.29.09.16,0h0l.13,0,5.72,2Zm-34.22,110a11.41,11.41,0,0,1-4-.67l-.11,0a8.28,8.28,0,0,1-2.87-1.88,10.77,10.77,0,0,1-2.08-3.05,23,23,0,0,1-1.47-4.24c-.12-.45-.23-.91-.34-1.36l-.4-2-8.14-40h0l-2.08-10.25-5.91-29-.1-.18a54.32,54.32,0,0,0-5.56-8.49c-1.33-1.75-3.15-4.14-3-4.83.06-.08.82-1,7.19-1h70.12a9,9,0,0,1,3.08.53l.1,0C213.48,62,216,66.63,217,71l8.77,45.24.59,3.06h0l7.14,36.87c.55,3.34.1,5.9-1.33,7.6s-3.75,2.58-7.08,2.89c-.78.07-1.61.11-2.5.11ZM113.45,56.73l12.29,4.79c.32,1.69,1.76,3.59,3.55,6a51.6,51.6,0,0,1,5.18,7.83L140.3,104l10.61,52.14,0,.13a40.75,40.75,0,0,0,1.18,4.19l.28.75h0a15.06,15.06,0,0,0,1.14,2.36l-7.38-2.65c-5.4-1.19-7-6-8.18-10.95L121.44,68.66l-.09-.18A53.61,53.61,0,0,0,115.78,60C115,59,114.06,57.72,113.45,56.73Z"/><path class="cls-3" d="M136.86,217.5a9.41,9.41,0,0,1,6,2.14,6.6,6.6,0,0,1,2.68,5.37,8.58,8.58,0,0,1-.8,3.35l-37.15,79.93a8.66,8.66,0,0,1-3.69,3.95,10.65,10.65,0,0,1-10.59,0,8.71,8.71,0,0,1-3.69-3.95l-37-79.93a8.37,8.37,0,0,1-.81-3.22,6.69,6.69,0,0,1,2.75-5.5,9.86,9.86,0,0,1,6.24-2.14A8.2,8.2,0,0,1,65,218.64a7.57,7.57,0,0,1,3,3.42L98.9,290.59l30.85-68.53A7.32,7.32,0,0,1,136.86,217.5Z"/><path class="cls-3" d="M229.4,306a6.67,6.67,0,0,1-2.48,5.23,8.48,8.48,0,0,1-5.7,2.14,7.66,7.66,0,0,1-4-1.14,7.58,7.58,0,0,1-2.95-3.55l-8-18H159l-8.05,18a7.52,7.52,0,0,1-2.95,3.55,7.83,7.83,0,0,1-4.15,1.14,8.55,8.55,0,0,1-5.64-2.14,6.58,6.58,0,0,1-2.54-5.23,8.21,8.21,0,0,1,.8-3.49l37-79.52a8.72,8.72,0,0,1,3.69-4.1,10.73,10.73,0,0,1,10.6,0,8.72,8.72,0,0,1,3.69,4.1l37.14,79.52A8.23,8.23,0,0,1,229.4,306Zm-64.51-28.7H200.3l-17.71-39.83Z"/><path class="cls-3" d="M308.46,272.35A24,24,0,0,1,313,287.1q0,12.07-8.65,18.91t-23.8,6.84H245.9a8.38,8.38,0,0,1-6.1-2.15,8,8,0,0,1-2.22-6V226.48a8,8,0,0,1,2.22-6,8.38,8.38,0,0,1,6.1-2.15h33.26q14.74,0,23.13,6.51T310.67,243a21.73,21.73,0,0,1-3.95,13,22.65,22.65,0,0,1-10.93,8A22.87,22.87,0,0,1,308.46,272.35Zm-54-14.22h21.86q17.84,0,17.84-13.28,0-6.69-4.43-9.92t-13.41-3.22H254.48Zm37.82,37.95q4.29-3.34,4.29-10.46T292.23,275q-4.35-3.48-13.61-3.49H254.48v27.9h24.14Q288,299.44,292.3,296.08Z"/></g></g></svg>