<svg xmlns="http://www.w3.org/2000/svg" viewBox="0 0 37.5 50"><defs><style>.cls-1{fill:#fff;}.cls-2{fill:#1a1423;}</style></defs><title>fav-marker</title><g id="Calque_2" data-name="Calque 2"><g id="mes_favoris_pop-up" data-name="mes favoris + pop-up"><ellipse class="cls-1" cx="19.04" cy="19" rx="16.21" ry="16.88"/><path class="cls-2" d="M18.75,0A18.74,18.74,0,0,0,0,18.75C0,26.31,2.63,28.42,16.82,49a2.35,2.35,0,0,0,3.86,0C34.87,28.42,37.5,26.31,37.5,18.75A18.74,18.74,0,0,0,18.75,0ZM28.4,29.91a1.74,1.74,0,0,1-2.53,1.83L18.75,28l-7.12,3.74A1.74,1.74,0,0,1,9.1,29.91L10.46,22,4.71,16.37a1.74,1.74,0,0,1,1-3l8-1.16L17.19,5a1.74,1.74,0,0,1,3.12,0l3.56,7.22,8,1.16a1.74,1.74,0,0,1,1,3L27,22Z"/></g></g></svg>