<svg xmlns="http://www.w3.org/2000/svg" viewBox="0 0 142.15 142.15"><defs><style>.cls-1{fill:#1a1423;}</style></defs><title>Fichier 9</title><g id="Calque_2" data-name="Calque 2"><g id="parking"><g id="QR-Code"><path class="cls-1" d="M0,0V54.15H13.54V47.38h6.77v6.77h6.77V47.38h6.77V60.92h6.77V47.38h6.76V0ZM40.62,40.62H6.77V6.77H40.62Z"/><rect class="cls-1" x="13.54" y="13.54" width="20.31" height="20.31"/><path class="cls-1" d="M94.77,0V47.38H88v6.77h13.54V47.38h6.77v6.77h6.77V47.38h27.07V0Zm40.61,40.62H101.54V6.77h33.84Z"/><rect class="cls-1" x="108.31" y="13.54" width="20.31" height="20.31"/><rect class="cls-1" x="13.54" y="108.31" width="20.31" height="20.31"/><polygon class="cls-1" points="67.69 0 67.69 20.31 60.92 20.31 60.92 6.77 54.15 6.77 54.15 0 67.69 0"/><polygon class="cls-1" points="88 6.77 88 13.54 81.23 13.54 81.23 20.31 74.46 20.31 74.46 0 81.23 0 81.23 6.77 88 6.77"/><rect class="cls-1" x="81.23" y="20.31" width="6.77" height="6.77"/><polygon class="cls-1" points="74.46 27.08 74.46 33.85 67.69 33.85 67.69 40.62 60.92 40.62 60.92 33.85 54.15 33.85 54.15 27.08 74.46 27.08"/><path class="cls-1" d="M74.46,60.92V47.38H88V33.85H81.23v6.77H67.69v6.76H60.92V40.62H54.15V54.15h6.77v6.77H54.15V54.15H47.38V67.69h6.77V81.23H40.62V74.46h6.76V67.69H33.85V81.23H27.08V88H40.62v6.77H27.08V88H20.31v6.77H0v47.38H60.92v-6.77H47.38v-6.77h6.77v-6.76h6.77v-6.77H47.38V101.54h6.77v6.77h6.77v-6.77h6.77v13.54h6.77v20.3H88V121.85H81.23v-6.77H88v-6.77H74.46v-6.77H88V67.69H67.69V60.92ZM40.62,135.38H6.77V101.54H40.62ZM54.15,94.77H47.38V88h6.77ZM81.23,74.46V94.77H60.92V74.46Z"/><polygon class="cls-1" points="142.15 54.15 142.15 67.69 135.38 67.69 135.38 60.92 121.85 60.92 121.85 54.15 142.15 54.15"/><rect class="cls-1" x="115.08" y="60.92" width="6.77" height="6.77"/><polygon class="cls-1" points="142.15 74.46 142.15 81.23 135.38 81.23 135.38 88 128.62 88 128.62 74.46 121.85 74.46 121.85 67.69 135.38 67.69 135.38 74.46 142.15 74.46"/><rect class="cls-1" x="135.38" y="88" width="6.77" height="6.77"/><rect class="cls-1" x="121.85" y="88" width="6.77" height="6.77"/><polygon class="cls-1" points="121.85 74.46 121.85 88 115.08 88 115.08 81.23 101.54 81.23 101.54 74.46 121.85 74.46"/><rect class="cls-1" x="94.77" y="81.23" width="6.77" height="6.77"/><rect class="cls-1" x="88" y="88" width="6.77" height="6.77"/><polygon class="cls-1" points="115.08 94.77 115.08 108.31 108.31 108.31 108.31 101.54 101.54 101.54 101.54 108.31 94.77 108.31 94.77 94.77 101.54 94.77 101.54 88 108.31 88 108.31 94.77 115.08 94.77"/><rect class="cls-1" x="67.69" y="81.23" width="6.77" height="6.77"/><rect class="cls-1" x="13.54" y="81.23" width="6.77" height="6.77"/><polygon class="cls-1" points="13.54 74.46 13.54 81.23 6.77 81.23 6.77 88 0 88 0 67.69 6.77 67.69 6.77 74.46 13.54 74.46"/><polygon class="cls-1" points="33.85 60.92 33.85 67.69 27.08 67.69 27.08 74.46 20.31 74.46 20.31 67.69 6.77 67.69 6.77 60.92 13.54 60.92 13.54 54.15 20.31 54.15 20.31 60.92 33.85 60.92"/><rect class="cls-1" x="81.23" y="54.15" width="6.77" height="6.77"/><rect class="cls-1" x="88" y="60.92" width="13.54" height="6.77"/><rect class="cls-1" x="101.54" y="54.15" width="6.77" height="6.77"/><polygon class="cls-1" points="142.15 121.85 142.15 135.38 135.38 135.38 135.38 142.15 108.31 142.15 108.31 135.38 128.62 135.38 128.62 128.62 135.38 128.62 135.38 121.85 142.15 121.85"/><polygon class="cls-1" points="142.15 101.54 142.15 115.08 135.38 115.08 135.38 108.31 128.62 108.31 128.62 121.85 121.85 121.85 121.85 128.62 115.08 128.62 115.08 121.85 101.54 121.85 101.54 115.08 121.85 115.08 121.85 101.54 142.15 101.54"/><rect class="cls-1" x="101.54" y="128.61" width="6.77" height="6.77"/><rect class="cls-1" x="94.77" y="121.85" width="6.77" height="6.77"/><rect class="cls-1" x="88" y="135.38" width="6.77" height="6.77"/><rect class="cls-1" x="67.69" y="135.38" width="6.77" height="6.77"/><rect class="cls-1" x="60.92" y="128.61" width="6.77" height="6.77"/></g></g></g></svg>